<svg id="Layer_1" data-name="Layer 1" xmlns="http://www.w3.org/2000/svg" viewBox="0 0 100 100"><defs><style>.cls-1{fill:#55c2b4;}.cls-2{fill:#1b75bc;}</style></defs><title>010</title><path class="cls-1" d="M72.43,32.15l-.14.25C71.19,34,70.1,35.64,69,37.25a.53.53,0,0,0,0,.68,24.41,24.41,0,0,1,2.45,5.53,9.82,9.82,0,0,1,.3,1.06.42.42,0,0,0,.39.36l3.66.65,2.23.39c.19,0,.25.12.25.32,0,3,0,6,0,9.07,0,.52,0,.43-.41.51L72.25,56.9a.5.5,0,0,0-.46.43,24.33,24.33,0,0,1-2.67,6.61.48.48,0,0,0,0,.61l3.33,4.74a.41.41,0,0,1,0,.62q-2.25,2.25-4.48,4.52c-.64.66-1.29,1.31-1.93,2-.14.15-.24.16-.42,0l-4.85-3.32a.53.53,0,0,0-.66,0,23.19,23.19,0,0,1-6.43,2.71.68.68,0,0,0-.59.61c-.3,1.87-.66,3.73-1,5.6-.05.3-.16.39-.47.39l-9.19.06a.29.29,0,0,1-.23-.18c-.26-1.3-.51-2.61-.76-3.91-.13-.7-.26-1.4-.42-2.1a.42.42,0,0,0-.27-.29,26.25,26.25,0,0,1-6.86-2.79.38.38,0,0,0-.33,0q-2.48,1.73-4.94,3.46c-.21.15-.34.15-.52,0-2.15-2.13-4.29-4.26-6.45-6.38-.23-.22-.24-.35-.06-.61C22.72,68,23.84,66.36,25,64.71a.36.36,0,0,0,0-.32,25,25,0,0,1-2.36-5.08c-.18-.52-.33-1.06-.47-1.59a.58.58,0,0,0-.53-.49c-1.72-.28-3.44-.6-5.16-.91l-.08,0c-.25,0-.62,0-.73-.17s-.06-.53-.07-.8c0-2.88,0-5.75-.06-8.63,0-.24.06-.34.31-.38,1.84-.35,3.68-.73,5.52-1.06a.79.79,0,0,0,.76-.7,23.72,23.72,0,0,1,2.65-6.44.38.38,0,0,0,0-.48c-.91-1.27-1.8-2.56-2.7-3.84-.25-.36-.48-.73-.74-1.07-.15-.19-.11-.3,0-.45q1.58-1.56,3.13-3.14t3.32-3.4a.31.31,0,0,1,.5,0c.51.39,1,.78,1.57,1.14,1.13.76,2.27,1.51,3.41,2.25a.4.4,0,0,0,.37,0,25.21,25.21,0,0,1,4.7-2.21c.68-.23,1.37-.43,2.07-.63a.4.4,0,0,0,.32-.37l1.05-5.95c0-.16.09-.23.27-.23h1.34l7.85,0c.25,0,.37,0,.43.33.35,1.94.75,3.87,1.11,5.81a.37.37,0,0,0,.34.36,22.88,22.88,0,0,1,4.57,1.58c.74.35,1.45.74,2.16,1.13a.42.42,0,0,0,.53,0c1.46-1,2.93-2.06,4.4-3.08.14-.1.28-.19.41-.3a.35.35,0,0,1,.56,0c.6.63,1.22,1.24,1.85,1.85q2.34,2.32,4.7,4.63Zm-54.84,16v.38c0,1.87,0,3.73,0,5.6,0,.26.08.35.33.4,1.86.32,3.71.66,5.56,1a.31.31,0,0,1,.29.27c.31,1.11.58,2.24.95,3.34a20.81,20.81,0,0,0,2.61,5.15c.12.17.26.32.08.57l-3.23,4.74c-.09.13-.09.21,0,.32s.5.45.74.69L28.42,74c.1.1.17.16.32.05l4.41-3.08c.5-.36.5-.36,1,0A24.36,24.36,0,0,0,38.38,73a23.46,23.46,0,0,0,4.08,1.18.4.4,0,0,1,.38.36c.33,1.8.68,3.58,1,5.37.08.43.07.44.52.43,1.86,0,3.71,0,5.57,0,.23,0,.31-.08.34-.3.33-1.86.68-3.72,1-5.58,0-.19.1-.27.29-.31.5-.1,1-.21,1.5-.35a22.7,22.7,0,0,0,7-3.21.48.48,0,0,1,.65,0l4.56,3.12a.27.27,0,0,0,.42,0c.69-.71,1.39-1.42,2.09-2.12l1.84-1.85c.31-.31.31-.32.07-.66q-1.56-2.25-3.13-4.48a.38.38,0,0,1,0-.52A23.65,23.65,0,0,0,69,59.3a22.79,22.79,0,0,0,1.06-3.8c0-.21.09-.36.34-.36a.88.88,0,0,0,.26-.06c1.73-.33,3.46-.67,5.2-1,.29-.05.36-.17.36-.45,0-1.77,0-3.55,0-5.32,0-.75.12-.56-.61-.7-1.74-.34-3.49-.64-5.23-.94a.39.39,0,0,1-.36-.35c-.23-.94-.44-1.89-.75-2.81a22.69,22.69,0,0,0-2.84-5.73.36.36,0,0,1,0-.48q1.5-2.18,3-4.37c.34-.5.34-.51-.1-.95-1.27-1.27-2.56-2.54-3.83-3.82-.13-.12-.23-.15-.38,0-1.47,1-3,2.06-4.43,3.1-.47.34-.46.34-.94,0a22.53,22.53,0,0,0-8.34-3.32c-.24,0-.33-.16-.38-.4-.34-1.84-.71-3.68-1-5.52,0-.2-.12-.26-.31-.26l-5.78,0-.27,0q-.14.76-.27,1.5c-.26,1.45-.52,2.89-.77,4.34a.34.34,0,0,1-.31.32c-.42.08-.84.18-1.25.29a23.55,23.55,0,0,0-7.27,3.3.46.46,0,0,1-.6,0l-2.61-1.77-2.06-1.45a.34.34,0,0,0-.28,0c-.49.48-1,1-1.44,1.47-.75.78-1.49,1.57-2.24,2.34s-.61.61-.1,1.33c1,1.38,1.95,2.77,2.91,4.16a.43.43,0,0,1,0,.37c-.25.44-.54.85-.79,1.29a23.43,23.43,0,0,0-2.74,7.37.37.37,0,0,1-.34.34l-1.93.36Z"/><path class="cls-2" d="M76.08,82.46l-1.51,1.23c-.12.1-.2.07-.29,0l-1-1.34a.29.29,0,0,1,0-.28c.4-.35.83-.68,1.24-1,.11-.1.2-.14.32,0C75.25,81.48,75.66,82,76.08,82.46Z"/><path class="cls-2" d="M70.39,86.65c-.3-.47-.58-.9-.85-1.34s-.26-.43.15-.71l1.11-.75c.12-.09.2-.08.29.05l1,1.41a.25.25,0,0,1,0,.24Z"/><path class="cls-2" d="M84,53.56l3,4.64h.11c0-.17.07-.33.1-.5a43.49,43.49,0,0,0,.55-5.35,41.34,41.34,0,0,0-3.17-17.25,38.11,38.11,0,0,0-3.48-6.52c-.67-1-1.37-2-2.11-2.94a37,37,0,0,0-6.77-6.7c-.38-.3-.38-.2-.1-.58s.57-.76.84-1.15c.13-.17.22-.21.4-.05.93.79,1.92,1.52,2.81,2.37,1.15,1.09,2.26,2.22,3.31,3.41a40,40,0,0,1,4.92,7,42.61,42.61,0,0,1,4.06,10.12,43.9,43.9,0,0,1,1.32,8.3,43,43,0,0,1-.49,9.41c0,.27-.09.53-.13.8a.87.87,0,0,0,0,.13l4.69-3L95,57.46l-1.4.91-6,3.84-.23.15c-.14.09-.22.09-.33-.08Q84.74,58.62,82.36,55c-.14-.22-.11-.33.11-.46C83,54.21,83.45,53.89,84,53.56Z"/><path class="cls-2" d="M7.22,46.35l-2-.21A42,42,0,0,1,14.1,24.72,42.66,42.66,0,0,1,32.88,11.1l0-.09-1.5-.75c-1.07-.53-2.14-1.07-3.22-1.59-.2-.1-.24-.19-.13-.38.28-.54.54-1.08.82-1.63l8.26,4.13A1.84,1.84,0,0,1,37,11c-1.3,2.6-2.59,5.19-3.88,7.79-.1.2-.18.24-.38.13-.52-.28-1.06-.54-1.63-.82l2.47-5-.07-.07A40.87,40.87,0,0,0,7.22,46.35Z"/><path class="cls-2" d="M19.44,82.79l.19,5.57-1.1.06-.74,0c-.18,0-.24,0-.25-.23,0-1.6-.1-3.19-.16-4.79l-.15-3.82c0-.4,0-.4.39-.41L22.1,79l4.13-.16c.07,0,.22.08.23.13,0,.63,0,1.26,0,1.93L21,81.16l0,.09c.29.25.57.51.86.75a42.12,42.12,0,0,0,5.88,4,39.9,39.9,0,0,0,7.49,3.27,37.54,37.54,0,0,0,9.55,1.84c1.72.09,3.45.14,5.17.07a36.44,36.44,0,0,0,7.48-1.12,39.25,39.25,0,0,0,5.09-1.65c.18-.07.26-.05.33.13.19.49.39,1,.61,1.45.08.19.06.29-.14.36-1.21.42-2.41.87-3.62,1.25a37.34,37.34,0,0,1-5.8,1.29,44.79,44.79,0,0,1-5.42.42A42.34,42.34,0,0,1,33.4,90.89,42.37,42.37,0,0,1,28,88.58a41.8,41.8,0,0,1-7.52-5l-.86-.73A1.42,1.42,0,0,0,19.44,82.79Z"/><path class="cls-2" d="M69,14.26c.59.36,1.14.69,1.68,1a.25.25,0,0,1,0,.25c-.29.48-.6.95-.9,1.43-.1.15-.19.14-.32.06l-1.36-.85a.31.31,0,0,1-.1-.25Z"/><path class="cls-2" d="M64.57,12c.6.29,1.13.56,1.67.8.18.09.23.18.13.37-.23.45-.46.91-.68,1.37-.1.19-.19.26-.42.15-.51-.28-1-.52-1.58-.79Z"/><path class="cls-2" d="M65.16,87.22l1.63-.88a.27.27,0,0,1,.26.09c.31.53.61,1.07.94,1.66l-1.89,1Z"/><path class="cls-2" d="M60.05,10.19c.59.23,1.18.45,1.76.69a.23.23,0,0,1,.09.23c-.19.53-.39,1.06-.61,1.58a.3.3,0,0,1-.24.12c-.53-.19-1.06-.38-1.58-.59a.25.25,0,0,1-.13-.19c.2-.58.41-1.15.62-1.73A.35.35,0,0,1,60.05,10.19Z"/><path class="cls-2" d="M8.07,60.48c-.63.13-1.23.24-1.82.37-.18,0-.24,0-.27-.21-.09-.55-.2-1.09-.29-1.64a.28.28,0,0,1,.14-.23c.61-.11,1.23-.2,1.88-.3Z"/><path class="cls-2" d="M5.09,53.91,7,53.77a.29.29,0,0,1,.19.17c.06.61.11,1.21.16,1.85L5.44,56a.26.26,0,0,1-.17-.17C5.2,55.21,5.15,54.58,5.09,53.91Z"/><path class="cls-2" d="M5,49H7.07c0,.18,0,.28,0,.37,0,.5,0,1,0,1.48,0,.17-.05.23-.22.24l-1.66,0c-.06,0-.18-.1-.18-.16C5,50.29,5,49.65,5,49Z"/><path class="cls-1" d="M64.47,51.38A17.56,17.56,0,1,1,46.93,33.51,17.54,17.54,0,0,1,64.47,51.38ZM46.9,66.54A15.47,15.47,0,1,0,31.44,51.4,15.5,15.5,0,0,0,46.9,66.54Z"/><path class="cls-1" d="M41.75,59l1-2.08q2.52-5,5.06-10c.73-1.46,1.47-2.91,2.19-4.37.12-.23.23-.29.48-.15.5.28,1,.52,1.56.79L51.15,45l-1.44,2.83Q48,51.13,46.4,54.43q-1.34,2.63-2.65,5.25c-.1.21-.19.25-.4.14C42.83,59.54,42.31,59.29,41.75,59Z"/><path class="cls-1" d="M38,51c.32.35.61.68.92,1,.75.77,1.5,1.55,2.26,2.32.15.15.16.26,0,.41-.45.4-.88.81-1.35,1.25L35,51l1.41-1.44,2.86-2.9a6,6,0,0,0,.42-.46c.12-.14.22-.12.34,0,.38.39.76.78,1.16,1.16.15.14.11.23,0,.36-.89.89-1.77,1.78-2.65,2.68C38.35,50.58,38.18,50.78,38,51Z"/><path class="cls-1" d="M54,56.11l-1.47-1.52,3.39-3.45-3.31-3.48c.42-.45.82-.86,1.2-1.29.16-.17.26-.16.43,0,1.46,1.53,2.94,3,4.42,4.56.17.17.15.28,0,.44-1,1-2,2-3,3Z"/></svg>