<svg id="Layer_1" data-name="Layer 1" xmlns="http://www.w3.org/2000/svg" viewBox="0 0 100 100"><defs><style>.cls-1{fill:#1b75bc;}.cls-2{fill:#55c2b4;}</style></defs><title>020</title><path class="cls-1" d="M58.17,51.23c.68,0,1.16,0,1.63,0a1.88,1.88,0,0,1,1.94,1.94q0,3.42,0,6.84a1.89,1.89,0,0,1-2.07,1.88c-1.33,0-2.67,0-4,0V64h1.74c.9,0,1.33.4,1.34,1.15a1.22,1.22,0,0,1-1.34,1.27c-.56,0-1.12,0-1.71,0,0,.24-.1.42-.13.6a3.22,3.22,0,0,1-3.23,2.79c-1.42,0-2.85,0-4.27,0a3.22,3.22,0,0,1-3.21-2.91c0-.12,0-.25-.08-.48-.55,0-1.08,0-1.61,0-1,0-1.49-.42-1.49-1.19S42.16,64,43.1,64h1.64V61.9H41c-1.64,0-2.36-.72-2.36-2.35V53.67c0-1.61.74-2.34,2.37-2.34h1.15a17.11,17.11,0,0,0-4.49-9.62,20.66,20.66,0,0,1-5.32-9.13,18.26,18.26,0,0,1,35.44-8.84,17.59,17.59,0,0,1-4.16,16.61A20.75,20.75,0,0,0,58.92,48C58.62,49,58.44,50,58.17,51.23Zm-2.5,0c0-.17.07-.38.12-.58.41-1.55.74-3.13,1.26-4.64,1-2.89,2.94-5.19,4.92-7.48a15.09,15.09,0,0,0,3.54-13.64,15.9,15.9,0,0,0-31.42,3.65,16.19,16.19,0,0,0,4.76,11,21.18,21.18,0,0,1,3.6,5,21.47,21.47,0,0,1,2,6.69h4.35V34h2.44V51.23Zm3.64,2.53H41v5.59H59.31Zm-6.16,8.05H47.23c0,1.59,0,3.14,0,4.69a.79.79,0,0,0,.88.84c1.36,0,2.73,0,4.1,0a.85.85,0,0,0,.93-.89C53.16,64.93,53.15,63.41,53.15,61.81Z"/><path class="cls-2" d="M34.86,79c.54,0,1,0,1.4,0a1.13,1.13,0,0,1,1.23,1.19c0,2.87,0,5.75,0,8.62,0,.88-.42,1.19-1.45,1.2-2.81,0-5.63,0-8.45,0-3.3,0-6.6,0-9.9,0-1.45,0-1.76-.3-1.76-1.73V81c0-1.85.19-2,2-2h1c0-1.53.27-3-.79-4.38-2.47-3.24-4.82-6.57-7.24-9.86a4.3,4.3,0,0,1-.91-2.6c0-5.12,0-10.25,0-15.37a4.12,4.12,0,1,1,8.24,0c0,3.84,0,7.68,0,11.51,0,.33.07.66.12,1.11,1-.83,1.93-1.58,2.87-2.27a6.3,6.3,0,0,1,1.62-.86A1.81,1.81,0,0,1,25,57q4.39,5.6,8.77,11.22a5.11,5.11,0,0,1,1.08,3.22C34.85,73.9,34.86,76.39,34.86,79ZM23.24,58.66c-.83.64-1.56,1.23-2.32,1.78-.6.44-.62.84-.14,1.39,1,1.11,1.9,2.26,2.86,3.38a1.18,1.18,0,0,1,.07,1.61c-.5.68-1.35.59-2-.2-1.66-1.9-3.29-3.82-5-5.69a3.1,3.1,0,0,1-.87-2.31c0-3.89,0-7.78,0-11.67a1.79,1.79,0,0,0-1-1.9,1.68,1.68,0,0,0-2.34,1.76q0,7.68,0,15.36a2.31,2.31,0,0,0,.42,1.24c2.45,3.4,4.95,6.75,7.37,10.16a7.75,7.75,0,0,1,1.11,2.53,15,15,0,0,1,.22,2.69H32.44v-.92c0-2.09,0-4.18,0-6.27a3.55,3.55,0,0,0-.82-2.37l-2.95-3.72ZM35,81.46H18.42v6.06H35Z"/><path class="cls-2" d="M65.28,79.11c0-1.86,0-3.63,0-5.39,0-4.69-.14-4,2.63-7.57L75,57.09a2.13,2.13,0,0,1,3.11-.5c1.17.84,2.28,1.77,3.5,2.73a6.18,6.18,0,0,0,.11-.85c0-3.87,0-7.73,0-11.59a4.14,4.14,0,0,1,6-3.79A3.79,3.79,0,0,1,90,46.58c0,5.29,0,10.57,0,15.85a4,4,0,0,1-.71,2.07c-2.2,3.11-4.41,6.22-6.76,9.2A6.38,6.38,0,0,0,81.13,79c.56,0,1.16,0,1.77,0,.84,0,1.25.39,1.25,1.23q0,4.26,0,8.53c0,.92-.41,1.25-1.48,1.25-4.64,0-9.28,0-13.92,0-1.55,0-3.11,0-4.66,0-1.12,0-1.49-.38-1.5-1.51,0-2.58,0-5.15,0-7.73,0-1.31.34-1.65,1.67-1.65ZM78.48,79c0-.37,0-.66,0-1a7.4,7.4,0,0,1,1.71-5.28c2.37-3.11,4.65-6.3,7-9.46a1.73,1.73,0,0,0,.36-.85c0-.61,0-1.23,0-1.84q0-6.8,0-13.59a1.83,1.83,0,0,0-1-1.92c-1.23-.53-2.37.33-2.37,1.81,0,4,0,8,0,12.06a2.2,2.2,0,0,1-.34,1.34c-1.83,2.18-3.71,4.31-5.59,6.44a1.22,1.22,0,0,1-1.77.3,1.25,1.25,0,0,1,0-1.9q1.43-1.7,2.86-3.38c.34-.39.4-.77,0-1.11-.83-.67-1.67-1.3-2.54-2-2.9,3.71-5.77,7.35-8.58,11a2.93,2.93,0,0,0-.47,1.66c0,2.33,0,4.66,0,7,0,.21,0,.41.06.62Zm3.1,2.5H65v6.07H81.58Z"/><path class="cls-1" d="M46.88,30.29c-.22.25-.46.76-.79.84a1.66,1.66,0,0,1-1.37-.27,20.87,20.87,0,0,1-2.06-3,1.07,1.07,0,0,1,.39-1.49,1.1,1.1,0,0,1,1.59.16c.72,1,1.37,2,2,3A4.13,4.13,0,0,1,46.88,30.29Z"/><path class="cls-1" d="M51.1,26.67c0,.51,0,1,0,1.53a1.26,1.26,0,0,1-1.22,1.33,1.23,1.23,0,0,1-1.2-1.33c0-1,0-2,0-3.05a1.2,1.2,0,0,1,1.2-1.32c.73,0,1.18.48,1.21,1.31C51.12,25.65,51.1,26.16,51.1,26.67Z"/><path class="cls-1" d="M57.23,27.09a7.34,7.34,0,0,1-.42,1c-.5.82-1,1.63-1.54,2.43a1.19,1.19,0,0,1-1.71.47,1.26,1.26,0,0,1-.36-1.76c.53-.89,1.09-1.77,1.67-2.63a1,1,0,0,1,1.38-.45A5.46,5.46,0,0,1,57.23,27.09Z"/></svg>