<svg id="Layer_1" data-name="Layer 1" xmlns="http://www.w3.org/2000/svg" viewBox="0 0 100 100"><defs><style>.cls-1{fill:#1b75bc;}.cls-2{fill:#55c2b4;}</style></defs><title>030</title><path class="cls-1" d="M85.72,43.68a7.14,7.14,0,0,1-.51,1c-.6.82-1.22,1.64-1.87,2.42a.86.86,0,0,0-.09,1.06c.55,1.19,1,2.4,1.49,3.63a.8.8,0,0,0,.78.64c1.07.1,2.13.24,3.2.36.91.1,1.25.43,1.26,1.34,0,1.44,0,2.89,0,4.34a1.25,1.25,0,0,1-1.24,1.39c-1.09.15-2.19.25-3.27.44a1.09,1.09,0,0,0-.69.57c-.53,1.2-1,2.44-1.52,3.62a.89.89,0,0,0,.11,1.12c.67.81,1.29,1.65,1.93,2.48a1.22,1.22,0,0,1-.12,1.79c-1,1-1.93,1.94-2.91,2.9a1.36,1.36,0,0,1-2,.16c-.87-.64-1.69-1.34-2.57-2a1.1,1.1,0,0,0-.89-.07c-1.27.47-2.53,1-3.78,1.54a1,1,0,0,0-.51.65c-.18,1-.29,2.12-.43,3.18s-.54,1.38-1.52,1.39h-4c-1,0-1.43-.44-1.55-1.46s-.25-2-.34-3a.82.82,0,0,0-.65-.78c-1.23-.45-2.44-.94-3.63-1.49a.86.86,0,0,0-1.06.1c-.81.67-1.64,1.29-2.48,1.92A1.17,1.17,0,0,1,55,72.8c-1-1-2-2-3.07-3.08A1.13,1.13,0,0,1,51.79,68c.63-.86,1.28-1.72,2-2.55a.8.8,0,0,0,.11-1c-.56-1.24-1-2.52-1.59-3.77a.92.92,0,0,0-.57-.49c-1.11-.18-2.23-.28-3.35-.44a1.27,1.27,0,0,1-1.26-1.46c0-1.34,0-2.69,0-4,0-1,.37-1.46,1.4-1.6s2.08-.21,3.11-.39a1.09,1.09,0,0,0,.69-.57c.55-1.21,1-2.47,1.56-3.69a.81.81,0,0,0-.1-1c-.67-.83-1.31-1.7-2-2.54a1.21,1.21,0,0,1,.12-1.79C53,41.6,54,40.56,55,39.51a1.15,1.15,0,0,1,1.72-.1c.87.66,1.72,1.36,2.62,2a1.15,1.15,0,0,0,.91.08c1.28-.48,2.54-1,3.78-1.55a1.16,1.16,0,0,0,.56-.72c.21-1,.33-2.06.5-3.09a1.3,1.3,0,0,1,1.48-1.26h4.1c1,0,1.4.4,1.51,1.39s.25,2,.34,3a1,1,0,0,0,.77.95c1.2.42,2.38.93,3.55,1.47a.81.81,0,0,0,1-.09c.83-.68,1.7-1.32,2.55-2a1.2,1.2,0,0,1,1.78.11c1,1,2,1.92,2.89,2.91A5.63,5.63,0,0,1,85.72,43.68ZM87.52,55c-1.16-.16-2.27-.33-3.39-.45a1.5,1.5,0,0,1-1.48-1.31,14.12,14.12,0,0,0-2.12-5.17,1.18,1.18,0,0,1,.08-1.55c.76-1,1.48-1.93,2.11-2.76l-1.61-1.83-2.48,1.88c-1,.75-1.28.69-2.41.16a38.41,38.41,0,0,0-4.37-1.77c-1.27-.43-1.56-.64-1.71-2-.12-1-.26-2-.39-3.08-.65,0-1.24,0-1.82,0s-.65.2-.7.65c-.09.93-.24,1.86-.33,2.79a1.51,1.51,0,0,1-1.3,1.51,13.72,13.72,0,0,0-5,2.08A1.42,1.42,0,0,1,58.75,44c-.91-.73-1.86-1.42-2.65-2l-1.79,1.66c.63.83,1.24,1.69,1.9,2.49a1.88,1.88,0,0,1,.14,2.28C55.64,50,55,51.53,54.48,53.12c-.33.93-.61,1.28-1.59,1.41L49.55,55v2.41c1.15.15,2.26.34,3.38.44a1.54,1.54,0,0,1,1.52,1.38,13.68,13.68,0,0,0,2,4.86A1.46,1.46,0,0,1,56.39,66c-.74.91-1.42,1.86-2,2.66l1.69,1.76c.79-.6,1.64-1.21,2.45-1.88a1.92,1.92,0,0,1,2.29-.16,47.32,47.32,0,0,0,4.74,1.9,1.74,1.74,0,0,1,1.37,1.57c.1.93.2,1.86.36,2.78,0,.23.28.56.46.58a19.32,19.32,0,0,0,2,0c.17-1.22.33-2.36.46-3.5a1.52,1.52,0,0,1,1.36-1.44,13.93,13.93,0,0,0,5-2,1.26,1.26,0,0,1,1.68.06c.93.75,1.9,1.46,2.78,2.12l1.78-1.63c-.66-.88-1.26-1.73-1.93-2.54A1.89,1.89,0,0,1,80.72,64a51.1,51.1,0,0,0,1.9-4.75,1.72,1.72,0,0,1,1.55-1.37c1.11-.13,2.22-.3,3.35-.45Z"/><path class="cls-2" d="M39,74.74V76c0,3.41,0,6.81,0,10.22A3.48,3.48,0,0,1,35.17,90q-4.26,0-8.53,0c-2.48,0-3.81-1.37-3.81-3.86V74.74H20.58c-.41,0-.81,0-1.21,0-1.13,0-1.5-.38-1.5-1.52,0-3.4,0-6.81,0-10.21,0-3.19-.09-6.39.1-9.57a7.38,7.38,0,0,1,7.59-7.08c3.57,0,7.14,0,10.7,0a7.55,7.55,0,0,1,7.6,7.22c.14,3.35.06,6.7.07,10.06v9.49c0,1.28-.35,1.63-1.62,1.63C41.25,74.75,40.18,74.74,39,74.74ZM23,72.27V63.16c0-1,.44-1.54,1.24-1.53s1.18.53,1.18,1.5V73q0,6.6,0,13.2c0,.62.14,1.23.82,1.28,1.15.09,2.33,0,3.55,0V81.74c0-2.47,0-4.94,0-7.41,0-1,.54-1.49,1.35-1.42s1.07.53,1.07,1.43c0,4.08,0,8.15,0,12.23v.89a1.45,1.45,0,0,0,.28.09l2.41,0c1.53,0,1.68-.15,1.68-1.64V68.15c0-1.72,0-3.44,0-5.15,0-1.12,1-1.77,1.83-1.16a1.83,1.83,0,0,1,.57,1.3c.05,2.7,0,5.41,0,8.12v1h2.53V66.67c0-4.08,0-8.16,0-12.23,0-3.58-2.08-5.64-5.64-5.65s-6.92,0-10.38,0a4.71,4.71,0,0,0-4,2.06,6.19,6.19,0,0,0-1.12,3.78q0,8.37,0,16.74v.91Z"/><path class="cls-2" d="M21.7,28.91A15.82,15.82,0,0,1,46.49,16.37a15,15,0,0,1,10.44-6.24,14.71,14.71,0,0,1,9,1.66,15.25,15.25,0,0,1,7.63,17,23.63,23.63,0,0,1,2.67.46,10.28,10.28,0,0,1,7.33,7.33,1.35,1.35,0,0,1-.79,1.84c-.72.2-1.34-.27-1.59-1.2a8,8,0,0,0-7.7-5.92h-1c-1.82,0-2.17-.48-1.61-2.18A12,12,0,0,0,71.16,22c-1.43-5.07-4.74-8.33-9.91-9.32-5.41-1-9.82.94-13,5.41-1.38,1.93-1.37,1.75-3,.55a13.29,13.29,0,0,0-20.84,8.69c-.13.87-.13,1.76-.18,2.64s-.49,1.45-1.5,1.48a27,27,0,0,0-3.93.2,8,8,0,0,0-6.29,7,7.72,7.72,0,0,0,5,8.13A2.58,2.58,0,0,1,18,47a1.23,1.23,0,0,1,.39,1.63,1.06,1.06,0,0,1-1.43.51,10.41,10.41,0,0,1,3.49-20.23Z"/><path class="cls-2" d="M30.84,30a7.75,7.75,0,1,1-7.74,7.71A7.76,7.76,0,0,1,30.84,30ZM36.16,38a5.33,5.33,0,0,0-5.24-5.39,5.27,5.27,0,0,0-5.4,5.29,5.32,5.32,0,1,0,10.64.1Z"/><path class="cls-1" d="M68.68,66.48a10.35,10.35,0,0,1-10.45-10.3A10.47,10.47,0,0,1,68.64,45.87,10.64,10.64,0,0,1,79.1,56.28,10.42,10.42,0,0,1,68.68,66.48ZM60.55,56.36a7.94,7.94,0,0,0,8.19,7.82,8.06,8.06,0,0,0,7.81-8,8,8,0,0,0-16,.18Z"/></svg>