<svg id="Layer_1" data-name="Layer 1" xmlns="http://www.w3.org/2000/svg" viewBox="0 0 100 100"><defs><style>.cls-1{fill:#1b75bc;}.cls-2{fill:#55c2b4;}</style></defs><title>040</title><path class="cls-1" d="M86.21,55.59c0,.43,0,.74,0,1,0,1.8,0,3.6,0,5.4a6.13,6.13,0,0,1-6,6c-.75,0-1.49,0-2.23,0a2.36,2.36,0,0,0-2.44,1.87A15.66,15.66,0,0,0,75,72.67C75,73.83,75,75,75,76.16a3.52,3.52,0,0,1-.07.79c-.19.84-.51,1.11-1.37,1.11-1.46,0-2.92,0-4.37,0H55.31c-1.13,0-1.54-.41-1.55-1.52,0-.82,0-1.64,0-2.47v-.86c-.35,0-.63-.07-.91-.07-1.35,0-2.7,0-4.05,0a18.81,18.81,0,0,1-14.5-6.72,17.85,17.85,0,0,1-4.23-9.76A18.78,18.78,0,0,1,31.85,46c.39-.82.91-1.58,1.43-2.46L35.35,45c-.15.26-.25.47-.37.66a16.1,16.1,0,0,0-2.48,9.84A15.93,15.93,0,0,0,37,65.57a16.43,16.43,0,0,0,9.27,4.81,39.63,39.63,0,0,0,6.89.19c.05,0,.09,0,.24-.11-.1-.33-.21-.67-.3-1a16.18,16.18,0,0,0-2.89-5.68A57.89,57.89,0,0,1,44,53.92a27.79,27.79,0,0,1-2.57-8.14,21.28,21.28,0,0,1,.08-6.07,23.15,23.15,0,0,1,4.58-10.93,23.63,23.63,0,0,1,9.57-7.5,23.25,23.25,0,0,1,6.48-1.76,21.21,21.21,0,0,1,4.58-.1,27.84,27.84,0,0,1,5.21,1,23.37,23.37,0,0,1,7.5,3.87,23.87,23.87,0,0,1,5.5,6,22.74,22.74,0,0,1,3.46,9c.16,1.07.21,2.16.33,3.23a5.77,5.77,0,0,0,.23,1.08q1.62,4.89,3.26,9.79l.13.37c.35,1.12-.1,1.76-1.26,1.77H87.17C86.89,55.53,86.61,55.56,86.21,55.59Zm3.27-2.45c-.13-.44-.2-.72-.29-1-.88-2.63-1.76-5.26-2.62-7.91a6.44,6.44,0,0,1-.26-1.39c-.14-1.15-.18-2.32-.39-3.46a21,21,0,0,0-6.69-12,21.59,21.59,0,0,0-5.75-3.75A21.13,21.13,0,0,0,51.06,27,21.35,21.35,0,0,0,44.47,37.4a20.22,20.22,0,0,0-.69,7.46A22.24,22.24,0,0,0,46,52.43a63.63,63.63,0,0,0,6.53,10.39,17.47,17.47,0,0,1,3.6,10.61c0,.51,0,1,0,1.51a3.52,3.52,0,0,0,.09.58c.77.23,15.56.22,16.26,0,0-.62,0-1.28,0-1.94a16.53,16.53,0,0,1,.7-4.68,4.78,4.78,0,0,1,4.39-3.2c.66,0,1.32,0,2,0a4.48,4.48,0,0,0,2.21-.53,3.76,3.76,0,0,0,2-3.4c0-2.38,0-4.76,0-7.14,0-1,.44-1.44,1.45-1.46h4.26Z"/><path class="cls-2" d="M21.39,38.85c-.42-.43-.78-.84-1.19-1.21a3.79,3.79,0,0,1,0-5.64c1.86-1.76,3.71-3.55,5.59-5.28a3.6,3.6,0,0,1,4.91.09.57.57,0,0,1,.11.11,2.1,2.1,0,0,0,3,.62c1.55-.74,3.17-1.33,4.76-2,1.21-.5,1.41-.77,1.38-2.08a3.79,3.79,0,0,1,1.78-3.58,3.35,3.35,0,0,1,1.48-.53c1.39-.07,2.79,0,4.17,0a5,5,0,0,1,.08,2.43,4.54,4.54,0,0,1-.57.09c-.8,0-1.59,0-2.39,0-1.5-.08-2.1.36-2,2a3.75,3.75,0,0,1-.66,2.4,4,4,0,0,1-1.88,1.53c-1.95.82-3.91,1.61-5.86,2.43a3.72,3.72,0,0,1-4.48-.93c-1.08-1.13-1.63-1.12-2.69,0-1.53,1.54-3.15,3-4.72,4.47a3.66,3.66,0,0,0-.39.4,1.12,1.12,0,0,0,.07,1.58c.37.41.77.79,1.17,1.18A2.66,2.66,0,0,1,23.7,40c-1,2.37-1.94,4.75-3,7.1a3.45,3.45,0,0,1-3.35,2.24,10.28,10.28,0,0,0-1.11,0A1.21,1.21,0,0,0,15,50.69c0,2.44,0,4.87,0,7.31,0,.85.47,1.27,1.35,1.32a10.75,10.75,0,0,1,1.8.15,3.52,3.52,0,0,1,2.52,2.23c.84,2,1.64,4,2.48,6a4,4,0,0,1-.93,4.66c-1.18,1.21-1.18,1.51,0,2.72q2.23,2.25,4.49,4.49a1.32,1.32,0,0,0,2.18,0l.4-.39a3.5,3.5,0,0,1,4.06-.95c2.28.84,4.53,1.79,6.75,2.78a3.3,3.3,0,0,1,2,3.22c0,.37,0,.75,0,1.12a1.44,1.44,0,0,0,1.55,1.44c1.26-.06,2.54,0,3.81,0,.28,0,.56,0,.9,0v2.42a6.71,6.71,0,0,1-.76.07c-1.45,0-2.91,0-4.37,0a3.63,3.63,0,0,1-3.55-3.12,9.18,9.18,0,0,1-.13-1.65,1.31,1.31,0,0,0-.93-1.4l-3.89-1.6-1.91-.79a1.48,1.48,0,0,0-1.92.39,6.71,6.71,0,0,1-1.15,1,3.81,3.81,0,0,1-4.56-.4c-1.81-1.82-3.66-3.6-5.43-5.46a3.6,3.6,0,0,1-.18-4.91c.26-.33.56-.63.85-.94a1.41,1.41,0,0,0,.33-1.6c-.85-2-1.68-4.06-2.52-6.09A1.32,1.32,0,0,0,17,61.87a10,10,0,0,1-1.73-.13,3.63,3.63,0,0,1-2.86-3.62c0-2.46.06-4.93,0-7.39a3.81,3.81,0,0,1,3.87-3.94,7.12,7.12,0,0,1,.8,0,1.25,1.25,0,0,0,1.35-.88l1.29-3.07C20.29,41.55,20.82,40.25,21.39,38.85Z"/><path class="cls-1" d="M72.59,81.94h2.27a5.94,5.94,0,0,1-1,3.82,7.2,7.2,0,0,1-6.33,3.57c-2.12,0-4.24,0-6.35,0a7.41,7.41,0,0,1-7.41-6.61,6.39,6.39,0,0,1,0-.76H56.1a6,6,0,0,1,.18.73,4.92,4.92,0,0,0,4.79,4.15c2.11-.08,4.23-.09,6.35,0a5,5,0,0,0,5-4.09Z"/><path class="cls-2" d="M76.31,12.42l2.36,1-1,2.45-2.34-1Z"/><path class="cls-2" d="M51.26,13.4l2.35-1,1.07,2.43-2.35,1Z"/><path class="cls-2" d="M87,18.93l1.94,1.68-2,1.79L85.2,20.56Z"/><path class="cls-2" d="M66.24,10.64V13H63.81v-2.4Z"/><path class="cls-1" d="M62.43,64.33H60.05c0-.33-.08-.61-.08-.89,0-1.19,0-2.38,0-3.57A33.94,33.94,0,0,0,59,52a14.22,14.22,0,0,0-3.54-6.64,1.24,1.24,0,0,1-.05-2,1.64,1.64,0,0,1,.78-.29,9.49,9.49,0,0,1,1.19,0H73.52a1.18,1.18,0,0,1,1.3.7,1.39,1.39,0,0,1-.35,1.53c-.41.48-.83,1-1.21,1.46a16.68,16.68,0,0,0-2.84,7.66A56.69,56.69,0,0,0,70,63.41c0,.21,0,.42,0,.63a1.67,1.67,0,0,1-.1.29H67.62c0-.31-.05-.56-.05-.82,0-1.8-.07-3.6,0-5.4a28,28,0,0,1,1.75-9.22c.38-1,.91-1.84,1.37-2.77.08-.15.15-.31.27-.55H59c.16.34.26.6.4.83a20,20,0,0,1,2.46,7,33.66,33.66,0,0,1,.5,5.67c0,1.48.09,3,.14,4.44C62.48,63.75,62.45,64,62.43,64.33Z"/></svg>