<svg id="Layer_1" data-name="Layer 1" xmlns="http://www.w3.org/2000/svg" viewBox="0 0 100 100"><defs><style>.cls-1{fill:#3e86ae;}.cls-2{fill:#55c2b4;}</style></defs><title>040</title><path class="cls-1" d="M10,77.3l2.58-.22V73.76c0-13.81.11-27.62-.06-41.42,0-4.1,3.29-7.35,7-6.9a30.55,30.55,0,0,0,3.33,0V10.05H77v15.4c1.48,0,2.75.09,4,0a6.4,6.4,0,0,1,6.42,6.37c-.07,14.48,0,29,0,43.45v1.79l2.5.26c0,2.59.19,5.16-.05,7.69-.27,2.8-3,4.91-6,4.93-6.07,0-12.15,0-18.23,0H17.78a13.31,13.31,0,0,1-3.29-.22A6,6,0,0,1,10,83.89C10,81.75,10,79.6,10,77.3ZM25.48,22.76V66.67H74.53V22.76ZM20.27,33.21V77.07H79.75V33.19H77.09v36H22.89V33.21c-.61-.05-1-.11-1.45-.11A11.1,11.1,0,0,0,20.27,33.21Zm43.89,46.5c0,.63,0,1.06,0,1.48a3.57,3.57,0,0,1-3.67,3.56q-10.49.06-21,0a3.58,3.58,0,0,1-3.68-3.56c0-.47-.07-.94-.11-1.48H12.42a33.63,33.63,0,0,0,0,4.27,3.93,3.93,0,0,0,3.81,3.59,25.15,25.15,0,0,0,2.75.05H67c5.28,0,10.55,0,15.82,0,2.76,0,4.39-1.2,4.73-3.63a31.84,31.84,0,0,0,0-4.27ZM25.47,20.18H74.54V12.37H25.47ZM17.68,77.09c0-.67.08-1.21.08-1.75,0-4.47,0-9,0-13.43,0-9.32.06-18.65,0-28,0-2.62,1.24-3.58,3.42-3.33a11.24,11.24,0,0,0,1.68-.1V28c-1.62,0-3.15-.12-4.64,0a3.39,3.39,0,0,0-3,2.65,10.26,10.26,0,0,0-.29,2.54q0,20.79,0,41.59v2.29Zm67.31,0c0-.61.1-1.09.1-1.56V39.63c0-2.45,0-4.91,0-7.36,0-1.86-.73-3.45-2.56-4.07A11.82,11.82,0,0,0,77.19,28v2.59c.94,0,1.78,0,2.62,0a2.29,2.29,0,0,1,2.43,2.42c0,.55,0,1.1,0,1.65V77.08ZM61.47,79.75h-23c-.15,2.23.16,2.66,2,2.67q9.47,0,19,0C61.48,82.41,61.8,81.94,61.47,79.75Z"/><path class="cls-2" d="M68.83,45.32l3,1.2v6.83L69,54.52a6.08,6.08,0,0,0,.26.85c1,2.17,1,2.16-.63,3.81-1,1-2,2.11-3.14,3.24L62.4,61l-1.19,3H54.33l-1.14-3-2.71,1.24-5-5.08,1.19-2.6-3-1.24V46.56l3-1.24-1.42-3.2c1.36-1.27,2.78-2.53,4.11-3.88A1.33,1.33,0,0,1,51.27,38a17.35,17.35,0,0,0,1.91.89l1.16-3h6.85l1.2,3,3.22-1.42c1.3,1.41,2.62,2.85,4,4.27a1.13,1.13,0,0,1,.24,1.61A20.5,20.5,0,0,0,68.83,45.32ZM56.33,61.6a15.48,15.48,0,0,1,1.66,0c1.09.12,1.78-.22,2-1.37a2.63,2.63,0,0,1,.17-.52,1.86,1.86,0,0,1,2.82-1.24l2,.91,1.85-2a3.92,3.92,0,0,0,.34-.52c-.16-.36-.33-.75-.51-1.13-1.08-2.2-.84-2.95,1.41-3.65a1.7,1.7,0,0,0,1.43-1.94c0-1.93,0-1.93-1.81-2.58-1.65-.59-2-1.49-1.27-3.07.25-.54.51-1.08.72-1.52l-2.34-2.5-1.35.66c-1.9.93-2.8.62-3.39-1.4a1.78,1.78,0,0,0-2.24-1.52,9.21,9.21,0,0,1-1.48,0c-1,1.06-.54,2.74-2.07,3.3s-2.32-.91-3.29-.95l-2.49,2.15c.13,1.4,1.46,2.21.94,3.63s-2.24,1.07-3.21,2v3.1c1,.93,2.68.46,3.22,2s-.94,2.3-1,3.2l2.23,2.6c1.32-.28,2.16-1.5,3.57-1S55.3,60.56,56.33,61.6Z"/><path class="cls-2" d="M46,38.23H28.23V25.55H46ZM30.55,35.64H43.47V28H30.66c0,.64-.1,1.18-.1,1.71C30.55,31.67,30.55,33.62,30.55,35.64Z"/><path class="cls-2" d="M54,27.78V25.56H71.81v2.22Z"/><path class="cls-2" d="M66.67,30.75V33H48.87V30.75Z"/><path class="cls-2" d="M28.15,43.32V41.08H40.82v2.24Z"/><path class="cls-2" d="M28.14,48.49V46.24H40.83v2.25Z"/><path class="cls-2" d="M40.9,51.38v2.28H28.21V51.38Z"/><path class="cls-2" d="M51.2,25.59v2.2H48.89v-2.2Z"/><path class="cls-2" d="M71.84,30.77V33H69.57V30.77Z"/><path class="cls-1" d="M25.23,82.57v2.07H23V82.57Z"/><path class="cls-1" d="M28.22,82.51h2.21v2.13H28.22Z"/><path class="cls-1" d="M20,82.58v2.08H17.89V82.58Z"/><path class="cls-1" d="M30.47,15.24v2.08H28.21V15.24Z"/><path class="cls-1" d="M35.65,17.39H33.39V15.26h2.26Z"/><path class="cls-1" d="M38.54,15.21h2.31v2.13H38.54Z"/><path class="cls-2" d="M64.17,50a6.4,6.4,0,0,1-6.48,6.34,6.42,6.42,0,1,1,.15-12.84A6.41,6.41,0,0,1,64.17,50Zm-6.41-4a3.89,3.89,0,0,0-.07,7.78,3.89,3.89,0,1,0,.07-7.78Z"/></svg>