<svg id="Layer_1" data-name="Layer 1" xmlns="http://www.w3.org/2000/svg" viewBox="0 0 100 100"><defs><style>.cls-1{fill:#55c2b4;}.cls-2{fill:#1b75bc;}.cls-3{fill:#fff;}</style></defs><title>010</title><path class="cls-1" d="M49.64,76l-7.39-1.12V86.64c0,1.21,0,1.21-1.25,1.21-2.31,0-4.61,0-6.92,0-.52,0-.86.06-1.1.64a2.46,2.46,0,0,1-2.88,1.44,2.59,2.59,0,0,1,0-5A2.51,2.51,0,0,1,33,86.35.9.9,0,0,0,34,87q3.3,0,6.58,0c.63,0,.83-.17.83-.82,0-3.7,0-7.4,0-11.1a.78.78,0,0,0-.59-.87A27.27,27.27,0,0,1,24.8,59a.92.92,0,0,0-.66-.48c-2,0-4,0-6,0V65.3c1.76.92,2.36,1.93,2,3.35a2.6,2.6,0,0,1-2.5,1.84,2.56,2.56,0,0,1-2.48-2.07c-.28-1.38.34-2.32,2.09-3.13,0-1.91,0-3.84,0-5.78S16.92,57.7,19,57.68h5.14L22.61,50.5c-1.34,0-2.81,0-4.28,0-.17,0-.38.28-.47.47a2.6,2.6,0,0,1-3,1.56,2.56,2.56,0,0,1-2-2.48,2.52,2.52,0,0,1,2-2.52,2.56,2.56,0,0,1,3,1.59c.09.2.31.46.47.47,1.42,0,2.84,0,4.19,0l.73-7.38H13.36c-1.22,0-1.21,0-1.21-1.26,0-2.3,0-4.61,0-6.92A1,1,0,0,0,11.5,33a2.49,2.49,0,0,1-1.43-2.89,2.58,2.58,0,0,1,5,0A2.48,2.48,0,0,1,13.65,33,.92.92,0,0,0,13,34c0,2.33,0,4.67,0,7a2.87,2.87,0,0,0,.07.33c.23,0,.48,0,.72,0,3.05,0,6.09,0,9.14,0a.79.79,0,0,0,.92-.62A27,27,0,0,1,41,22.79c.16-.06.31-.14.48-.21V18.1H34.68c-.78,1.69-1.78,2.31-3.2,2a2.56,2.56,0,0,1,.13-5c1.35-.26,2.34.4,3.09,2.1H41c1.29,0,1.29,0,1.29,1.32s0,2.49,0,3.77c1.23-.26,2.39-.55,3.57-.73s2.31-.24,3.61-.36c0-1,0-2,0-2.92,0-.18-.37-.36-.6-.48a2.57,2.57,0,1,1,3.64-2.65,2.51,2.51,0,0,1-1.57,2.67.76.76,0,0,0-.59.86c0,.82,0,1.64,0,2.4l7.39,1.11V20.41q0-3.6,0-7.18c0-1,0-1.08,1.13-1.08H66c.49,0,.81-.05,1-.6a2.49,2.49,0,0,1,2.86-1.49,2.58,2.58,0,0,1,0,5A2.65,2.65,0,0,1,67,13.63c-.14-.26-.48-.59-.73-.6-2.39,0-4.78,0-7.17,0a3.27,3.27,0,0,0-.44.08v1.59c0,2.4,0,4.79,0,7.18a.94.94,0,0,0,.73,1A27.15,27.15,0,0,1,75.7,39.35c.25.69.3,1.67.79,2s1.48.11,2.25.12h3.14V34.71c-1.79-1-2.35-2-2-3.34a2.6,2.6,0,0,1,2.56-1.86,2.57,2.57,0,0,1,2.43,2.13c.25,1.35-.39,2.3-2.1,3.06,0,2.19,0,4.4,0,6.62,0,.79-.23,1-1,1-1.7,0-3.41,0-5.07,0l.71,7.18c1.36,0,2.8,0,4.25,0,.18,0,.4-.39.53-.64a2.54,2.54,0,0,1,2.68-1.41,2.55,2.55,0,0,1,1,4.69,2.48,2.48,0,0,1-3.67-1.06,1,1,0,0,0-1.15-.69c-1.25,0-2.5,0-3.71,0l-1.53,7.39h.93c3.33,0,6.66,0,10,0,.82,0,1.09.26,1.08,1.08-.05,2.39,0,4.78,0,7.17a.92.92,0,0,0,.64,1,2.47,2.47,0,0,1,1.45,2.87,2.58,2.58,0,0,1-5,0A2.49,2.49,0,0,1,86.34,67,.94.94,0,0,0,87,65.94c0-2.11,0-4.21,0-6.32v-.94c-.3,0-.49-.07-.68-.07-3.45,0-6.89,0-10.34,0a.84.84,0,0,0-.87.61,27.29,27.29,0,0,1-16,15.07.93.93,0,0,0-.54.6c0,2.32,0,4.65,0,7h6.78c.79-1.7,1.78-2.31,3.19-2a2.58,2.58,0,0,1,2,2.56,2.55,2.55,0,0,1-2.1,2.45c-1.36.27-2.35-.39-3.08-2.09-2,0-3.93,0-5.91,0s-1.71.27-1.72-1.74,0-4.15,0-6.19L50.5,76c0,1.83,0,3.76,0,5.69,0,.17.33.4.55.5a2.6,2.6,0,0,1,1.46,3,2.58,2.58,0,0,1-5-.29,2.62,2.62,0,0,1,1.56-2.77c.23-.12.55-.39.55-.59C49.65,79.69,49.64,77.82,49.64,76Zm.43-53.89A26.43,26.43,0,1,0,76.45,48.53,26.47,26.47,0,0,0,50.07,22.1Z"/><path class="cls-2" d="M39.1,42.8c-.25-3.85.67-7.23,3.57-9.86a10.43,10.43,0,0,1,7.21-2.84,10.58,10.58,0,0,1,8.41,3.83,11.69,11.69,0,0,1,2.59,8.86l.95.05a2.64,2.64,0,0,1,2.51,2.47,92.07,92.07,0,0,1-.2,9.55c-.62,5.78-5.65,10.83-11.43,11.86a14.29,14.29,0,0,1-16.3-9.57,19,19,0,0,1-.76-4.94c-.13-2,.05-3.93,0-5.89S36.58,42.75,39.1,42.8Zm16.82,0c.3-2.91-.29-5.39-2.91-6.94a5.62,5.62,0,0,0-6.36.22c-2.39,1.6-2.85,4-2.57,6.72Zm-3.76,16c-.27-1.13-.51-2.2-.81-3.26a.88.88,0,0,1,.42-1.13,3,3,0,0,0,1.16-3.54,3.1,3.1,0,0,0-5.88.06,3,3,0,0,0,1.17,3.46.94.94,0,0,1,.42,1.21c-.29,1.06-.54,2.12-.81,3.24A6.37,6.37,0,0,0,52.16,58.78Z"/><path class="cls-3" d="M55.92,42.79H44.08c-.28-2.71.18-5.12,2.57-6.72A5.62,5.62,0,0,1,53,35.85C55.63,37.4,56.22,39.88,55.92,42.79Z"/><path class="cls-3" d="M52.16,58.78a6.37,6.37,0,0,1-4.33,0c.27-1.12.52-2.18.81-3.24a.94.94,0,0,0-.42-1.21,3,3,0,0,1-1.17-3.46,3.1,3.1,0,0,1,5.88-.06,3,3,0,0,1-1.16,3.54.88.88,0,0,0-.42,1.13C51.65,56.58,51.89,57.65,52.16,58.78Z"/></svg>