<svg id="Layer_1" data-name="Layer 1" xmlns="http://www.w3.org/2000/svg" viewBox="0 0 100 100"><defs><style>.cls-1{fill:#55c2b4;}.cls-2{fill:#1b75bc;}</style></defs><title>020</title><path class="cls-1" d="M75.94,10c.42.12.85.22,1.27.35a8.71,8.71,0,0,1,6.1,8.19c-.07,2,0,4,0,6a8.37,8.37,0,0,1-3.11,6.78l-.32.3c0,.06,0,.09.05.1A9.07,9.07,0,0,1,83.31,40c-.08,1.08,0,2.18,0,3.28A1.62,1.62,0,0,1,81.69,45,1.66,1.66,0,0,1,80,43.21c0-1.54,0-3.08,0-4.61,0-3.37-1.85-5.25-5.2-5.25H18.73a8.21,8.21,0,0,0-1.79.13,4.24,4.24,0,0,0-3.49,3.82,66.49,66.49,0,0,0-.06,8.35c.18,2.76,2.15,4.36,4.95,4.36q10.86,0,21.71,0H54.5c.21,0,.42,0,.63,0a1.67,1.67,0,0,1,1.52,1.69A1.6,1.6,0,0,1,55,53.29c-2.4,0-4.8,0-7.19,0q-14.26,0-28.51,0a11.37,11.37,0,0,0-2.41.18,4.22,4.22,0,0,0-3.49,3.83,67.59,67.59,0,0,0,0,8.42c.18,2.68,2.16,4.26,4.86,4.27H49.68a1.74,1.74,0,0,1,1.87,1.09,1.62,1.62,0,0,1-1.61,2.18c-2.29,0-4.58,0-6.87,0-8.07,0-16.15-.09-24.22,0a8.82,8.82,0,0,1-8.71-7,1.58,1.58,0,0,0-.14-.36v-8.6a.75.75,0,0,0,.13-.27,8.56,8.56,0,0,1,2.92-5,3.21,3.21,0,0,1,.59-.31,9.27,9.27,0,0,1-3.13-4.12c-.21-.55-.34-1.13-.51-1.7v-8.6a.75.75,0,0,0,.13-.27,8.56,8.56,0,0,1,2.92-5,2.91,2.91,0,0,1,.59-.31,9.27,9.27,0,0,1-3.13-4.12c-.21-.55-.34-1.13-.51-1.7v-8.6c.05-.14.12-.28.16-.42a8.71,8.71,0,0,1,6.45-6.7l.73-.22ZM46.56,30H75a4.68,4.68,0,0,0,5-4.66c0-2.48,0-5,0-7.42a4.57,4.57,0,0,0-3.6-4.45,10.4,10.4,0,0,0-2-.18H33.85c-5.13,0-10.26,0-15.39,0-2.93,0-4.91,1.65-5.09,4.5a61.52,61.52,0,0,0,0,7.8,4.44,4.44,0,0,0,4,4.35A10.13,10.13,0,0,0,19,30Z"/><path class="cls-2" d="M60.94,90c-.21-.09-.42-.18-.64-.25a5.52,5.52,0,0,1-3.62-5c.07-6.43.1-12.86,0-19.28-.06-2.87,2.59-5.63,5.44-5.41.38,0,.76,0,1.23,0v-3a10.19,10.19,0,0,1,8.47-10.2c4.15-.69,7.35,1.07,9.75,4.38a9,9,0,0,1,1.74,5.56c0,1,0,2.07,0,3.23.44,0,.83,0,1.2,0a5.39,5.39,0,0,1,5.33,3.88,1.48,1.48,0,0,0,.17.33V85.78c-.09.21-.19.41-.27.62a5.48,5.48,0,0,1-2.9,3.15c-.34.17-.7.3-1,.45Zm12.5-26.7H62c-1.65,0-2,.42-2,2.09v4.29c0,5.07,0,10.15,0,15.22,0,1.28.46,1.75,1.72,1.8H84.59a5.82,5.82,0,0,0,.93-.07,1.23,1.23,0,0,0,1.11-1.13,5.74,5.74,0,0,0,.07-.93V65.45a4.91,4.91,0,0,0,0-.86,1.3,1.3,0,0,0-1.27-1.25,5,5,0,0,0-.78,0ZM80,60c0-1.18,0-2.29,0-3.4a6.35,6.35,0,0,0-5.59-6.54,6.43,6.43,0,0,0-7.64,5.29,34,34,0,0,0-.08,4.52s.06.07.12.13Z"/><path class="cls-1" d="M40,41.67a2.85,2.85,0,0,1-2.5,2.48A2.86,2.86,0,0,1,35,41.63a2.82,2.82,0,0,1,2.46-2.42A2.8,2.8,0,0,1,40,41.67Zm-2.5-1.08c-.34.48-.77.83-.73,1.11a1.15,1.15,0,0,0,.81.73c.22,0,.7-.49.7-.76S37.84,41.06,37.48,40.59Z"/><path class="cls-1" d="M37.53,59.21A2.79,2.79,0,0,1,40,61.72a2.88,2.88,0,0,1-2.47,2.43A2.86,2.86,0,0,1,35,61.66,2.81,2.81,0,0,1,37.53,59.21Zm1,2.42c-.48-.34-.8-.74-1.11-.73s-.74.53-.7.75a1.13,1.13,0,0,0,.76.78C37.79,62.45,38.11,62,38.56,61.63Z"/><path class="cls-1" d="M28.3,41.67a2.83,2.83,0,0,1-2.49,2.48,2.88,2.88,0,0,1-2.46-2.52,2.8,2.8,0,0,1,2.46-2.42A2.74,2.74,0,0,1,28.3,41.67Zm-1.39,0c-.48-.33-.81-.73-1.12-.72s-.77.52-.73.73a1.18,1.18,0,0,0,.78.8C26.13,42.46,26.45,42,26.91,41.63Z"/><path class="cls-1" d="M28.29,61.67a2.79,2.79,0,0,1-2.48,2.48,2.9,2.9,0,0,1-2.46-2.45,2.81,2.81,0,0,1,2.47-2.49A2.73,2.73,0,0,1,28.29,61.67Zm-2.46,1.07c.36-.47.77-.77.78-1.09s-.5-.77-.73-.75a1.15,1.15,0,0,0-.82.75C25,61.93,25.48,62.27,25.83,62.74Z"/><path class="cls-1" d="M40,21.65a2.86,2.86,0,0,1-2.48,2.5A2.86,2.86,0,0,1,35,21.65a2.82,2.82,0,0,1,2.44-2.44A2.81,2.81,0,0,1,40,21.65Zm-2.5,1.11c.36-.48.77-.78.78-1.09s-.48-.79-.7-.77a1.14,1.14,0,0,0-.81.74C36.71,21.92,37.13,22.26,37.48,22.76Z"/><path class="cls-1" d="M28.29,21.68a2.79,2.79,0,0,1-2.49,2.47,2.9,2.9,0,0,1-2.45-2.46,2.8,2.8,0,0,1,2.48-2.48A2.74,2.74,0,0,1,28.29,21.68Zm-1.38,0c-.46-.38-.75-.8-1.07-.82s-.78.47-.77.7a1.16,1.16,0,0,0,.72.84C26.07,22.47,26.42,22.05,26.91,21.71Z"/><path class="cls-2" d="M67.52,75.23A5.82,5.82,0,1,1,73.37,81,6.15,6.15,0,0,1,67.52,75.23Zm5.88,2.48a2.24,2.24,0,0,0,2.44-2.57,2.3,2.3,0,0,0-2.58-2.46,2.33,2.33,0,0,0-2.46,2.6A2.29,2.29,0,0,0,73.4,77.71Z"/></svg>