<svg id="Layer_1" data-name="Layer 1" xmlns="http://www.w3.org/2000/svg" viewBox="0 0 100 100"><defs><style>.cls-1{fill:#55c2b4;}.cls-2{fill:#1b75bc;}</style></defs><title>030</title><path class="cls-1" d="M47.36,20.51c.41-.85.78-1.68,1.21-2.48a15.11,15.11,0,0,1,15.3-8A19.28,19.28,0,0,1,76.75,16.6C81,21.49,81.62,27,79.23,32.91c-.13.32-.25.64-.35.89a32.62,32.62,0,0,1,3.75.94,11.86,11.86,0,0,1,7.3,12.16c-.56,4.9-3,8.43-7.66,10.23-.53.2-.5.53-.5.93q0,9.51,0,19a14.9,14.9,0,0,1-.07,2.41,4.93,4.93,0,0,1-5,4.21c-3.83,0-7.67,0-11.51,0H58.67c0,1.18,0,2.3,0,3.41,0,.13.42.34.64.35,2,0,3.92,0,5.88,0A1.18,1.18,0,0,1,66.48,89c-.15.76-.69,1-1.38,1H55.84c-2.12,0-4.24,0-6.36,0a1.24,1.24,0,1,1,.07-2.47c1.8,0,3.6,0,5.4,0h1V83.75h-13v2.9a3.14,3.14,0,0,1-3.39,3.42H22.12c-2.43,0-3.59-1.15-3.59-3.61q0-14.05,0-28.11A1.18,1.18,0,0,0,17.67,57a12.23,12.23,0,0,1-6.22-17.15c1.4-2.51,3.75-3.85,6.38-4.73,1.29-.43,2.63-.73,4-1a.77.77,0,0,0,.7-.79A17,17,0,0,1,37.15,18.66a16.72,16.72,0,0,1,9.69,1.63C47,20.37,47.18,20.43,47.36,20.51Zm-3,27.15c0-.69,0-1.3,0-1.92a1.34,1.34,0,0,1,1.23-1.43c.69-.11,1.38-.22,2.07-.31s.64-.35.3-.79-.76-1-1.13-1.47A1.38,1.38,0,0,1,47,39.61c1.24-1.26,2.5-2.52,3.76-3.76a1.32,1.32,0,0,1,2-.1l1.72,1.33c.43.33.67.27.73-.31s.19-1.44.3-2.15A1.32,1.32,0,0,1,57,33.34c1.82,0,3.65,0,5.47,0a1.26,1.26,0,0,1,1.45,1.19c.13.74.23,1.48.32,2.23.07.54.3.66.75.34.61-.44,1.21-.89,1.83-1.32a1.21,1.21,0,0,1,1.85.15q2,2,3.92,3.94a1.16,1.16,0,0,1,.16,1.78c-.42.58-.89,1.14-1.32,1.73s-.29.79.39.9,1.34.16,2,.29A1.3,1.3,0,0,1,75,46.07c0,.61,0,1.21,0,1.88,4.81-.26,6.81,2.14,6.53,6.73a8.61,8.61,0,0,0,4.77-4.18,10.44,10.44,0,0,0,.94-6.11,8.42,8.42,0,0,0-6.93-7.84,14.6,14.6,0,0,0-3.43-.3c-1.24,0-2.23-1-1.31-2.24a3.84,3.84,0,0,0,.27-.49,13.91,13.91,0,0,0,1.79-9.07,13.35,13.35,0,0,0-6-9.07c-4.09-2.81-8.59-3.94-13.46-2.56-4.69,1.33-7.42,4.7-8.94,9.17-.65,1.9-1,2.07-2.74,1.06a13.8,13.8,0,0,0-9.59-1.86A14.47,14.47,0,0,0,24.67,34.77c-.05,1.18-.33,1.39-1.47,1.65-1.75.4-3.52.76-5.22,1.3a6.85,6.85,0,0,0-4.78,4.11,9.72,9.72,0,0,0,1.41,9.81,8.47,8.47,0,0,0,3.91,2.79v-1c0-3.27,0-6.55,0-9.83a3.08,3.08,0,0,1,3.38-3.42q8.74,0,17.48,0a3.1,3.1,0,0,1,3.38,3.43c0,1.33,0,2.66,0,4Zm30.66,2.78c0,.31,0,.52,0,.73,0,1.35-.32,1.68-1.67,1.85l-1.67.25c-.5.08-.57.35-.35.74.34.58.67,1.16,1,1.73a1.33,1.33,0,0,1-.24,1.87c-1.3,1.27-2.58,2.58-3.87,3.87a1.2,1.2,0,0,1-1.79.16c-.52-.37-1-.78-1.54-1.17-.72-.54-.86-.49-1,.37-.1.58-.15,1.17-.24,1.75A1.4,1.4,0,0,1,62.12,64H57c-1.15,0-1.59-.39-1.76-1.54-.08-.58-.14-1.17-.23-1.75s-.29-.74-.79-.34-1.1.86-1.66,1.27a1.21,1.21,0,0,1-1.85-.13c-1.05-1-2.09-2.09-3.13-3.13-1.67-1.66-1.67-1.66-.23-3.55.31-.41.6-.82,1-1.39l-1.76-.27c-2.11-.34-2.11-.34-2.33-2.46,0-.05,0-.1-.1-.23H38.06a2.5,2.5,0,0,0-2.78,2.72q0,12.72,0,25.46A2.49,2.49,0,0,0,38,81.33H76.27A2.53,2.53,0,0,0,79,78.57c0-2.74,0-5.48,0-8.22,0-5.69,0-11.38,0-17.08a2.54,2.54,0,0,0-2.84-2.82ZM33,64.45H26.08c-1,0-1.52-.39-1.54-1.22S25,62,26.1,61.94H33v-1c0-2.61,0-5.21,0-7.81A5,5,0,0,1,38.17,48h2.21c0-1.37,0-2.63,0-3.89,0-1-.07-1.11-1.08-1.11H22.15C21.1,43,21,43,21,44.12v25q0,8.67,0,17.32c0,.94.12,1.06,1.07,1.06.62,0,1.23,0,1.85,0H39.17c.66,0,1.15-.17,1.19-.87,0-.93,0-1.87,0-2.93-1,0-1.88,0-2.78,0a4.88,4.88,0,0,1-4.49-4.23c-.07-.58-.25-.76-.84-.75-2.09,0-4.19,0-6.28,0-1,0-1.43-.4-1.44-1.23S25,76.22,26,76.21h7V71.7H26.12c-1.09,0-1.59-.4-1.58-1.26s.48-1.24,1.6-1.25h6c.29,0,.57,0,.89,0ZM52.05,58.9a4,4,0,0,0,.48-.33c1.16-1.11,2.34-1.62,3.9-.61a2,2,0,0,1,1.16,1.47c.1.7.21,1.41.32,2.09h3.7c.46-1.33,0-2.87,1.9-3.69s2.75.5,3.88,1.13l2.77-2.77a3.58,3.58,0,0,0-.27-.38c-1.09-1.16-1.66-2.32-.6-3.9.41-.61.74-1,1.46-1.15s1.31-.21,2-.32c0-1,0-1.89,0-2.8,0-.63-.12-1-.8-.94a2.86,2.86,0,0,1-3.12-2.29,1.83,1.83,0,0,1,.2-1.8c.41-.53.78-1.07,1.15-1.58l-2.66-2.6a2.29,2.29,0,0,0-.42.29c-1.16,1.14-2.4,1.67-3.88.55,0,0-.05,0-.07,0A1.33,1.33,0,0,1,62.11,38c-.11-.71-.23-1.42-.36-2.17-1.06,0-2,0-3,0-.54,0-.79.16-.79.71,0,1.62-.59,2.81-2.34,3.25a1.82,1.82,0,0,1-1.66-.13l-1.76-1.2-2.65,2.66a14.19,14.19,0,0,1,1.16,1.63,2,2,0,0,1,.25,1.34c-.45,1.51-1.21,2.75-3.08,2.63a.86.86,0,0,0-.48.07c-.17.1-.42.28-.42.44,0,1.06,0,2.13,0,3.19,1.39.48,2.94.08,3.75,2s-.67,2.7-1.2,3.9Z"/><path class="cls-2" d="M63.67,15A12,12,0,0,1,75.16,26.75c0,1.16-1,1.86-1.84,1.27a1.92,1.92,0,0,1-.66-1.33,9.6,9.6,0,0,0-9.4-9.26c-.95,0-1.38-.47-1.34-1.31S62.41,15,63.34,15Z"/><path class="cls-2" d="M38.52,23.59a5.12,5.12,0,0,1,1,0,1.07,1.07,0,0,1,1,1.21,1.14,1.14,0,0,1-1.14,1.13,18.32,18.32,0,0,0-2.77.41A9.47,9.47,0,0,0,29.78,35a1.4,1.4,0,0,1-.73,1.33,1.2,1.2,0,0,1-1.75-1.25,11.42,11.42,0,0,1,6.61-10.2,29.75,29.75,0,0,1,4.54-1.48Z"/><path class="cls-2" d="M57.28,79.45c-5.37,0-10.75,0-16.12,0-.7,0-1.29-.15-1.46-.94S40,77,41,77c2,0,3.92,0,5.88,0H72.68c.3,0,.59,0,.89,0,.86.05,1.34.53,1.31,1.31a1.16,1.16,0,0,1-1.33,1.17H57.28Z"/><path class="cls-2" d="M27.17,46.71c.57,0,1.13,0,1.69,0A1.18,1.18,0,0,1,30,48a1.13,1.13,0,0,1-1.16,1.18q-1.65,0-3.3,0a1.23,1.23,0,0,1,.08-2.46c.51,0,1,0,1.52,0Z"/><path class="cls-2" d="M66.16,48.54a6.4,6.4,0,0,1-6.46,6.4,6.2,6.2,0,0,1-6.3-6.08,6.35,6.35,0,0,1,6.4-6.52A6.25,6.25,0,0,1,66.16,48.54Zm-6.38,4a3.8,3.8,0,0,0,3.88-3.77,3.93,3.93,0,0,0-3.91-4,3.8,3.8,0,0,0-3.88,3.78A3.93,3.93,0,0,0,59.78,52.56Z"/></svg>