<svg id="Layer_1" data-name="Layer 1" xmlns="http://www.w3.org/2000/svg" viewBox="0 0 100 100"><defs><style>.cls-1{fill:#55c2b4;}.cls-2{fill:#1b75bc;}</style></defs><title>040</title><path class="cls-1" d="M65.22,89.47c-2.61-1.74-2.94-4.35-2.77-7.17a2.06,2.06,0,0,1,1.28-1.75c2.3-1.3,4.59-2.63,7-4L70,75.08a13.15,13.15,0,0,1-.94-8.79,4.87,4.87,0,0,1,3.56-3.8,12.32,12.32,0,0,1,6.81-.08c2.62.7,3.92,2.55,4.14,5.69a13.41,13.41,0,0,1-1.43,7.36c-.14.26-.24.53-.43,1,.49.34.93.69,1.42,1,1.74,1,3.5,2,5.22,3A14.38,14.38,0,0,1,90,81.68v7.79ZM76.09,87v0c3.12,0,6.24,0,9.36,0a1.86,1.86,0,0,0,2-1.64c.39-1.36.13-2.68-.69-3.16-2-1.16-4-2.25-6-3.42A1.62,1.62,0,0,0,79,78.71a5.61,5.61,0,0,1-5.42.08,1.84,1.84,0,0,0-2,.1c-1.68,1-3.38,1.92-5.07,2.88S64.59,83.39,65,85.21c.34,1.36.79,1.74,2.22,1.75C70.2,87,73.14,87,76.09,87Zm5.08-17.65c0-.47,0-.94,0-1.41-.16-2.08-.88-3-3-3.27a18.6,18.6,0,0,0-4.53.12,2.43,2.43,0,0,0-2.16,2,10,10,0,0,0,1.42,8.25c2,2.72,4.91,2.6,6.81-.22A8.76,8.76,0,0,0,81.17,69.31Z"/><path class="cls-1" d="M10,81.68A21.17,21.17,0,0,1,12,80.21C14,79,16.13,77.8,18.32,76.55l-.7-1.47a13.09,13.09,0,0,1-.91-9,4.72,4.72,0,0,1,3.35-3.57,12.07,12.07,0,0,1,7.47,0,4.74,4.74,0,0,1,3.31,3.61,13.2,13.2,0,0,1-1.58,10.16,11.23,11.23,0,0,0,1.09.8c1.94,1.13,3.87,2.26,5.84,3.33a2.18,2.18,0,0,1,1.36,2.25c-.07.93-.1,1.88-.22,2.81a4.94,4.94,0,0,1-2.91,3.94H10ZM23.81,87v0c3.06,0,6.12,0,9.18,0a1.91,1.91,0,0,0,2.06-1.75c.37-1.5.1-2.58-.82-3.12-1.94-1.12-3.91-2.18-5.83-3.33a1.77,1.77,0,0,0-1.95,0,5.54,5.54,0,0,1-5.26,0,2,2,0,0,0-2.14.13c-1.78,1-3.58,2-5.36,3.07-1.21.7-1.49,1.65-1,3.32.38,1.32.79,1.62,2.3,1.63Zm5-17.64c0-.47,0-.94,0-1.41-.15-2-.91-3-3-3.29a20.23,20.23,0,0,0-4.53.11,2.49,2.49,0,0,0-2.22,2.2c-.52,2.93-.31,5.76,1.55,8.23s4.64,2.44,6.49,0A8.74,8.74,0,0,0,28.78,69.33Z"/><path class="cls-2" d="M51.06,10.53c.39.13.77.28,1.16.38a5.19,5.19,0,0,1,4.15,4.89c.32,3.18.07,6.25-1.84,9.15.6.39,1.12.75,1.66,1.06,1.83,1.07,3.66,2.15,5.52,3.18A1.83,1.83,0,0,1,62.79,31c0,1,0,2-.08,3a4.13,4.13,0,0,1-4.2,4c-6.31.08-12.62.08-18.94,0a4.18,4.18,0,0,1-4-3.75,4.52,4.52,0,0,1-.06-.53c-.33-3.76-.33-3.76,3-5.66l4.75-2.73a2.73,2.73,0,0,0,.35-.32c-.13-.32-.26-.69-.44-1a13.46,13.46,0,0,1-1.21-8.77A5.1,5.1,0,0,1,46,10.9c.39-.1.77-.25,1.16-.37ZM53.12,27a20.17,20.17,0,0,1-4,.83,20.66,20.66,0,0,1-3.95-.78c-1.73,1-3.67,2.11-5.61,3.21-1.67.95-2,1.71-1.56,3.59a1.85,1.85,0,0,0,2.1,1.69q9.09,0,18.2,0c1.3,0,1.7-.43,2.08-1.93s.24-2.33-.79-2.94C57.39,29.45,55.13,28.19,53.12,27ZM49.18,12.9a11.45,11.45,0,0,0-2.91.54,3.32,3.32,0,0,0-1.78,1.75,9.79,9.79,0,0,0,1.45,8.56,3.79,3.79,0,0,0,6.41.06A9.5,9.5,0,0,0,54.22,18C54.28,14.13,53.13,13,49.18,12.9Z"/><path class="cls-1" d="M69.36,52.63l2-1.61,2.53,2.45v-29H61.74V21.79c4.86-.05,9.77,0,14.81,0V53.62l2.9-2.74,1.66,1.93C79.56,54.37,78,56,76.42,57.54a1.33,1.33,0,0,1-2,.08C72.74,56,71.13,54.4,69.36,52.63Z"/><path class="cls-1" d="M24.32,24.31V53.46L27,50.89l1.86,1.76c-1.72,1.73-3.31,3.37-4.94,5a1.33,1.33,0,0,1-2-.08c-1.6-1.56-3.18-3.12-4.93-4.84l2.2-1.51,2.41,2.35V21.91h15v2.4Z"/><path class="cls-2" d="M49.09,47v2.34a10.12,10.12,0,0,0-8.4,4.78,9.95,9.95,0,0,0,7.82,15.14,9.7,9.7,0,0,0,7.43-2.69,10.72,10.72,0,0,0,3.23-7.14h2.28c.85,5.68-4.92,12-11.3,12.43A12.61,12.61,0,0,1,36.57,59.17C36.53,52.44,42.57,46.47,49.09,47Z"/><path class="cls-2" d="M58.18,50.92,60,52.52c-.37.45-.6.77-.88,1q-4.23,4.26-8.49,8.51c-1.3,1.3-1.75,1.27-3.08,0s-2.94-2.71-4.74-4.38l2.49-1.52,3.81,3.66Z"/></svg>