<svg id="Layer_1" data-name="Layer 1" xmlns="http://www.w3.org/2000/svg" viewBox="0 0 100 100"><defs><style>.cls-1{fill:#1b75bc;}.cls-2{fill:#55c2b4;}</style></defs><title>050</title><path class="cls-1" d="M66.52,8.71A5.84,5.84,0,0,1,70,11.78q9.65,16.42,19.35,32.83c1.68,2.85.1,5.6-3.22,5.61-5.83,0-11.66,0-17.49,0a3.89,3.89,0,0,0-2.64.92c-2.85,2.32-5.75,4.57-8.62,6.86a1.63,1.63,0,0,1-1.84.41,1.77,1.77,0,0,1-1-1.8c0-1.78,0-3.56,0-5.34v-1c-.4,0-.71-.05-1-.05-2.7,0-5.4,0-8.1,0-2.1,0-3.55-1.13-3.69-3A4.09,4.09,0,0,1,42.21,45Q52.26,28,62.39,11a5.22,5.22,0,0,1,3-2.3ZM57.77,53.46l.9-.67c2.18-1.72,4.38-3.43,6.53-5.18a3.27,3.27,0,0,1,2.22-.77q9.19,0,18.38,0c.34,0,.67,0,1.14-.08-.19-.38-.31-.64-.46-.89q-9.84-16.5-19.7-33c-.66-1.11-1-1.12-1.68,0Q55.19,29.5,45.26,46.15c-.12.21-.22.45-.38.78.4,0,.66,0,.93,0H57.39a1.62,1.62,0,0,1,1.8,1.17,1.65,1.65,0,0,1-1,1.91c-.18.11-.41.32-.42.5C57.75,51.44,57.77,52.32,57.77,53.46Z"/><path class="cls-2" d="M24.08,27V23.84a6.88,6.88,0,0,0-.74-.06c-3.11,0-6.22,0-9.32,0-.7,0-.85.25-.85.89q0,31.24,0,62.47V88H66.68a4.55,4.55,0,0,0,4.72-4.77V59.72c0-2.16,0-4.32,0-6.48,0-1.1.59-1.78,1.54-1.79a1.6,1.6,0,0,1,1.64,1.8c0,10.1,0,20.2,0,30.3,0,4.41-3.61,7.73-8.2,7.74h-54C10.48,91.29,10,90.82,10,89V22.81c0-1.71.51-2.21,2.23-2.21h12c0-.87,0-1.67,0-2.47a1.57,1.57,0,0,1,1.8-1.77c2.13,0,4.27,0,6.4,0a1.56,1.56,0,0,0,1-.52,9.28,9.28,0,0,1,15.07,0,1.23,1.23,0,0,0,1.15.55c1.62,0,3.24,0,4.86,0a1.51,1.51,0,0,1,1.72,1.51,1.56,1.56,0,0,1-1.68,1.66c-2.16,0-4.33,0-6.49,0-.92,0-1.37-.57-1.8-1.28a6.11,6.11,0,0,0-9-1.77,7,7,0,0,0-1.61,1.88,2.17,2.17,0,0,1-2,1.18c-2.05,0-4.1,0-6.21,0V27.2H47.41c1.24,0,1.92.74,1.76,1.86-.12.83-.78,1.31-1.85,1.32H20.85v49c.27,0,.53,0,.8,0H62.24c1,0,1,0,1-1.06q0-10.77,0-21.55c0-1.33.94-2.08,2.09-1.71.72.23,1.08.84,1.09,1.87V80.3c0,1.7-.53,2.24-2.22,2.24H19.61c-1.59,0-2.14-.55-2.14-2.15V29.26c0-1.65.54-2.19,2.18-2.19l4.21,0A.74.74,0,0,0,24.08,27Z"/><path class="cls-2" d="M47.81,63.63H39c-1.18,0-1.92-.64-1.9-1.61A1.65,1.65,0,0,1,39,60.45q8.84,0,17.65,0a1.6,1.6,0,0,1,1.8,1.63c0,1-.67,1.55-1.77,1.55Z"/><path class="cls-2" d="M47.81,67.57h8.74c1.15,0,1.85.59,1.86,1.56a1.58,1.58,0,0,1-1.8,1.62q-8.86,0-17.72,0a1.59,1.59,0,0,1-1.6-2.33,1.67,1.67,0,0,1,1.62-.86c3,0,5.93,0,8.9,0Z"/><path class="cls-2" d="M27.93,69l3.71-4.58c.21-.25.4-.51.62-.75a1.77,1.77,0,0,1,2.33-.31,1.67,1.67,0,0,1,.16,2.33c-.64.83-1.31,1.64-2,2.46l-3.66,4.53a1.54,1.54,0,0,1-2.64-.1c-.65-.93-1.26-1.88-1.87-2.83a1.59,1.59,0,1,1,2.63-1.8C27.47,68.21,27.65,68.53,27.93,69Z"/><path class="cls-2" d="M28,58.64l3.31-4.09a14.92,14.92,0,0,1,1.14-1.36,1.64,1.64,0,0,1,2.21-.06,1.67,1.67,0,0,1,.15,2.21Q31.91,58.91,29,62.45a1.52,1.52,0,0,1-2.45-.07c-.72-1-1.39-2.05-2-3.1A1.58,1.58,0,0,1,25,57.19a1.52,1.52,0,0,1,2.1.28A13.62,13.62,0,0,1,28,58.64Z"/><path class="cls-2" d="M27.94,48.31c.25-.3.46-.53.66-.78q1.75-2.18,3.52-4.34a1.68,1.68,0,0,1,2.42-.42,1.81,1.81,0,0,1,.09,2.47C32.75,47.46,31,49.76,29.12,52a1.57,1.57,0,0,1-2.65-.1c-.63-.93-1.26-1.88-1.86-2.84a1.59,1.59,0,0,1,2.59-1.83C27.45,47.57,27.65,47.91,27.94,48.31Z"/><path class="cls-1" d="M66,24.1c1.16,0,2.32,0,3.48,0a1.5,1.5,0,0,1,1.59,2.13q-1.42,4.68-2.88,9.34c-.36,1.15-.86,1.46-2.28,1.45s-1.79-.26-2.17-1.45q-1.44-4.5-2.85-9c-.5-1.59.14-2.47,1.79-2.48C63.76,24.09,64.87,24.1,66,24.1Zm1.29,3.23H64.54l1.22,4H66Z"/><path class="cls-1" d="M66,38.05a3.53,3.53,0,0,1,3.37,3.39,3.38,3.38,0,0,1-3.47,3.23,3.44,3.44,0,0,1-3.39-3.34A3.36,3.36,0,0,1,66,38.05Z"/></svg>