<svg id="Layer_1" data-name="Layer 1" xmlns="http://www.w3.org/2000/svg" viewBox="0 0 100 100"><defs><style>.cls-1{fill:#1b75bc;}.cls-2{fill:#55c2b4;}</style></defs><title>Artboard 70</title><path class="cls-1" d="M83.43,8c.43.22.86.46,1.3.65A7.66,7.66,0,0,1,89.62,16q.16,12.75,0,25.5a7.64,7.64,0,0,1-6.19,7.57c-.67-1.76-.56-2.25.86-3.16a4.92,4.92,0,0,0,2.39-4.29c0-8.57,0-17.13,0-25.69,0-2.87-2.12-4.94-5.1-5.29a16,16,0,0,0-1.83,0q-30.09,0-60.18,0a11,11,0,0,0-3.24.42,4.91,4.91,0,0,0-3.68,4.92c-.05,8.44-.07,16.88,0,25.32,0,3.17,2.24,5.2,5.41,5.25,1.52,0,3.06.07,4.58,0a4,4,0,0,1,3.25,1.32c1.49,1.53,3.12,2.93,4.71,4.36a8.74,8.74,0,0,0,1.21.72l.74-6.21H58.31l.14,2.68c-7.9.27-15.62,0-23.58.19L34,58.77c-1.44-1.19-2.56-2.09-3.64-3-2-1.72-3.89-3.53-5.93-5.17a5.27,5.27,0,0,0-2.57-1.06c-1.45-.17-2.93,0-4.4-.06A7.65,7.65,0,0,1,10,41.89c0-8.75,0-17.49,0-26.24,0-3.45,1.9-5.68,4.89-7.12.44-.21.9-.37,1.35-.55Z"/><path class="cls-2" d="M47.1,92c-.86-2.62-1.74-5.22-2.56-7.85a2.66,2.66,0,0,0-2.87-2q-7.79,0-15.59,0a2.67,2.67,0,0,0-2.86,2.06c-.81,2.62-1.69,5.22-2.54,7.83H17.37q1.45-4,2.89-8.1c1.3-3.65,2.35-4.4,6.17-4.4H42c3,0,4.38,1,5.31,3.78S49.13,89.11,50,92Z"/><path class="cls-2" d="M40.13,92c-.32-1-.66-2.08-.94-3.13-.22-.83-.08-1.64.85-1.91a1.44,1.44,0,0,1,1.85,1c.44,1.31.78,2.66,1.17,4Z"/><path class="cls-2" d="M24.35,92c.35-1.35.67-2.71,1-4a1.3,1.3,0,0,1,1.69-1c.93.22,1.05,1,.87,1.74-.26,1.12-.69,2.21-1.05,3.31Z"/><path class="cls-1" d="M87,75.67l2.86.39L90,78.62H48.42V75.86c1.82,0,3.52-.06,5.2,0a2.1,2.1,0,0,0,2.45-1.65c.66-2.16,1.46-4.28,2.22-6.41,1-2.71,2.32-3.69,5.2-3.7,5.19,0,10.39,0,15.59,0a4.83,4.83,0,0,1,5.11,3.6C85.14,70.34,86.05,73,87,75.67Zm-25,0c.36-1.1.65-2.16,1.06-3.16.3-.76.79-1.48,1.78-1.15a1.46,1.46,0,0,1,.91,1.94c-.16.7-.35,1.39-.64,2.5,4.12,0,7.94.08,12,0-.23-1-.41-1.62-.52-2.27s-.21-1.67.8-2,1.6.31,1.93,1.21.71,1.92,1,2.83h3.55c-.83-2.36-1.53-4.43-2.27-6.48-.64-1.79-1-2.06-3-2.07q-6.33,0-12.65,0c-4.49,0-4-.44-5.69,4-.55,1.45-1,2.94-1.53,4.66Z"/><path class="cls-2" d="M33.73,77.36c-4.94.37-8.69-4.14-8.67-8.47a8.8,8.8,0,0,1,8.59-8.71,8.5,8.5,0,0,1,8.7,8.7A8.28,8.28,0,0,1,33.73,77.36Zm-.17-3a5.41,5.41,0,0,0,5.76-5.52,6,6,0,0,0-5.7-5.82,6,6,0,0,0-5.87,5.82A5.49,5.49,0,0,0,33.56,74.41Z"/><path class="cls-1" d="M62.85,54A7.78,7.78,0,0,1,71,45.76a8.25,8.25,0,0,1,8.37,8.18,8.43,8.43,0,0,1-8.44,8.37A8,8,0,0,1,62.85,54ZM71,59.36a5.25,5.25,0,0,0,5.48-5.55,5.47,5.47,0,0,0-5.33-5.43A5.77,5.77,0,0,0,65.47,54,5.35,5.35,0,0,0,71,59.36Z"/><path class="cls-2" d="M53.33,29.47a3.24,3.24,0,0,1-6.47-.11,3.68,3.68,0,0,1,3.36-3.27A3.27,3.27,0,0,1,53.33,29.47Z"/><path class="cls-2" d="M62.58,32.56a3.33,3.33,0,0,1-3.29-3,3.93,3.93,0,0,1,3.16-3.5,3.43,3.43,0,0,1,3.35,3.2A3.38,3.38,0,0,1,62.58,32.56Z"/><path class="cls-2" d="M40.86,29.52a3.05,3.05,0,0,1-3.2,3.05,3.12,3.12,0,0,1-3.15-3.14,3.5,3.5,0,0,1,3.27-3.34A3.27,3.27,0,0,1,40.86,29.52Z"/></svg>