<svg id="Layer_1" data-name="Layer 1" xmlns="http://www.w3.org/2000/svg" viewBox="0 0 100 100"><defs><style>.cls-1{fill:#1b75bc;}.cls-2{fill:#55c2b4;}</style></defs><title>03 Application0</title><path class="cls-1" d="M18.5,74.5V37.28a5.83,5.83,0,0,1,6-5.94H45.33V16.6c0-1.23.36-1.59,1.61-1.59H71.73a2,2,0,0,1,1.55.62q3.8,3.84,7.63,7.63a2,2,0,0,1,.6,1.49q0,24.39,0,48.78v1h2c1.06,0,1.46.41,1.47,1.45v3A5.83,5.83,0,0,1,79,85H43.37q-11.13,0-22.24,0A5.83,5.83,0,0,1,15,78.86v-3c0-.94.44-1.36,1.4-1.36ZM47.72,17.37V61.62H79.13V25.51h-.74c-2,0-4,0-6,0A1.19,1.19,0,0,1,71,24.15c0-1.19,0-2.38,0-3.57V17.37ZM73.3,64H46.93c-1.24,0-1.6-.35-1.6-1.6V39.57H26.71V69.8H73.3ZM20.84,74.5h.92c6.13,0,12.25,0,18.38,0a2.19,2.19,0,0,1,1.74.71,1.52,1.52,0,0,0,1,.45q7.11,0,14.21,0a1.6,1.6,0,0,0,1-.46,2.25,2.25,0,0,1,1.75-.7c6.12,0,12.25,0,18.37,0h.88V64.06H75.67c0,2.26,0,4.47,0,6.68,0,1-.41,1.43-1.41,1.43H25.77c-1,0-1.43-.42-1.43-1.47q0-15.93,0-31.86c0-1.34.34-1.67,1.69-1.67H45.3v-3.5H24.65a3.51,3.51,0,0,0-3.81,3.82v37Zm61.81,2.37-.37,0c-7.34,0-14.68,0-22,0a1.14,1.14,0,0,0-.8.37,2.37,2.37,0,0,1-2,.8c-5.08,0-10.15,0-15.23,0a1.72,1.72,0,0,1-1.53-.65,1.42,1.42,0,0,0-1.26-.54q-10.68,0-21.36,0l-.75,0c0,.68,0,1.31,0,1.94a3.53,3.53,0,0,0,3.9,3.86H79a3.49,3.49,0,0,0,3.67-3.13C82.71,78.68,82.65,77.8,82.65,76.87ZM73.38,19.23v3.88h3.89Z"/><path class="cls-2" d="M26.71,17.38H29v2.25H26.71Z"/><path class="cls-2" d="M33.61,19.65H31.38V17.38h2.23Z"/><path class="cls-2" d="M36,19.62V17.38H38.3v2.24Z"/><path class="cls-2" d="M40.71,17.38H43v2.25H40.71Z"/><path class="cls-2" d="M26.7,24.3V22.06H29V24.3Z"/><path class="cls-2" d="M29,29H26.73V26.73H29Z"/><path class="cls-2" d="M50,29c0-1.12,0-2.24,0-3.35a1.17,1.17,0,0,1,1.3-1.32q3.35,0,6.7,0a1.18,1.18,0,0,1,1.33,1.35q0,3.31,0,6.63A1.18,1.18,0,0,1,58,33.67H51.37c-.94,0-1.36-.43-1.37-1.39S50,30.1,50,29Zm7,2.3V26.72H52.39v4.59Z"/><path class="cls-2" d="M50,40.6c0-1.09,0-2.18,0-3.28A1.17,1.17,0,0,1,51.3,36h6.77a1.16,1.16,0,0,1,1.26,1.27q0,3.39,0,6.78a1.14,1.14,0,0,1-1.26,1.27q-3.37,0-6.77,0A1.16,1.16,0,0,1,50,44C50,42.88,50,41.74,50,40.6Zm2.39-2.23V43H57V38.37Z"/><path class="cls-2" d="M54.64,47.67c1.11,0,2.23,0,3.35,0A1.18,1.18,0,0,1,59.33,49q0,3.36,0,6.7A1.16,1.16,0,0,1,58,57h-6.7A1.17,1.17,0,0,1,50,55.7c0-2.23,0-4.47,0-6.7,0-.9.44-1.32,1.36-1.33ZM52.37,50v4.59H57V50Z"/><path class="cls-2" d="M67.79,25.83l1.57,1.74a3.55,3.55,0,0,1-.28.33q-2,2-4,4c-.79.78-1.32.78-2.11,0s-1.4-1.34-2.13-2l1.83-1.74L64,29.76Z"/><path class="cls-2" d="M63.94,41.54l3.88-4,1.56,1.69c-1.51,1.52-3,3.1-4.63,4.65a1.08,1.08,0,0,1-1.58-.05c-.78-.73-1.53-1.48-2.33-2.26L62.7,39.9Z"/><path class="cls-2" d="M67.73,49.21l1.71,1.61c-1.58,1.6-3.12,3.18-4.69,4.73a1,1,0,0,1-1.52,0c-.81-.73-1.57-1.52-2.38-2.31l1.85-1.65,1.22,1.54Z"/><path class="cls-2" d="M29,50V47.71H43V50Z"/><path class="cls-2" d="M43,61.72V64H33.7V61.72Z"/><path class="cls-2" d="M34.87,54.62V52.38h8.07v2.24Z"/><path class="cls-2" d="M29,59.29V57h6.91v2.25Z"/><path class="cls-2" d="M29,45.29V43h5.75v2.25Z"/><path class="cls-2" d="M43,43.06V45.3H37.23V43.06Z"/><path class="cls-2" d="M38.36,59.3V57.05H43V59.3Z"/><path class="cls-2" d="M29,54.62V52.38h3.44v2.24Z"/><path class="cls-2" d="M29,64V61.72h2.26V64Z"/></svg>