<svg id="Layer_1" data-name="Layer 1" xmlns="http://www.w3.org/2000/svg" viewBox="0 0 100 100"><defs><style>.cls-1{fill:#55c2b4;}.cls-2{fill:#1b75bc;}</style></defs><title>01 Business Service0</title><path class="cls-1" d="M75.67,71.27c1.51.63,3,1.31,4.55,1.89a1.82,1.82,0,0,1,1.3,2q-.09,4,0,8c0,1.29-.45,1.86-1.79,1.85C75.85,85,72,85,68.07,85a3.41,3.41,0,0,1-1.73-.56c-1.57-1.05-3.15-2.11-4.62-3.3a23.8,23.8,0,0,0-7.45-3.85,2.89,2.89,0,0,0-1.79.06q-5.35,1.86-10.66,3.87a2.44,2.44,0,0,1-2.44-.28C33.22,76.84,27,72.84,20.83,68.82c-2.17-1.41-2.92-2.91-2.41-4.79s1.9-2.89,4.66-3V50.09c-.5-.09-1-.16-1.52-.27a8.08,8.08,0,0,1-6.53-8c0-5.19,0-10.39,0-15.59,0-1.38.5-1.9,1.89-1.89,6.22,0,12.43,0,18.65,0H37c.14-1.07.18-2.08.4-3.05A8,8,0,0,1,45.2,15c3,0,6,0,9,0,5.09,0,8.46,3.33,8.6,8.45,0,.24,0,.47,0,.88H83c1.81,0,2,.22,2,2,0,4.86,0,9.72,0,14.57,0,5.33-2.72,8.44-8.1,9.13,0,.4-.06.82-.06,1.25,0,4.71,0,9.42,0,14.13C76.83,68.65,76.83,68.65,75.67,71.27ZM17.35,26.73c0,5.06,0,10,0,15a5.76,5.76,0,0,0,6,6c4.23,0,8.45,0,12.68,0,.37,0,.75-.06,1.18-.1-.14-1.34.08-2.33,1.71-2.26a4.37,4.37,0,0,0,1.39-.43,5,5,0,0,0-.68-1.43A1.47,1.47,0,0,1,39.68,41c.86-.79,1.68-1.61,2.48-2.47a1.47,1.47,0,0,1,2.46-.07,5,5,0,0,0,1.43.68,6.22,6.22,0,0,0,.43-1.54c0-1.11.51-1.61,1.61-1.58S50,36,51,36c2.29,0,2.27,0,2.54,2.23a1.23,1.23,0,0,0,.53.87c.19.12.64,0,.88-.2,1.9-1.4,1.89-1.41,3.58.29l1.35,1.33c1.56,1.57,1.55,1.56.16,3.28a1.24,1.24,0,0,0-.29,1,1,1,0,0,0,.86.51c1.71-.19,2.49.5,2.23,2.32,5,0,9.9.14,14.78-.06,2.94-.12,5-2.75,5-5.81,0-2.77,0-5.54,0-8.3V26.73Zm8.17,23.33c0,3.9,0,7.64,0,11.37a1.42,1.42,0,0,0,.51,1.06c2.65,1.5,5.34,2.93,8,4.4A4.42,4.42,0,0,1,38,65.13c2.59-.07,5.32.08,7.74-.66a28.59,28.59,0,0,1,10.82-1.65,14.37,14.37,0,0,1,1.74,0,7.87,7.87,0,0,1,2.67.84,52.41,52.41,0,0,0,11,6.1c1.26.46,1.83.1,2.2-1A5.77,5.77,0,0,0,74.48,67c0-4.95,0-9.9,0-14.86V50.08H62.87c0,1.25,0,2.37-1.71,2.28a4.76,4.76,0,0,0-1.41.4,4.54,4.54,0,0,0,.63,1.43c.87.88.92,1.62,0,2.47s-1.69,1.61-2.47,2.47a1.51,1.51,0,0,1-2.57,0A4.44,4.44,0,0,0,54,58.53a3.73,3.73,0,0,0-.49,1.36c0,1.32-.52,1.85-1.83,1.79a34.05,34.05,0,0,0-3.5,0c-1.26.06-1.75-.5-1.73-1.74A4.61,4.61,0,0,0,46,58.55a5,5,0,0,0-1.43.69c-.83.81-1.55.88-2.36,0-.63-.67-1.3-1.3-2-2-1.67-1.67-1.66-1.66-.27-3.48a1.31,1.31,0,0,0,.22-1,.91.91,0,0,0-.78-.43c-1.77.23-2.53-.56-2.34-2.31ZM64.68,68.93c-2-1.3-3.81-3.06-5.89-3.6a14.14,14.14,0,0,0-7.5,0c-4.58,1.47-9.11,2.56-13.95,2.2-.4,0-.86.69-1.3,1.06a7.76,7.76,0,0,0,1.35,1.17,3.11,3.11,0,0,0,1.3,0h5.4v2.33c-2.45,0-4.83.11-7.19-.07a3.32,3.32,0,0,1-2.4-1.34A6.91,6.91,0,0,0,31.23,68c-2.51-1.37-5-2.72-7.53-4.12-1-.57-2-1-2.8.23s0,2,1,2.59c6,3.88,11.95,7.8,18,11.63a2.8,2.8,0,0,0,2.11.19c3.49-1.18,6.92-2.52,10.41-3.71a3.83,3.83,0,0,1,2.2,0c1.47.46,2.87,1.11,4.34,1.69C60.84,74,62.68,71.59,64.68,68.93ZM61,77.72a42.45,42.45,0,0,1,3.46,2.54A9.36,9.36,0,0,0,72,82.7c2.34-.21,4.71,0,7.14,0,0-2.19-.07-4.17,0-6.15A1.52,1.52,0,0,0,78,74.74c-1-.32-2-.79-3-1.2l-8.28-3.43ZM48.9,59.25h2.37C50.34,56.57,52.6,56.53,54,56c.73-.26,1.75.3,2.65.49l0,.52,1.58-1.66c-1.5-1-1.34-2-.8-3.51A2.48,2.48,0,0,1,60.39,50V48.14c-1-.54-2.15-.77-2.41-1.38-.62-1.44-2.24-3.12,0-4.36L56.86,41c-1.08.32-2,1-2.67.73-1.48-.55-3.75-.65-3-3.3H48.75c.77,2.41-1.2,2.45-2.48,3.2s-2-.24-2.81-.91l-1.67,1.45.51,0c.22.85.82,1.85.56,2.53-.54,1.43-.62,3.68-3.26,2.88v2.46c2.5-.8,2.5,1.28,3.25,2.59s-.35,1.92-1,2.78l1.61,1.71c1.21-2.26,2.61-1,4.08-.62S48.79,58.14,48.9,59.25Zm-7.13-35c.23-3.13,1.29-4.54,3.51-4.59,3.16-.06,6.32-.05,9.47,0A3.44,3.44,0,0,1,58.16,23c0,.42.06.83.1,1.32.43,0,.76,0,1.1,0s.73-.07,1.09-.1c.22-4.37-2.17-6.88-6.44-6.89-2.91,0-5.83,0-8.74,0a5.72,5.72,0,0,0-5.58,6.93Zm14,0c.12-2-.11-2.29-1.92-2.29-2.56,0-5.12,0-7.68,0-1.84,0-2.17.43-1.79,2.29Z"/><path class="cls-2" d="M15.08,80.25V68.77h2.19V80.25Z"/><path class="cls-2" d="M20.92,80.22V73.41h2.15v6.81Z"/><path class="cls-2" d="M26.78,75.73h2.15v4.53H26.78Z"/><path class="cls-2" d="M17.27,84.93H15.12V82.75h2.15Z"/><path class="cls-2" d="M23.06,85H21v-2.2h2.09Z"/><path class="cls-2" d="M26.74,84.91V82.76h2.19v2.15Z"/><path class="cls-2" d="M55.84,48.83A5.83,5.83,0,1,1,50,43,5.85,5.85,0,0,1,55.84,48.83ZM50,45.34a3.5,3.5,0,1,0,3.53,3.49A3.53,3.53,0,0,0,50,45.34Z"/></svg>