<svg id="Layer_1" data-name="Layer 1" xmlns="http://www.w3.org/2000/svg" viewBox="0 0 100 100"><defs><style>.cls-1{fill:#1b75bc;}.cls-2{fill:#55c2b4;}</style></defs><title>06 Data0</title><path class="cls-1" d="M17.2,82.43h3.6V67.18c0-1.13.28-1.43,1.4-1.43h7c1,0,1.35.33,1.35,1.35,0,4.89,0,9.77,0,14.66v.76h2.71V53c0-1.38.26-1.64,1.65-1.64h6.63c1.15,0,1.46.31,1.46,1.46q0,14.28,0,28.56v1h2.76V59.87c0-1.32.25-1.57,1.56-1.57H54c1.17,0,1.48.32,1.48,1.52V82.54h2.71V46.35c0-1.34.27-1.6,1.6-1.6h6.77c1.07,0,1.37.3,1.37,1.39V82.47c.87,0,1.68,0,2.5,0a3.82,3.82,0,0,1,.83.06,1,1,0,0,1,.83,1.15,1,1,0,0,1-.94,1c-.4,0-.8,0-1.2,0H16.51c-1.2,0-1.51-.29-1.51-1.48V33.07c0-.59,0-1.16.69-1.39.83-.29,1.48.23,1.48,1.22V81.75C17.17,82,17.19,82.16,17.2,82.43Zm48.51.12V47H60.46v35.6ZM35.51,53.64V82.51h5.26V53.64ZM53.23,82.43V60.54H48V82.43ZM23,68V82.4h5.26V68Z"/><path class="cls-2" d="M50.8,38.57l1.79-2.11a12.19,12.19,0,1,1,15.81.43c.18.25.35.52.53.79,1.32,2,2.64,3.89,3.95,5.84a.63.63,0,0,0,.79.33,4,4,0,0,1,4.38,1.83c2,3,4.07,6.09,6.09,9.15,1.39,2.08,1.07,4.44-.76,5.67a4.32,4.32,0,0,1-6.16-1c-1-1.46-2-3-3-4.45s-2.1-3.17-3.17-4.75a4.17,4.17,0,0,1-.11-5,.67.67,0,0,0,0-.6c-1.51-2.26-3-4.51-4.56-6.76-5.09,2.07-6.67,2-12.32-.33-.56.64-1.15,1.28-1.67,2a1.06,1.06,0,0,0,0,.8,3.74,3.74,0,0,1-4.58,5,3.71,3.71,0,0,1-2.45-4.66.66.66,0,0,0-.22-.83c-2-1.78-3.91-3.59-5.89-5.37a1.13,1.13,0,0,0-.77-.14c-.81,0-1.61.13-2.41.22a.9.9,0,0,0-.58.2c-2.81,3.7-5.6,7.42-8.41,11.15a3.71,3.71,0,1,1-6.61,1.4,3.59,3.59,0,0,1,4.09-2.84,1.3,1.3,0,0,0,1.48-.65q3.78-5,7.63-10a.83.83,0,0,0,.11-1,3.67,3.67,0,0,1,.7-4.52A3.8,3.8,0,0,1,39,27.75,3.71,3.71,0,0,1,40.65,32a.72.72,0,0,0,.22.85q3,2.77,5.88,5.58c.24.23.41.36.78.2A3.89,3.89,0,0,1,50.8,38.57ZM63.34,26.92l-7.61,9a9.87,9.87,0,0,0,10.8-16.51A9.86,9.86,0,0,0,54,34.61l7.81-9.23-4.8.33c-.85.05-1.3-.31-1.33-1.07s.37-1.1,1.21-1.15l7.17-.42c.89-.06,1.31.3,1.37,1.19.15,2.37.28,4.74.43,7.11.05.84-.22,1.25-.9,1.31s-1.23-.36-1.29-1.21C63.56,30,63.46,28.58,63.34,26.92Zm19.5,30.25a8.55,8.55,0,0,0-.53-1.09q-3-4.55-6-9.07A2,2,0,1,0,73,49.2q2.43,3.63,4.84,7.26c.48.72,1,1.46,1.46,2.16a1.89,1.89,0,0,0,2.19.68A2.12,2.12,0,0,0,82.84,57.17ZM49.07,43.53a1.6,1.6,0,0,0,1.6-1.62,1.56,1.56,0,0,0-1.61-1.53,1.54,1.54,0,0,0-1.59,1.53A1.59,1.59,0,0,0,49.07,43.53ZM38.61,31.1a1.52,1.52,0,1,0-3,0,1.52,1.52,0,0,0,3,0ZM24.28,49.76a1.49,1.49,0,0,0,1.54-1.49,1.54,1.54,0,0,0-1.57-1.55,1.52,1.52,0,0,0,0,3Z"/></svg>