<svg id="Layer_1" data-name="Layer 1" xmlns="http://www.w3.org/2000/svg" viewBox="0 0 100 100"><defs><style>.cls-1{fill:#55c2b4;}.cls-2{fill:#1b75bc;}</style></defs><title>02  Information0</title><path class="cls-1" d="M40.12,71.54H35.55a4.19,4.19,0,0,1-4.39-4.41c0-1.85,0-3.7,0-5.55a.72.72,0,0,0-.54-.81c-1.56-.58-3.1-1.2-4.65-1.81-1-.4-1.23-.89-.7-1.87,1.24-2.29,2.52-4.57,3.75-6.87a2.05,2.05,0,0,0,.18-1.1A21.73,21.73,0,0,1,36.5,29.4a19.86,19.86,0,0,1,7.14-4.15l1.89-.62a1.29,1.29,0,0,0,.59-1.58c-.87-1.47-.87-1.47.35-2.63l1.06-1a1.25,1.25,0,0,1,1.9-.15c.37.24.68.58,1.24.3a1.16,1.16,0,0,0,.78-1c.15-1.12.45-1.33,1.62-1.33.69,0,1.38,0,2.08,0,1,0,1.29.32,1.38,1.27a1.08,1.08,0,0,0,1.72.79c1.18-.77,1.39-.75,2.35.26.43.45.86.9,1.28,1.36A1.24,1.24,0,0,1,62,22.78c-.23.35-.58.62-.37,1.17a1.25,1.25,0,0,0,1.12.91c1,.14,1.33.46,1.22,1.47a3.79,3.79,0,0,0,1.5,3.77,14.19,14.19,0,0,1,2.29,2.58,1.47,1.47,0,0,0,1.4.65,16.83,16.83,0,0,1,1.74,0c.86,0,1.15.26,1.31,1.1.24,1.26,1,1.59,2.07.88a1.25,1.25,0,0,1,1.94.24l1.43,1.51a1.26,1.26,0,0,1,.16,1.9c-.24.38-.56.69-.31,1.25a1.17,1.17,0,0,0,1,.8c1.1.13,1.38.48,1.38,1.58q0,1,0,2c0,.9-.29,1.22-1.14,1.37-1.23.23-1.56,1-.86,2.07.53.81.49,1.23-.19,1.88-.49.47-1,.92-1.47,1.38-.85.81-1.16.85-2.1.18a1.15,1.15,0,0,0-1.33-.14.82.82,0,0,0-.56.76c-.08.69-.24,1.33-1.08,1.49-.13,0-.24.27-.31.43a22.14,22.14,0,0,1-8.37,10.1,1.06,1.06,0,0,0-.34.8c0,3.77,0,7.54,0,11.31,0,1.29-.26,1.56-1.53,1.56H41.59c-1.2,0-1.47-.26-1.47-1.46ZM62.19,29.9c-.36.77-.64,1.37,0,2.09s.43,1.12-.17,1.7L60.61,35c-1,.92-1.22.92-2.35.24a1.86,1.86,0,0,0-1-.15c-.63.05-.75.54-.84,1.07-.15,1-.43,1.2-1.43,1.2h-2.5a1,1,0,0,1-1.08-.89,3.13,3.13,0,0,1-.12-.68c0-.7-.63-.57-1-.72-.15-.07-.48.12-.64.28a1.09,1.09,0,0,1-1.78.06c-.48-.48-.93-1-1.39-1.46-.94-1-1-1.23-.22-2.32a1,1,0,0,0,.14-1.08,1.05,1.05,0,0,0-1-.75c-1.14-.15-1.35-.44-1.36-1.59,0-.22,0-.43,0-.65l-.21,0A19.89,19.89,0,0,0,31.62,49.3a2,2,0,0,1-.15,1.2c-1.09,2.06-2.24,4.09-3.37,6.13l-.34.7c1.56.62,3,1.24,4.57,1.79a1.39,1.39,0,0,1,1,1.52c0,2.13,0,4.25,0,6.38a2.09,2.09,0,0,0,2.39,2.38c1.78,0,3.56,0,5.34,0,.84,0,1.18.34,1.18,1.18,0,1.46,0,2.91,0,4.37,0,.24,0,.49,0,.73H60V75c0-3.49,0-7,0-10.48a2.25,2.25,0,0,1,1.17-2.14,20,20,0,0,0,7.11-7.7c.16-.32.28-.65.42-1-1.33-.15-1.42-.22-1.64-1.45a.93.93,0,0,0-.73-.84,1.2,1.2,0,0,0-1.2.16c-1,.68-1.32.62-2.14-.25-.42-.46-.86-.91-1.28-1.37-.72-.76-.75-1.12-.17-2s.35-1.77-.85-2c-.92-.16-1.2-.49-1.21-1.45,0-.68,0-1.35,0-2,0-1.19.21-1.47,1.39-1.63a1.22,1.22,0,0,0,.81-1.93c-.68-1-.62-1.32.25-2.14.49-.46,1-.92,1.47-1.37s1.11-.67,1.78-.14a1.39,1.39,0,0,0,2,0A24.81,24.81,0,0,0,62.19,29.9Zm6.9,21.54c.64.18,1,.13,1.15-.63a1.85,1.85,0,0,1,.82-1.07A6.88,6.88,0,0,1,73,49a3.15,3.15,0,0,1,1.29.07c.23,0,.42.27.59.38l.91-.7c-1.06-.85-.85-1.71-.31-2.61a4.16,4.16,0,0,0,.4-1A1.21,1.21,0,0,1,77,44c.33,0,.7.07.72-.5s-.24-.62-.65-.68a1.35,1.35,0,0,1-1.2-.91c-.21-.61-.45-1.2-.72-1.79a1.3,1.3,0,0,1,.1-1.43c.14-.18.25-.38.37-.55-.39-.59-.73-.87-1.4-.34a1.69,1.69,0,0,1-1.28.06,7.22,7.22,0,0,1-1.84-.76,2.5,2.5,0,0,1-.81-.92,2.26,2.26,0,0,1-.15-.79c-.67-.21-1-.06-1.11.67a1.26,1.26,0,0,1-1.13,1.14,2.48,2.48,0,0,0-.84.3c-.92.6-1.81.85-2.69-.17l-.75.75c.83,1.35.83,1.35.21,2.56a2.63,2.63,0,0,0-.3.69,1.57,1.57,0,0,1-1.6,1.44,1.08,1.08,0,0,0-.33.13v.92a3.1,3.1,0,0,1,.77.19,2.8,2.8,0,0,1,1,.8,8.69,8.69,0,0,1,.81,2A2.73,2.73,0,0,1,64,48.05a2.2,2.2,0,0,1-.44.67l.72.75c.65-.44,1.18-1,2-.54.59.31,1.26.46,1.83.79a3,3,0,0,1,.84,1C69.11,50.9,69.06,51.2,69.09,51.44ZM45.9,27.71a3.12,3.12,0,0,1,.76.2,3,3,0,0,1,.94.8,19.9,19.9,0,0,1,.78,1.84,1.3,1.3,0,0,1-.1,1.43c-.14.18-.26.38-.37.55.39.57.73.87,1.4.34a1.66,1.66,0,0,1,1.27-.06,7.26,7.26,0,0,1,1.85.75,2.59,2.59,0,0,1,.8.93,2.53,2.53,0,0,1,.16.81c.63.14,1,.06,1.13-.68a1.86,1.86,0,0,1,.85-1,7.1,7.1,0,0,1,1.84-.77,2.56,2.56,0,0,1,1.23,0c.26.06.47.34.69.52l.81-.74A1.74,1.74,0,0,1,59.72,30,4,4,0,0,0,60.13,29,1.17,1.17,0,0,1,61.2,28l.73-.12v-1a1.83,1.83,0,0,1-2-1.77.93.93,0,0,0-.17-.38,1.81,1.81,0,0,1,.09-2.56s0-.09,0-.15-.2-.23-.32-.34-.23-.21-.34-.3c-1.21.71-1,1-2.66.13a4.61,4.61,0,0,0-1-.38,1.18,1.18,0,0,1-1-1c0-.25-.07-.5-.1-.77h-1a4.48,4.48,0,0,1-.25,1,1.57,1.57,0,0,1-.62.63,4.75,4.75,0,0,1-1,.31.61.61,0,0,0-.18.09c-.92.61-1.82.85-2.66-.17L48,22c.84,1.29.92,1.28.2,2.64a3.46,3.46,0,0,0-.34.83,1.27,1.27,0,0,1-1.2,1.15C45.93,26.64,45.76,27,45.9,27.71Z"/><path class="cls-2" d="M21.22,73.23l-1.46-1.36a1.15,1.15,0,0,1-.48-1.27,1.19,1.19,0,0,1,1.17-.81c3-.25,5.94-.53,8.91-.77a2.25,2.25,0,0,1,1.19.1,1.3,1.3,0,0,1,.6,1.37c-.22,2.37-.42,4.74-.63,7.11a18,18,0,0,1-.23,2.21,1.46,1.46,0,0,1-.71,1,1.44,1.44,0,0,1-1.16-.28A15.51,15.51,0,0,1,26.88,79l-.55.52q-2.52,2.53-5,5c-.77.77-1.21.77-2,0q-1.9-1.87-3.78-3.78c-.7-.7-.69-1.18,0-1.89Zm1.48-1.47.36.39c.92.94.92,1.31,0,2.24-1.55,1.55-3.1,3.11-4.66,4.66a8.37,8.37,0,0,1-.77.62l2.64,2.68,5.22-5.22C26.61,76,26.8,76,28,77.05c.07.06.15.1.31.21l.53-6Z"/><path class="cls-2" d="M73.14,21.08l3.15-3.16c.87-.87,1.73-1.74,2.6-2.6a1,1,0,0,1,1.69,0q2,2,4,4c.58.59.5.91-.07,1.48-1.91,1.87-3.79,3.78-5.83,5.83.52.46,1,.89,1.52,1.34a1.18,1.18,0,0,1,.34,1.38c-.19.52-.62.61-1.11.66q-4.59.43-9.18.9c-1,.09-1.46-.33-1.38-1.31.27-3.15.54-6.31.86-9.45a1.29,1.29,0,0,1,.69-.92,1.49,1.49,0,0,1,1.16.27A14.49,14.49,0,0,1,73.14,21.08Zm9.17-.79-2.54-2.62L74.4,23c-.92.92-1.29.92-2.24,0a3.68,3.68,0,0,0-.39-.3l-.53,6,6-.53c-.08-.14-.1-.21-.14-.26C76,26.72,76,26.61,77.2,25.41l.34-.35Z"/><path class="cls-1" d="M53.58,59.46c-.47-.31-.91-.59-1.33-.89a1.52,1.52,0,0,0-2.23.85c-.38,1.9-.38,1.89-2.29,1.89-.79,0-1.57,0-2.36,0a1.05,1.05,0,0,1-1.19-1.07,1.52,1.52,0,0,0,0-.21c-.07-.38,0-.9-.25-1.11a4.43,4.43,0,0,0-1.43-.64c-.11,0-.3.06-.42.14-.32.19-.62.41-.93.61a1.1,1.1,0,0,1-1.51-.16c-.75-.76-1.49-1.52-2.21-2.31a1.12,1.12,0,0,1-.06-1.67l.21-.28a1.63,1.63,0,0,0,0-2.27,1.77,1.77,0,0,0-.92-.36c-1.36-.3-1.48-.43-1.48-1.79,0-.9,0-1.8,0-2.7a1.1,1.1,0,0,1,1-1.27.65.65,0,0,1,.13,0c1.23.09,1.43-.89,1.77-1.72a.67.67,0,0,0-.13-.49c-.17-.3-.38-.58-.56-.88a1.12,1.12,0,0,1,.18-1.61c.73-.71,1.46-1.42,2.21-2.11a1.16,1.16,0,0,1,1.73-.09l.33.25a1.71,1.71,0,0,0,2.22,0,.86.86,0,0,0,.25-.47c.09-.34.13-.68.2-1a1.15,1.15,0,0,1,1.2-1q1.66,0,3.33,0A1.07,1.07,0,0,1,50.16,38a1.48,1.48,0,0,1,0,.21A1.73,1.73,0,0,0,51.84,40a.73.73,0,0,0,.44-.13c.3-.18.58-.38.87-.57a1.24,1.24,0,0,1,1.7.14c.79.76,1.56,1.52,2.3,2.31a1.12,1.12,0,0,1,.08,1.62l-.21.28A1.58,1.58,0,0,0,57,45.92a1,1,0,0,0,.5.3c.35.1.72.14,1.08.23a.94.94,0,0,1,.77,1c0,1.11,0,2.22,0,3.33,0,.86-.33,1.19-1.2,1.3H58a1.7,1.7,0,0,0-1.77,1.67.72.72,0,0,0,.13.43c.18.32.4.62.61.93a1.1,1.1,0,0,1-.14,1.51c-.76.78-1.52,1.55-2.31,2.3A4.69,4.69,0,0,1,53.58,59.46Zm3.63-11c-1.62.19-2.23-.8-2.5-2.15a.41.41,0,0,0-.08-.19c-.75-1.14-1-2.25.23-3.22l-1.21-1.24a7.55,7.55,0,0,0-.66.45,1.44,1.44,0,0,1-1.9.09,6,6,0,0,0-1.71-.72,1.42,1.42,0,0,1-1.16-1.37,8.43,8.43,0,0,0-.17-.9c-1.52-.15-1.52-.15-1.78,1.2a1.22,1.22,0,0,1-.92,1,5.78,5.78,0,0,0-1.49.55,2.11,2.11,0,0,1-3-.25s-.09,0,0,0l-1.34,1.16a2,2,0,0,1,.33,3.08.34.34,0,0,0-.06.12,2.36,2.36,0,0,1-2.56,2.24s0,0-.09.07v1.47a.93.93,0,0,0,.15.07.9.9,0,0,0,.27.07,1.73,1.73,0,0,1,1.89,1.62,1.87,1.87,0,0,0,.27.71c.75,1.15.95,2.25-.23,3.21l1.2,1.25c.23-.16.45-.29.65-.45a1.43,1.43,0,0,1,1.89-.11,7.13,7.13,0,0,0,1.78.74,1.38,1.38,0,0,1,1.1,1.27c0,.34.1.67.16,1l.59,0c1,0,1,0,1.15-1a1.44,1.44,0,0,1,1.26-1.42,3,3,0,0,0,1.16-.44,2.13,2.13,0,0,1,3,.22s.08,0,.27.07c.16-.19.36-.45.57-.69s.28-.3.42-.45c-.91-1.6-.91-1.6-.18-3.3l.07-.19c.71-1.9.27-1.73,2.49-2.14,0,0,.07-.05.11-.08Z"/><path class="cls-2" d="M74.35,43.34a4.62,4.62,0,1,1-4.59-4.64A4.57,4.57,0,0,1,74.35,43.34ZM69.72,41a2.47,2.47,0,1,0,2.49,2.43A2.44,2.44,0,0,0,69.72,41Z"/><path class="cls-2" d="M53.94,22.77A4.62,4.62,0,0,1,53.86,32a4.63,4.63,0,0,1-4.58-4.68A4.54,4.54,0,0,1,53.94,22.77Zm-.09,7a2.47,2.47,0,1,0,.07-4.93,2.49,2.49,0,0,0-2.5,2.44A2.42,2.42,0,0,0,53.85,29.74Z"/><path class="cls-2" d="M52.7,49.17a5.49,5.49,0,0,1-11-.06,5.49,5.49,0,1,1,11,.06Zm-5.49-3.35a3.31,3.31,0,0,0-3.32,3.36,3.34,3.34,0,1,0,3.32-3.36Z"/></svg>