<svg id="Layer_1" data-name="Layer 1" xmlns="http://www.w3.org/2000/svg" viewBox="0 0 100 100"><defs><style>.cls-1{fill:#55c2b4;}.cls-2{fill:#1b75bc;}</style></defs><title>04 Infrastructure0</title><path class="cls-1" d="M31.5,45.25a13.87,13.87,0,0,1,3.34-11.48A13.64,13.64,0,0,1,43,29.19a14.07,14.07,0,0,1,15.77,9.75,7,7,0,0,1,6.67.5,6.86,6.86,0,0,1,3.25,5.73,30.8,30.8,0,0,1,3.25.78A9.3,9.3,0,0,1,71,63.68a10.64,10.64,0,0,1-2.51.3q-18.51,0-37,0a9.33,9.33,0,0,1-2.19-18.43C30,45.41,30.72,45.36,31.5,45.25ZM49.93,61.66H68.59A8.68,8.68,0,0,0,70,61.51a7,7,0,0,0-2.32-13.75c-1,.15-1.66-.49-1.48-1.56a4.59,4.59,0,0,0-2-4.78,4.64,4.64,0,0,0-5.27.15,2,2,0,0,1-1.19.39c-.78-.07-.89-.76-1-1.39A11.64,11.64,0,1,0,34.08,46c.35,1.35-.26,2-1.65,1.75a7,7,0,1,0-1,13.9Q40.67,61.68,49.93,61.66Z"/><path class="cls-2" d="M81.5,29c.81,0,1.51,0,2.21,0A1.2,1.2,0,0,1,85,30.33,5.81,5.81,0,0,1,79.42,36c-5.61.05-11.22,0-16.84,0A5.79,5.79,0,0,1,57,30.48c0-1,.39-1.47,1.41-1.48H60.5V18.8A3.51,3.51,0,0,1,64.25,15H77.67a3.52,3.52,0,0,1,3.83,3.87V29Zm-2.34,0V18.85c0-1.13-.38-1.51-1.53-1.51H64.3c-1,0-1.46.42-1.47,1.45,0,3.21,0,6.41,0,9.62,0,.18,0,.37,0,.57Zm3.19,2.42H59.61a3.29,3.29,0,0,0,3.07,2.26q8.34,0,16.68,0A3.18,3.18,0,0,0,82.35,31.39Z"/><path class="cls-2" d="M75.59,85h-7.8c-1.05,0-1.45-.4-1.46-1.44V70.07c0-1,.44-1.41,1.43-1.41H83.57c1,0,1.43.42,1.43,1.41V83.55c0,1-.41,1.44-1.47,1.44Zm7-14H68.72V73.3H82.63Zm0,6.93V75.71H68.72V78ZM68.7,82.61H82.61V80.37H68.7Z"/><path class="cls-2" d="M31.67,85H21a5.82,5.82,0,0,1-6-6V72.2a5.83,5.83,0,0,1,5.88-5.87q5.69,0,11.37,0a5.82,5.82,0,0,1,6.08,6.1c0,1.87,0,3.74,0,5.61a1.36,1.36,0,0,0,.44.9c1.53,1.27,3.09,2.51,4.65,3.74.51.4.9.84.65,1.54s-.84.79-1.49.78H31.67Zm8-2.34c-1.08-.87-2-1.63-2.93-2.34A1.75,1.75,0,0,1,36,78.76q0-3.32,0-6.63a3.46,3.46,0,0,0-3.43-3.46c-3.94,0-7.87,0-11.81,0a3.41,3.41,0,0,0-3.41,3.38c0,2.41,0,4.81,0,7.22a3.36,3.36,0,0,0,2.57,3.23,7.73,7.73,0,0,0,1.8.14Z"/><path class="cls-2" d="M26.26,35.42l2.5,6.72c.52,1.4.08,2-1.4,2H21.1c-1.19,0-1.68-.69-1.27-1.81.85-2.31,1.72-4.62,2.58-6.92-1.88-1.82-2.08-3.92-.57-5.45a3.53,3.53,0,0,1,5,.05C28.35,31.57,28.13,33.66,26.26,35.42Zm-3.73,6.39h3.61L24.33,37ZM24.4,31.29a1.14,1.14,0,1,0,1.1,1.2A1.16,1.16,0,0,0,24.4,31.29Z"/><path class="cls-2" d="M16.89,20.35l-1.62-1.56a12.58,12.58,0,0,1,17.94,0l-1.6,1.58a10.53,10.53,0,0,0-14.72,0Z"/><path class="cls-2" d="M29.18,24a7.11,7.11,0,0,0-9.83,0l-1.6-1.54c3.07-3.63,10-3.63,13.05,0Z"/><path class="cls-2" d="M28.6,26.11l-1.54,1.63a4.16,4.16,0,0,0-5.45,0l-1.5-1.59C21.74,24.11,26.15,23.62,28.6,26.11Z"/><path class="cls-2" d="M43,20.87v2.24H40.71V20.87Z"/><path class="cls-2" d="M47.61,23.14H45.38V20.87h2.23Z"/><path class="cls-2" d="M50,20.85h2.24v2.27H50Z"/><path class="cls-2" d="M57,23.15H54.72V20.88H57Z"/><path class="cls-2" d="M38.29,23.15H36.06V20.89h2.23Z"/><path class="cls-2" d="M80.37,55.79V53.55h2.25v2.24Z"/><path class="cls-2" d="M19.63,59.3H17.39V57h2.24Z"/><path class="cls-2" d="M19.64,47.71V50H17.39V47.71Z"/><path class="cls-2" d="M80.39,58.18h2.22v2.27H80.39Z"/><path class="cls-2" d="M19.63,64H17.39V61.71h2.24Z"/><path class="cls-2" d="M80.37,62.86h2.25v2.26H80.37Z"/><path class="cls-2" d="M82.61,46.47H80.37V44.2h2.24Z"/><path class="cls-2" d="M82.63,41.8H80.38V39.54h2.25Z"/><path class="cls-2" d="M82.65,48.88v2.23H80.38V48.88Z"/><path class="cls-2" d="M46.54,75.7h2.24V78H46.54Z"/><path class="cls-2" d="M53.47,75.7v2.24H51.21V75.7Z"/><path class="cls-2" d="M58.11,78H55.88V75.7h2.23Z"/><path class="cls-2" d="M60.53,78V75.72h2.26V78Z"/><path class="cls-2" d="M17.38,52.37h2.24v2.25H17.38Z"/><path class="cls-2" d="M44.14,75.7V78H41.88V75.7Z"/><path class="cls-1" d="M55,52.37l.53.59a1.13,1.13,0,0,1,0,1.64q-1.64,1.66-3.3,3.3a1.13,1.13,0,0,1-1.64,0,6.29,6.29,0,0,1-.47-.43c-.06.05-.13.07-.13.1-.15,1.62-.3,1.76-2,1.76H44.63c-1.26,0-1.57-.31-1.63-1.57a2.64,2.64,0,0,0,0-.36l-.55.47a1.17,1.17,0,0,1-1.69,0c-1.1-1.07-2.19-2.15-3.25-3.25a1.13,1.13,0,0,1,0-1.69l.48-.56-.58,0c-1,0-1.35-.44-1.36-1.41,0-1.36,0-2.72,0-4.08,0-1.1.37-1.47,1.48-1.51l.34,0c0-.08,0-.14,0-.16-1-1.23-1-1.47.13-2.6l2.48-2.47c.86-.86,1.32-.87,2.21-.06l.22.17c.06,0,.12-.06.12-.08.15-1.63.3-1.76,2-1.77h3.42c1.26,0,1.58.31,1.63,1.58,0,.08,0,.17,0,.35l.49-.42a1.21,1.21,0,0,1,1.81,0Q53.94,41.4,55.5,43a1.17,1.17,0,0,1,0,1.8l-.42.5.58,0c.94,0,1.34.44,1.35,1.41,0,1.36,0,2.72,0,4.08,0,1.11-.37,1.47-1.47,1.51ZM47.63,57c.17-1.63,2.35-2.52,3.82-1.66L53,53.8a2.58,2.58,0,0,1,1.62-3.86V47.71a2.58,2.58,0,0,1-1.53-4,8.3,8.3,0,0,1-.82-.67,9.11,9.11,0,0,1-.67-.9,2.6,2.6,0,0,1-4-1.45H45.37c-.17,1.61-2.36,2.5-3.82,1.64L40,43.86a2.58,2.58,0,0,1-1.61,3.86V50A2.57,2.57,0,0,1,40,53.76l1.55,1.6A2.59,2.59,0,0,1,45.42,57Z"/><path class="cls-2" d="M71,19.67c1.48,0,3,0,4.44,0,1,0,1.38.42,1.39,1.36,0,1.44,0,2.87,0,4.3a1.18,1.18,0,0,1-1.35,1.33c-3,0-6,0-9,0a1.18,1.18,0,0,1-1.35-1.32c0-1.46,0-2.92,0-4.37a1.17,1.17,0,0,1,1.31-1.3C68,19.66,69.49,19.67,71,19.67Zm-3.49,4.62h6.94V22.06H67.51Z"/><path class="cls-2" d="M23.12,76.8H20.88V74.53h2.24Z"/><path class="cls-2" d="M27.78,76.81H25.56V74.54h2.22Z"/><path class="cls-2" d="M32.45,76.79H30.2V74.55h2.25Z"/><path class="cls-1" d="M46.49,53.5a4.67,4.67,0,1,1,4.68-4.67A4.67,4.67,0,0,1,46.49,53.5Zm2.34-4.65a2.33,2.33,0,1,0-2.33,2.31A2.34,2.34,0,0,0,48.83,48.85Z"/></svg>