<svg id="Layer_1" data-name="Layer 1" xmlns="http://www.w3.org/2000/svg" viewBox="0 0 100 100"><defs><style>.cls-1{fill:#1b75bc;}.cls-2{fill:#55c2b4;}</style></defs><title>05 IT Risk0</title><path class="cls-1" d="M31.27,33.15V24.08c0-1.22.37-1.61,1.58-1.55a18,18,0,0,0,9.93-2.2,15.63,15.63,0,0,0,5.93-5.82,4,4,0,0,1,.39-.62A1.17,1.17,0,0,1,51,14c2.85,4.82,7.22,7.37,12.6,8.32a23.85,23.85,0,0,0,3.6.21c1.15,0,1.44.28,1.44,1.43V33h8.08a3.58,3.58,0,0,1,3.82,3.83q0,17.17,0,34.36a3.9,3.9,0,0,0,.26,1.35c1.27,3.24,2.57,6.48,3.87,9.71a3,3,0,0,1-2.88,4.3q-22.78,0-45.57,0c-6,0-12,0-18,0a4.24,4.24,0,0,1-1.58-.27,2.71,2.71,0,0,1-1.43-3.74c1.27-3.19,2.57-6.37,3.82-9.57a5.63,5.63,0,0,0,.38-2q0-17,0-34a3.55,3.55,0,0,1,3.86-3.85ZM21.75,70.86H78.14a2.31,2.31,0,0,0,0-.32q0-17,0-33.92a1.28,1.28,0,0,0-1.43-1.41H68.62c0,.24,0,.4,0,.57a24.28,24.28,0,0,1-7,16.63,29.31,29.31,0,0,1-10.78,7.14,1.9,1.9,0,0,1-1.46,0A29,29,0,0,1,38.4,52.39a24.45,24.45,0,0,1-6.7-13c-.22-1.32-.29-2.67-.44-4.06-.18,0-.39,0-.61,0H23.43c-1.28,0-1.68.4-1.68,1.68V70.86ZM50.1,84.31H78.19c1.23,0,2.45,0,3.68,0,.76,0,1.06-.44.8-1.09-1.28-3.14-2.57-6.27-3.83-9.41a.68.68,0,0,0-.75-.51c-1.16,0-2.31,0-3.47,0q-26.13,0-52.27,0a1.16,1.16,0,0,0-1.3.91C20,77.08,18.84,80,17.64,82.81c-.51,1.2-.08,1.52,1,1.52Q34.35,84.29,50.1,84.31ZM33.66,24.82v.78c0,3.39,0,6.78,0,10.17a19.72,19.72,0,0,0,1.57,7.74C38,50.17,43,54.61,49.59,57.32a1.24,1.24,0,0,0,.89,0A26.17,26.17,0,0,0,62.37,48a21.47,21.47,0,0,0,4-12.55c0-3.27,0-6.54,0-9.81v-.81A21,21,0,0,1,50,16.74C46,22.23,40.45,24.69,33.66,24.82Z"/><path class="cls-2" d="M38.75,66.2c-.64,0-1.28,0-1.92,0a1.06,1.06,0,0,1-1.11-1.11A1,1,0,0,1,36.81,64c1.3,0,2.6,0,3.9,0a1,1,0,0,1,1.07,1.14,1,1,0,0,1-1.12,1.1c-.64,0-1.28,0-1.91,0Z"/><path class="cls-2" d="M61.13,66.2c-.62,0-1.23,0-1.84,0a1.07,1.07,0,0,1-1.14-1.09A1.05,1.05,0,0,1,59.28,64c1.28,0,2.55,0,3.83,0a1,1,0,0,1,1.09,1.12,1,1,0,0,1-1.08,1.13C62.45,66.22,61.79,66.2,61.13,66.2Z"/><path class="cls-2" d="M46.3,66.2c-.64,0-1.28,0-1.91,0a1.07,1.07,0,0,1-1.12-1.11A1.05,1.05,0,0,1,44.35,64c1.3,0,2.6,0,3.89,0a1.12,1.12,0,0,1,0,2.24H46.3Z"/><path class="cls-2" d="M53.75,66.2c-.63,0-1.27,0-1.91,0a1.13,1.13,0,0,1,0-2.25q1.88,0,3.75,0a1.13,1.13,0,0,1,1.19,1.14,1.1,1.1,0,0,1-1.2,1.11c-.61,0-1.22,0-1.84,0Z"/><path class="cls-2" d="M32.43,64c.3,0,.59,0,.89,0a1.07,1.07,0,0,1,1,1.12,1,1,0,0,1-1,1.12,16.52,16.52,0,0,1-2,0,1,1,0,0,1-1-1.15,1,1,0,0,1,1-1.08A10.11,10.11,0,0,1,32.43,64Z"/><path class="cls-2" d="M67.67,66.2c-.32,0-.64,0-1,0a1.12,1.12,0,0,1,0-2.24,17.37,17.37,0,0,1,1.91,0,1.07,1.07,0,0,1,1,1.17,1,1,0,0,1-1.07,1.07c-.32,0-.64,0-1,0Z"/><path class="cls-2" d="M50.06,79.94H42.55c-1,0-1.45-.36-1.44-1.14s.45-1.12,1.4-1.12H57.9A1.25,1.25,0,0,1,59,78.9c0,.63-.43,1-1.18,1-1.47,0-2.94,0-4.41,0Z"/><path class="cls-2" d="M43.3,31.6a25.28,25.28,0,0,1,0-2.89,6.82,6.82,0,0,1,13.58.68c0,.73,0,1.47,0,2.18,2.23.73,2.86,1.6,2.86,3.91V47a3.26,3.26,0,0,1-3.57,3.57c-4.13,0-8.26,0-12.39,0a3.23,3.23,0,0,1-3.41-3.38c.11-4,0-8,0-12C40.42,33.15,41.22,32.13,43.3,31.6Zm-.67,12c.6,0,1.12,0,1.63,0a1,1,0,0,1,1.06,1.15,1.06,1.06,0,0,1-1.12,1.11c-.51,0-1,0-1.51,0a1.07,1.07,0,0,0-.08.29c0,2-.17,2.26,2,2.24,3.86,0,7.72,0,11.57,0,.6,0,1.12-.1,1.19-.8a16.34,16.34,0,0,0,0-1.72H55.88a1.06,1.06,0,0,1-1.15-1.14,1,1,0,0,1,1.1-1.12c.51,0,1,0,1.57,0V38.75H56c-.81,0-1.24-.42-1.24-1.14s.4-1.11,1.23-1.15c.48,0,1,0,1.48,0,0-.66,0-1.2,0-1.73a.83.83,0,0,0-.89-.88H43.87c-.56,0-1.11.08-1.21.7a12.23,12.23,0,0,0,0,1.92c.58,0,1.07,0,1.56,0a1.14,1.14,0,1,1-.08,2.28c-.48,0-1,0-1.49,0ZM54.47,31.51c0-.8,0-1.53,0-2.27a4.34,4.34,0,0,0-3.73-4.19,4.39,4.39,0,0,0-5.07,3,21.23,21.23,0,0,0-.29,3.42Z"/><path class="cls-2" d="M52.07,45H48c.27-1.12.54-2.18.76-3.25a.82.82,0,0,0-.19-.66,2.25,2.25,0,0,1-.2-3.1,2.28,2.28,0,0,1,3.22-.35,2.1,2.1,0,0,1,.36,3.06,1.7,1.7,0,0,0-.39,1.9C51.74,43.39,51.89,44.18,52.07,45Z"/></svg>