<svg id="Layer_1" data-name="Layer 1" xmlns="http://www.w3.org/2000/svg" viewBox="0 0 100 100"><defs><style>.cls-1{fill:#1b75bc;}.cls-2{fill:#55c2b4;}</style></defs><title>010</title><path class="cls-1" d="M43,87a2.9,2.9,0,0,1,1.71-2.74,16.16,16.16,0,0,1,3.16-.53v-2h-24c-2.5,0-3.47-1-3.47-3.49V72.61c0-2.09,1-3.12,3.12-3.14,4.39,0,8.78,0,13.17,0l10.45,0c.22,0,.44,0,.72,0V67.2H46.2c-7.45,0-14.91,0-22.36,0a6,6,0,0,1-2.27-.53,2.16,2.16,0,0,1-1.21-2.14c0-2.12,0-4.24,0-6.36s1-3.09,3.14-3.1q6.91,0,13.85,0c3.14,0,6.28,0,9.42,0,.33,0,.67,0,1.06-.06V52.72c-.46,0-.9-.06-1.33-.06-7.57,0-15.14,0-22.71,0a5.08,5.08,0,0,1-2.51-.76,2.39,2.39,0,0,1-.88-1.71c-.1-2.38-.06-4.77,0-7.15a2.58,2.58,0,0,1,2.82-2.48c3.37,0,6.74,0,10.11,0l40.76-.1a15.58,15.58,0,0,1,1.81,0,3.16,3.16,0,0,1,3,3.43c0,1.89-.05,3.79-.09,5.68,0,2.22-1,3.11-3.23,3.12-3.29,0-6.58,0-9.88,0h-15V55H52c7.65,0,15.29-.06,22.94,0a5.82,5.82,0,0,1,2.39.53,2.66,2.66,0,0,1,1.56,2.67c-.07,2-.07,3.94-.11,5.9,0,2.24-1,3.12-3.22,3.13-3.67,0-7.34,0-11,0H50.74v2.21c.39,0,.83,0,1.26,0l23,0c2.7,0,3.88,1.2,3.85,3.86,0,1.78-.06,3.56-.1,5.34,0,2.1-1,3.06-3.17,3.06H50.7v2.2c2.4-.19,4.54.06,4.93,3H73.82v2.68H55.64c-.7,2.07-2.19,2.66-4.2,2.54-1.73-.1-3.48,0-5.22,0a2.89,2.89,0,0,1-2.91-1.77c-.3-.68-.72-.71-1.32-.71-5.22,0-10.44,0-15.67,0H25V87ZM23.18,72.24v6.61H76.09V72.24Zm0-22.38h52.9V43.29H23.16Zm0,14.54H76.06V57.8H23.15ZM45.82,89.28h6.91V86.64H45.82Z"/><path class="cls-2" d="M73,30.88c1.54,0,2.94-.08,4.33,0,7.11.53,12,4.34,15.18,10.52A16.84,16.84,0,0,1,94.3,52.75a11.69,11.69,0,0,1-13,9.38V59.47c.47,0,.91,0,1.35,0a8.55,8.55,0,0,0,9.18-8.11c.61-6.77-2.93-14.36-10.33-16.9a20.32,20.32,0,0,0-5.34-.84c-2.22-.14-4.46,0-6.87,0,.19-.58.35-1,.5-1.46,2.23-6.64,1.34-12.77-3.4-18a14.3,14.3,0,0,0-22.57,1.7C43,17,42.3,18.37,41.51,19.73a15.33,15.33,0,0,0-14.81,1c-4.77,3-6.76,7.56-6.81,12.75-2.24,1.21-4.53,2-6.34,3.49a15.67,15.67,0,0,0-6,15c.62,4.84,4,7.57,8.91,7.62h1v2.69A11.2,11.2,0,0,1,7,57.4c-2.65-3.65-2.84-7.73-1.74-11.92,1.64-6.21,5.24-10.81,11.25-13.38a1.6,1.6,0,0,0,.81-1,18,18,0,0,1,22-14.9c.74.19,1.06-.07,1.43-.66C44.08,10.3,48.71,7,55,6.78c7.81-.27,13.15,3.83,16.63,10.52A19.41,19.41,0,0,1,73,30.88Z"/><path class="cls-1" d="M69.39,76.91c-.87,0-1.74,0-2.61,0a1.34,1.34,0,0,1-.1-2.67c1.76-.07,3.54-.07,5.31,0a1.34,1.34,0,0,1-.11,2.68C71.05,76.93,70.22,76.91,69.39,76.91Z"/><path class="cls-1" d="M26.94,75.52c0-.45-.16-1,0-1.34A2.56,2.56,0,0,1,28.24,73a1.12,1.12,0,0,1,1.38,1.14,17.83,17.83,0,0,1,0,2.83,1.15,1.15,0,0,1-1.37,1.17A2.38,2.38,0,0,1,27,77c-.2-.38,0-1,0-1.45Z"/><path class="cls-1" d="M35.55,75.57a12.32,12.32,0,0,1,0,1.36,1.35,1.35,0,0,1-2.69,0c-.05-.86,0-1.73,0-2.6a1.36,1.36,0,0,1,2.71,0c0,.41,0,.83,0,1.24Z"/><path class="cls-1" d="M41.41,75.5a3.94,3.94,0,0,1-.12,1.56c-.27.48-.87,1.07-1.32,1.06A1.75,1.75,0,0,1,38.74,77a11.45,11.45,0,0,1-.05-2.81A1.2,1.2,0,0,1,40,73a1.24,1.24,0,0,1,1.39,1.18,10.12,10.12,0,0,1,0,1.35Z"/><path class="cls-1" d="M69.37,45.24c.83,0,1.66,0,2.48,0a1.35,1.35,0,1,1,0,2.69c-1.69.05-3.39.05-5.09,0a1.35,1.35,0,1,1,.08-2.69C67.71,45.23,68.54,45.24,69.37,45.24Z"/><path class="cls-1" d="M29.65,46.64c0,.42,0,.83,0,1.24a1.27,1.27,0,0,1-1.39,1.31A1.24,1.24,0,0,1,27,47.92a18.66,18.66,0,0,1,0-2.59,1.24,1.24,0,0,1,1.32-1.26,1.26,1.26,0,0,1,1.36,1.22,12.16,12.16,0,0,1,0,1.35Z"/><path class="cls-1" d="M35.55,46.62a12.16,12.16,0,0,1,0,1.35c-.1.77-.59,1.35-1.35,1.17A1.92,1.92,0,0,1,32.91,48a6.56,6.56,0,0,1,0-2.79,2,2,0,0,1,1.26-1.15c.73-.16,1.27.39,1.37,1.17A12.13,12.13,0,0,1,35.55,46.62Z"/><path class="cls-1" d="M38.68,46.57c0-.42-.15-.92,0-1.23.28-.49.76-1.17,1.2-1.2a1.69,1.69,0,0,1,1.35,1,7.49,7.49,0,0,1,0,3,1.75,1.75,0,0,1-1.36,1c-.39,0-.93-.62-1.16-1.09s0-1,0-1.45Z"/><path class="cls-1" d="M69.36,59.78c.83,0,1.66,0,2.49,0a1.34,1.34,0,1,1,.05,2.68c-1.7.05-3.39.05-5.09,0a1.23,1.23,0,0,1-1.32-1.37,1.26,1.26,0,0,1,1.38-1.32C67.7,59.76,68.53,59.78,69.36,59.78Z"/><path class="cls-1" d="M29.65,61.09a12.34,12.34,0,0,1,0,1.36,1.27,1.27,0,0,1-1.32,1.28A1.24,1.24,0,0,1,27,62.51a19,19,0,0,1,0-2.72,1.25,1.25,0,0,1,1.31-1.28,1.29,1.29,0,0,1,1.38,1.34C29.68,60.26,29.65,60.68,29.65,61.09Z"/><path class="cls-1" d="M35.55,61.19c0,.45.16,1,0,1.34a2.49,2.49,0,0,1-1.28,1.15c-.76.19-1.31-.38-1.37-1.16a20.57,20.57,0,0,1,0-2.72,1.25,1.25,0,0,1,1.3-1.29,1.29,1.29,0,0,1,1.4,1.32c0,.45,0,.9,0,1.36Z"/><path class="cls-1" d="M38.68,61.08c0-.45-.15-1,0-1.33s.78-1.15,1.22-1.17a1.7,1.7,0,0,1,1.33,1,7.87,7.87,0,0,1,0,3,1.71,1.71,0,0,1-1.3,1c-.44,0-1-.63-1.26-1.12S38.68,61.57,38.68,61.08Z"/></svg>