<svg id="Layer_1" data-name="Layer 1" xmlns="http://www.w3.org/2000/svg" viewBox="0 0 100 100"><defs><style>.cls-1{fill:#1b75bc;}.cls-2{fill:#55c2b4;}</style></defs><title>020</title><path class="cls-1" d="M35.4,67.85,35,61.14H12.19c-1.71,0-2.19-.49-2.19-2.22V41.14c0-1.85.45-2.3,2.27-2.3q17.94,0,35.89,0a4.54,4.54,0,0,0,2-.46A27.47,27.47,0,1,1,66.7,90a28.49,28.49,0,0,1-4.32.35q-25,0-50,0h-.16c-1.73,0-2.24-.52-2.24-2.27V70c0-1.61.52-2.12,2.13-2.12H35.4Zm3.12-5a24,24,0,1,0,24.24-24A24.23,24.23,0,0,0,38.52,62.86Zm-25,24H49.09l-.52-.35A27.44,27.44,0,0,1,36.64,71.92a.86.86,0,0,0-1-.66H14.32c-.26,0-.52,0-.82,0Zm0-29h22a28,28,0,0,1,8.82-15.53H13.49Z"/><path class="cls-2" d="M39.66,32.13H12.22C10.5,32.13,10,31.64,10,30v-18c0-1.8.5-2.29,2.29-2.29H67.08c1.85,0,2.34.47,2.34,2.32V30c0,1.49-.68,2.16-2.17,2.16ZM13.5,28.66H65.92V13.13H13.5Z"/><path class="cls-2" d="M70.41,48.09c.62-.66,1.26-1.38,1.94-2.06a1.69,1.69,0,0,1,2.72,0l4.33,4.33a1.69,1.69,0,0,1,0,2.67l-.29.28c-.58.59-1.5,1.12-1.64,1.8s.55,1.5.82,2.28a.66.66,0,0,0,.77.5c.8,0,1.61,0,2.41,0a1.64,1.64,0,0,1,1.82,1.77q0,3.23,0,6.44a1.63,1.63,0,0,1-1.77,1.75,22.62,22.62,0,0,1-2.33,0,.81.81,0,0,0-1,.69,5.4,5.4,0,0,1-.25.67c-.59,1.47-.6,1.47.55,2.62.34.34.7.67,1,1a1.58,1.58,0,0,1,0,2.31c-1.57,1.62-3.16,3.22-4.78,4.78a1.55,1.55,0,0,1-2.3-.08c-.73-.71-1.43-1.46-2.13-2.18-.87.36-1.69.67-2.48,1a.8.8,0,0,0-.35.61c0,.8,0,1.61,0,2.41a1.75,1.75,0,0,1-1.91,1.9c-2.06,0-4.13,0-6.19,0-1.27,0-1.85-.61-1.87-1.89,0-.78,0-1.56,0-2.33a.7.7,0,0,0-.57-.81c-.72-.26-1.43-.59-2.36-1-.58.63-1.2,1.35-1.88,2a1.69,1.69,0,0,1-2.77,0q-2.14-2.13-4.27-4.27a1.7,1.7,0,0,1,0-2.78l1.87-1.88.08-.13c-.32-.79-.62-1.59-1-2.35a.92.92,0,0,0-.65-.4c-.83,0-1.66,0-2.49,0a1.62,1.62,0,0,1-1.8-1.8q0-3.18,0-6.35a1.63,1.63,0,0,1,1.78-1.82c.81,0,1.62,0,2.42,0a.7.7,0,0,0,.82-.54c.26-.73.59-1.44,1-2.3-.6-.59-1.28-1.23-1.94-1.88-1.05-1.05-1.06-1.86,0-2.89,1.42-1.43,2.84-2.86,4.27-4.27a1.66,1.66,0,0,1,2.66,0l.28.29c.62.58,1.17,1.5,1.88,1.65s1.52-.52,2.26-.88a.89.89,0,0,0,.42-.63c.05-.86,0-1.72,0-2.58a1.61,1.61,0,0,1,1.76-1.74c2.15,0,4.3,0,6.44,0a1.62,1.62,0,0,1,1.76,1.76c0,.85,0,1.72,0,2.57a.88.88,0,0,0,.43.63C68.73,47.42,69.5,47.71,70.41,48.09Zm-6.32-2.5H61c0,.9,0,1.73,0,2.56,0,1.11-.43,1.51-1.48,1.88a33.07,33.07,0,0,0-3.84,1.6c-1,.51-1.57.54-2.37-.25-.57-.57-1.1-1.18-1.66-1.79l-2.39,2.2c.39.32.71.57,1,.84s.62.59.91.91a1.69,1.69,0,0,1,.24,2.13c-.61,1.3-1.19,2.62-1.68,4-.39,1.09-.79,1.47-2,1.48h-2.5v3.11c.87,0,1.7,0,2.53,0,1.17,0,1.57.43,1.94,1.52a32.92,32.92,0,0,0,1.6,3.83,1.73,1.73,0,0,1-.17,2.27c-.59.72-1.2,1.42-1.74,2.06l2.24,2.35c.6-.64,1.16-1.29,1.78-1.88a1.63,1.63,0,0,1,2.06-.23c1.3.61,2.62,1.21,4,1.69,1.15.41,1.52.77,1.53,2v2.29h3c.05-.09.1-.14.1-.18,0-.81,0-1.61,0-2.42a1.79,1.79,0,0,1,1.36-1.84c1.38-.5,2.73-1.06,4.06-1.67a1.87,1.87,0,0,1,2.34.35c.55.55,1.06,1.13,1.59,1.7l2.36-2.37c-.6-.54-1.21-1.06-1.78-1.63-.77-.77-.76-1.31-.27-2.31a34.12,34.12,0,0,0,1.56-3.68c.47-1.36.8-1.67,2.23-1.7.76,0,1.83.19,2.2-.21s.12-1.47.16-2.25c0-.47-.13-.68-.63-.65s-1.18,0-1.77,0c-1.38,0-1.74-.37-2.17-1.65A25.82,25.82,0,0,0,73.78,56c-.51-1-.55-1.57.26-2.37.57-.57,1.19-1.08,1.72-1.57L73.5,49.75h0c-.57.57-1.14,1.14-1.72,1.69a1.64,1.64,0,0,1-2.19.25,39.27,39.27,0,0,0-3.9-1.65c-1.15-.42-1.53-.79-1.55-2C64.08,47.23,64.09,46.43,64.09,45.59Z"/><path class="cls-1" d="M25.44,77.47h4.9c1.31,0,2,.58,2,1.67a1.71,1.71,0,0,1-2,1.74H20.48c-1.21,0-1.88-.62-1.88-1.71s.64-1.7,1.86-1.71C22.12,77.46,23.78,77.47,25.44,77.47Z"/><path class="cls-1" d="M25.42,51.72c-1.66,0-3.32,0-5,0a1.63,1.63,0,0,1-1.82-1.53,1.6,1.6,0,0,1,1.66-1.91q5.19-.06,10.38,0A1.59,1.59,0,0,1,32.32,50a1.61,1.61,0,0,1-1.76,1.68c-1.71,0-3.43,0-5.14,0Z"/><path class="cls-2" d="M25.47,22.51c-1.67,0-3.33,0-5,0-1.24,0-1.87-.6-1.87-1.69s.64-1.72,1.86-1.72q5,0,10.05,0a1.61,1.61,0,0,1,1.8,1.7,1.6,1.6,0,0,1-1.79,1.71C28.84,22.52,27.16,22.51,25.47,22.51Z"/><path class="cls-2" d="M58.75,20.8a2.58,2.58,0,0,1-2.54,2.59,2.61,2.61,0,0,1-2.59-2.63,2.55,2.55,0,0,1,2.59-2.52A2.52,2.52,0,0,1,58.75,20.8Z"/><path class="cls-2" d="M52.92,62.84a9.63,9.63,0,1,1,9.6,9.66A9.64,9.64,0,0,1,52.92,62.84Zm9.64-6.14a6.17,6.17,0,1,0,6.15,6.18A6.12,6.12,0,0,0,62.56,56.7Z"/></svg>