<svg id="Layer_1" data-name="Layer 1" xmlns="http://www.w3.org/2000/svg" viewBox="0 0 100 100"><defs><style>.cls-1{fill:#55c2b4;}.cls-2{fill:#1b75bc;}</style></defs><title>030</title><path class="cls-1" d="M18.05,27.84A14.49,14.49,0,0,1,35.91,15.53C41,9.46,47.58,6.79,55.43,8.27s12.83,6.47,15.45,14a14.45,14.45,0,0,1,6.88,3.94,14.28,14.28,0,0,1,3.7,6.75,36.42,36.42,0,0,1,3.5,1.5,14.32,14.32,0,0,1,3.22,22.83,4.21,4.21,0,0,1-.64.56A1.08,1.08,0,0,1,86,57.67,1.19,1.19,0,0,1,85.88,56c.41-.51.88-1,1.31-1.45A10.93,10.93,0,0,0,90,47.06a11.74,11.74,0,0,0-8.82-11.4c-.2,0-.4-.11-.6-.14-.94-.12-1.33-.66-1.54-1.59a11.48,11.48,0,0,0-8.53-9.11,2.75,2.75,0,0,0-.47-.13,1.72,1.72,0,0,1-1.65-1.53,14.74,14.74,0,0,0-1.8-4.25,16.61,16.61,0,0,0-11.63-8.15c-6.89-1.2-12.58,1-17,6.46l-.31.38a1.49,1.49,0,0,1-1.8.6,15,15,0,0,0-3.36-.55,11.35,11.35,0,0,0-5.95,1.56,11.58,11.58,0,0,0-5.84,9.22,1.76,1.76,0,0,1-1.21,1.64A14.89,14.89,0,0,0,12,51.3a15,15,0,0,0,2.88,3.62,3.42,3.42,0,0,1,.57.63,1.24,1.24,0,0,1-1.59,1.75,4,4,0,0,1-1-.73A17.49,17.49,0,0,1,7.63,46a17.16,17.16,0,0,1,5.12-14.54,15.84,15.84,0,0,1,4.36-3.11Z"/><path class="cls-2" d="M85.2,56.48q0,5.13,0,10.26A4.91,4.91,0,0,1,85,68.17a2.08,2.08,0,0,1-1.91,1.47,8,8,0,0,1-1,0H67.54a8,8,0,0,1-.85,0,2.19,2.19,0,0,1-2.1-1.87,7.15,7.15,0,0,1-.14-1.46q0-9.89,0-19.79a7.39,7.39,0,0,1,.12-1.33,2.35,2.35,0,0,1,2.3-2c.81,0,1.63,0,2.44,0H81.77a4,4,0,0,0,.49,0,2.61,2.61,0,0,1,2.95,2.89c-.08,2,0,4.07,0,6.11ZM67.15,67c1.84.24,14.58.16,15.44-.1V54.41c-1-.22-14.3-.23-15.44,0Zm0-15.41c2,.24,14.58.16,15.46-.1V45.91c-1.73-.45-3.44,0-5.13-.14a45.62,45.62,0,0,0-5.23,0c-1.68.08-3.37-.14-5.1.06Z"/><path class="cls-2" d="M61.24,56.54q0,5.19,0,10.38a2.72,2.72,0,0,1-.51,1.84,2.6,2.6,0,0,1-2.17.9c-3.42,0-6.84,0-10.26,0-1.71,0-3.42,0-5.13,0a2.32,2.32,0,0,1-2.57-2.56c0-2.93-.11-5.86-.11-8.79,0-2.56.08-5.12.11-7.69,0-1.58,0-3.16,0-4.74a2.35,2.35,0,0,1,2.62-2.66c5.09,0,10.18,0,15.27,0A2.63,2.63,0,0,1,61.26,46c-.07,3.5,0,7,0,10.51ZM58.59,67.06c.21-1.57.16-11.8,0-12.68-1.08-.21-14.37-.19-15.31,0a125.92,125.92,0,0,0,.08,12.66ZM43.2,51.58c1.42.22,14.49.18,15.38,0a25.49,25.49,0,0,0,0-5.67c-1.16-.22-14.39-.18-15.34.06Z"/><path class="cls-2" d="M16.67,56.4c0-3.46.07-6.92,0-10.38a2.61,2.61,0,0,1,2.87-2.83c5,.05,10,0,15,0a4,4,0,0,1,1.63.4,1.94,1.94,0,0,1,1.13,1.75c0,.29,0,.57,0,.86V66.62a7.85,7.85,0,0,1,0,1,2.31,2.31,0,0,1-2.09,2,8.23,8.23,0,0,1-.86,0H19.55a4.92,4.92,0,0,1-1.09-.06,2.31,2.31,0,0,1-1.78-2.44c0-2.94,0-5.87,0-8.8Zm2.6-2.11V67c1.38.22,14.45.18,15.42,0V54.29Zm0-2.68c2,.21,14.5.14,15.43-.09V46c-1.21-.36-14.22-.36-15.43,0Z"/><path class="cls-1" d="M51.76,78.64v5c.45.3.93.6,1.38.94a4.16,4.16,0,0,1,1.31,4.73,4.25,4.25,0,0,1-4.15,2.83,4.45,4.45,0,0,1-3.95-3A4.29,4.29,0,0,1,48,84.39c.37-.25.76-.47,1.18-.73v-5c-.46,0-.89,0-1.32,0q-9.23,0-18.46,0a4.67,4.67,0,0,1-2.89-.8,3.93,3.93,0,0,1-1.62-3,20,20,0,0,1,0-2.57c.06-1,.58-1.63,1.3-1.65s1.32.66,1.34,1.7c0,.7,0,1.39,0,2.08,0,1.2.41,1.56,1.64,1.59h19c.32,0,.64,0,1.11,0,0-.63,0-1.23,0-1.82s0-1.31,0-2c0-1.11.48-1.76,1.24-1.78s1.28.67,1.29,1.73c0,1.22,0,2.44,0,3.74a5.33,5.33,0,0,0,.83.14c6.32,0,12.63,0,19,0a1.52,1.52,0,0,0,1.67-1.74,16,16,0,0,1,0-1.83,4.37,4.37,0,0,1,0-.73,1.36,1.36,0,0,1,1.29-1.1,1.27,1.27,0,0,1,1.16,1.08,20.6,20.6,0,0,1-.11,4,3.74,3.74,0,0,1-3.86,2.93c-1.43,0-2.86,0-4.28,0H51.76Zm.39,9.18a1.7,1.7,0,0,0-3.39,0,1.7,1.7,0,1,0,3.39,0Z"/><path class="cls-2" d="M71.28,63c.6,0,1.21,0,1.82,0a1.3,1.3,0,1,1,.11,2.6,36.05,36.05,0,0,1-3.89,0,1.28,1.28,0,0,1-1.26-1.36A1.36,1.36,0,0,1,69.45,63c.33,0,.65,0,1,0Z"/><path class="cls-2" d="M71.45,55.46c.57,0,1.14,0,1.7,0a1.37,1.37,0,0,1,1.33,1.31,1.32,1.32,0,0,1-1.32,1.32c-1.21,0-2.43,0-3.64,0a1.5,1.5,0,0,1-.47-.08,1.3,1.3,0,0,1-1-1.23,1.27,1.27,0,0,1,1-1.23,3.25,3.25,0,0,1,.83-.1Z"/><path class="cls-2" d="M71.37,61.83c-.65,0-1.31,0-2,0a1.26,1.26,0,1,1,0-2.51c1.26,0,2.52,0,3.78,0a1.15,1.15,0,0,1,1.25,1.2,1.19,1.19,0,0,1-1.27,1.31c-.33,0-.65,0-1,0Z"/><path class="cls-2" d="M73.17,48.78a1.64,1.64,0,0,1,1.69-1.69,1.73,1.73,0,0,1,1.69,1.72,1.92,1.92,0,0,1-1.66,1.67A1.79,1.79,0,0,1,73.17,48.78Z"/><path class="cls-2" d="M81.75,48.76c-.48,1.3-1.11,1.82-2,1.66a1.73,1.73,0,0,1-1.46-1.69,1.67,1.67,0,0,1,1.38-1.62C80.68,46.93,81.29,47.42,81.75,48.76Z"/><path class="cls-2" d="M69.66,47.09a1.61,1.61,0,0,1,1.65,1.7,1.65,1.65,0,1,1-3.3,0A1.62,1.62,0,0,1,69.66,47.09Z"/><path class="cls-2" d="M47.43,55.46c.57,0,1.14,0,1.7,0a1.35,1.35,0,0,1,1.4,1.36,1.28,1.28,0,0,1-1.36,1.27c-1.21,0-2.42,0-3.64,0h-.12a1.35,1.35,0,0,1-1.3-1.34,1.33,1.33,0,0,1,1.26-1.26c.68-.06,1.37,0,2.06,0Z"/><path class="cls-2" d="M47.3,65.68c-.53,0-1.06,0-1.58,0a2.41,2.41,0,0,1-.93-.24,1.21,1.21,0,0,1-.67-1.21,1.13,1.13,0,0,1,.77-1,2.61,2.61,0,0,1,.83-.17c1.09,0,2.19,0,3.29,0a2.07,2.07,0,0,1,1.11.37,1.11,1.11,0,0,1,.37,1.22,1.19,1.19,0,0,1-1.12,1,20.39,20.39,0,0,1-2.07,0Z"/><path class="cls-2" d="M47.35,61.83c-.61,0-1.22,0-1.83,0a1.3,1.3,0,0,1-1.41-1.22c0-.75.53-1.28,1.45-1.3q1.83,0,3.66,0a1.2,1.2,0,0,1,1.31,1.28c0,.76-.47,1.2-1.35,1.24-.61,0-1.22,0-1.83,0Z"/><path class="cls-2" d="M54.38,48.7a1.7,1.7,0,0,1,1.79-1.61,1.69,1.69,0,1,1-1.79,1.61Z"/><path class="cls-2" d="M49.22,48.73A1.65,1.65,0,0,1,51,47.09a1.81,1.81,0,0,1,1.66,1.64,2,2,0,0,1-1.73,1.74A1.76,1.76,0,0,1,49.22,48.73Z"/><path class="cls-2" d="M47.36,48.93a1.62,1.62,0,0,1-1.71,1.51,1.68,1.68,0,1,1,.23-3.35A1.61,1.61,0,0,1,47.36,48.93Z"/><path class="cls-2" d="M23.38,58.09c-.65,0-1.3,0-1.94,0a1.32,1.32,0,0,1-1.22-1,1.07,1.07,0,0,1,.4-1.19,1.72,1.72,0,0,1,1-.39c1.21,0,2.42,0,3.64,0a1.26,1.26,0,0,1,1.32,1.41c0,.74-.48,1.17-1.37,1.22-.6,0-1.21,0-1.82,0Z"/><path class="cls-2" d="M20.16,64.34A1.45,1.45,0,0,1,21.78,63c1.14,0,2.28,0,3.42,0,.81,0,1.24.39,1.35,1a1.31,1.31,0,0,1-1.11,1.61c-1.34.07-2.69.06-4,0C20.73,65.61,20.52,65.31,20.16,64.34Z"/><path class="cls-2" d="M23.34,61.83c-.61,0-1.22,0-1.83,0a1.25,1.25,0,1,1-.06-2.5q1.95-.06,3.9,0a1.14,1.14,0,0,1,1.22,1.22c0,.78-.42,1.23-1.28,1.29-.33,0-.65,0-1,0Z"/><path class="cls-2" d="M32.16,47.09a1.69,1.69,0,0,1,1.68,1.73,1.78,1.78,0,0,1-1.67,1.64,1.69,1.69,0,1,1,0-3.37Z"/><path class="cls-2" d="M25.27,48.69a1.66,1.66,0,0,1,1.78-1.6,1.77,1.77,0,0,1,1.62,1.8,1.86,1.86,0,0,1-1.74,1.57A1.76,1.76,0,0,1,25.27,48.69Z"/><path class="cls-2" d="M20.12,48.79a1.64,1.64,0,0,1,1.67-1.7,1.72,1.72,0,0,1,1.7,1.69,1.87,1.87,0,0,1-1.63,1.69A1.77,1.77,0,0,1,20.12,48.79Z"/></svg>