<svg id="Layer_1" data-name="Layer 1" xmlns="http://www.w3.org/2000/svg" viewBox="0 0 100 100"><defs><style>.cls-1{fill:#55c2b4;}.cls-2{fill:#1b75bc;}</style></defs><title>040</title><path class="cls-1" d="M85.71,72.85v9c0,2.06-.59,2.65-2.64,2.65h-19l-25.9,0c-2.45,0-3.69-1.17-3.73-3.64,0-.8-.57-.74-1-.88A32.25,32.25,0,0,1,13.05,62.23a33,33,0,1,1,61.87-5.46A1,1,0,0,0,75.26,58c1.45,1.28,2.86,2.6,4.43,4,0-.81,0-1.41,0-2,0-.77.34-1,1.08-1q1.91,0,3.81,0c.78,0,1.06.34,1,1.08,0,2.21,0,4.42,0,6.63A1.65,1.65,0,0,0,86.23,68q1.74,1.53,3.39,3.13a1.28,1.28,0,0,1,.37,1c0,.2-.51.42-.81.46C88.05,72.7,86.93,72.76,85.71,72.85ZM62,72.58c-1.24,0-2.4,0-3.56,0-.34,0-.87-.23-1-.48s.17-.75.42-1c1.23-1.17,2.5-2.3,3.79-3.41a1.5,1.5,0,0,0,.55-1.25c0-7.74,0-15.48,0-23.23,0-1.72-.62-2.34-2.33-2.34H38.35c-1.89,0-2.46.58-2.47,2.47V80.8c0,1.72.6,2.32,2.34,2.33s3.62,0,5.43,0c.26,0,.52,0,.87,0v-1c0-1.94,0-3.88,0-5.82a1.71,1.71,0,0,1,1.9-1.91q2.67,0,5.34,0a1.71,1.71,0,0,1,1.86,1.88c0,1.83,0,3.66,0,5.5v1.38H62Zm7.81,10.49c0-.29,0-.5,0-.71,0-1.51,0-3,0-4.53a2,2,0,0,1,2.08-2.11c1.35,0,2.7,0,4,0a2,2,0,0,1,1.94,2c0,.48,0,1,0,1.45v3.9c1.89,0,3.67,0,5.44,0,.73,0,.92-.27.91-1,0-3.15,0-6.31,0-9.46,0-1,.19-1.21,1.22-1.25l2.14-.12c-1.1-1-2-1.81-2.91-2.69a2,2,0,0,1-.52-1.18c-.06-1.32,0-2.64,0-4v-3h-3c0,1.08,0,2.1,0,3.12a1.05,1.05,0,0,1-.46.75c-.18.1-.54,0-.8-.15a2.07,2.07,0,0,1-.48-.42l-5.54-5.06L60.13,71l.08.22c.66,0,1.33,0,2,0,1.13,0,1.27.15,1.27,1.25,0,3.24,0,6.48,0,9.71,0,.53.06.9.72.89C66,83.06,67.86,83.07,69.79,83.07ZM11.6,49.27c-.69,5.29,3.81,16.82,7.56,19.73l8.66-5.65a44,44,0,0,1-2.47-14.08ZM19.05,28a31.27,31.27,0,0,0-7.54,19.7H25.33a44,44,0,0,1,2.31-13.62A32.13,32.13,0,0,1,19.05,28Zm40.43,5.75c.46,1.68.94,3.47,1.46,5.25a1.23,1.23,0,0,0,.63.6,3.25,3.25,0,0,1,2.12,3.06c0,1,0,1.94,0,2.91V47.7H74.52a31.35,31.35,0,0,0-7.41-19.51ZM43.77,16.93V36a32.84,32.84,0,0,0,13.59-3.14c-1.92-5.54-7.77-12.7-12.72-15.62A4.62,4.62,0,0,0,43.77,16.93Zm-1.53.52a33.25,33.25,0,0,0-12.66,15.7c2.26,1.49,10,3.15,12.66,2.74Zm21.5,31.82V65.78l.88-.78c2.59-2.32,5.14-4.68,7.79-6.93A3.6,3.6,0,0,0,73.62,56a31.42,31.42,0,0,0,.88-6.73ZM20.07,26.94a30.74,30.74,0,0,0,8.1,5.68A37.2,37.2,0,0,1,33,24.08a34.94,34.94,0,0,1,7-6.9A30.85,30.85,0,0,0,20.07,26.94ZM26.8,47.71h7.61v-4.4c0-2.66,1.25-3.92,3.9-3.92H42.2V37.5A35.6,35.6,0,0,1,29,34.69,41.84,41.84,0,0,0,26.8,47.71ZM65.89,26.94c-3.35-4.43-14-10-18.38-9.5A36.72,36.72,0,0,1,58.75,32.17,30.71,30.71,0,0,0,65.89,26.94ZM28.4,65a36.26,36.26,0,0,0-8.13,5.34,31.4,31.4,0,0,0,14.14,8.49c0-1.39,0-2.63,0-3.87a1.11,1.11,0,0,0-.29-.62,34.92,34.92,0,0,1-4.92-7.67C28.93,66.12,28.69,65.59,28.4,65Zm6-15.71H26.8a41.53,41.53,0,0,0,2.41,13.62c1.54-.52,3-1,4.5-1.51.52-.15.72-.35.71-.93,0-3.45,0-6.9,0-10.35Zm25.16-9.93L58,34.2A35.29,35.29,0,0,1,43.8,37.48v1.86ZM52.16,83.09c0-2.33,0-4.61,0-6.9,0-.14-.4-.38-.62-.38-1.62,0-3.23,0-4.85,0-.55,0-.69.21-.68.72,0,1.61,0,3.23,0,4.85v1.75ZM76.44,83V77.89a.61.61,0,0,0-.69-.7c-1.26,0-2.53,0-3.79,0a.88.88,0,0,0-.63.62c-.06,1.71,0,3.43,0,5.19ZM29.73,64.29a33.12,33.12,0,0,0,4.64,8V62.66Z"/><path class="cls-1" d="M38.16,85.06c-2.76,0-4.18-1.39-4.23-4.13,0-.26,0-.26-.36-.34l-.3-.07A32.81,32.81,0,0,1,12.59,62.44,33.49,33.49,0,1,1,75.4,56.9a.53.53,0,0,0,.19.68c1.06.93,2.09,1.88,3.18,2.88l.43.39c0-.3,0-.58,0-.86a1.47,1.47,0,0,1,.37-1.16,1.6,1.6,0,0,1,1.23-.4c1.23,0,2.5,0,3.77,0a1.58,1.58,0,0,1,1.17.38,1.61,1.61,0,0,1,.4,1.2v2.66c0,1.33,0,2.65,0,4a1.17,1.17,0,0,0,.45,1c1.2,1,2.35,2.11,3.41,3.14a1.73,1.73,0,0,1,.51,1.4c-.11.55-.9.82-1.25.87-.82.09-1.64.15-2.5.21l-.52,0v8.55c0,2.33-.82,3.15-3.14,3.15h-19l-25.89,0Zm4.92-69.12A32.51,32.51,0,0,0,13.5,62,31.78,31.78,0,0,0,33.58,79.56l.2,0a1.25,1.25,0,0,1,1.15,1.3c0,2.18,1,3.15,3.23,3.15h0l25.9,0h19c1.78,0,2.14-.36,2.14-2.15V72.39l1.45-.11c.84-.06,1.65-.11,2.46-.21a.92.92,0,0,0,.37-.14,1,1,0,0,0-.22-.41c-1-1-2.18-2.07-3.37-3.11a2.15,2.15,0,0,1-.79-1.78c0-1.32,0-2.64,0-4V60a.76.76,0,0,0-.1-.48.67.67,0,0,0-.44-.09c-1.29,0-2.58,0-3.83,0-.34,0-.46.07-.49.1a.61.61,0,0,0-.08.42c0,.41,0,.83,0,1.3v1.87l-2.1-1.92c-1.08-1-2.11-2-3.16-2.87a1.51,1.51,0,0,1-.5-1.68A32.49,32.49,0,0,0,43.08,15.94ZM40.52,83.63h-2.3c-2,0-2.84-.83-2.84-2.83V43.33c0-2.17.81-3,3-3H59.88c2,0,2.83.85,2.83,2.84v6.2q0,8.52,0,17A2,2,0,0,1,62,68.06c-1.42,1.23-2.65,2.34-3.76,3.39a1.08,1.08,0,0,0-.27.45,1.28,1.28,0,0,0,.49.16c.82,0,1.63,0,2.5,0h1.53V83.59H53.12V80.11q0-2,0-3.9a1.22,1.22,0,0,0-1.36-1.38q-2.67,0-5.34,0c-1,0-1.39.44-1.4,1.41,0,1.33,0,2.65,0,4v3.33l-.8,0-.57,0Zm8.59-42.27H38.35c-1.62,0-2,.35-2,2V80.8c0,1.44.38,1.82,1.85,1.83h5.42l.37,0V80.22c0-1.33,0-2.66,0-4a2.2,2.2,0,0,1,2.4-2.4c1.78,0,3.56,0,5.35,0a2.19,2.19,0,0,1,2.35,2.37c0,1.31,0,2.61,0,3.92v2.47h7.36V73.08H61c-.88,0-1.72,0-2.56,0-.37,0-1.2-.23-1.41-.8a1.69,1.69,0,0,1,.55-1.52c1.12-1.07,2.37-2.19,3.8-3.43a1,1,0,0,0,.38-.87q0-8.52,0-17V43.2c0-1.44-.4-1.84-1.83-1.84Zm3.55,42.23H45.49V80.08c0-1.2,0-2.39,0-3.59a1,1,0,0,1,1.19-1.22c.79,0,1.57,0,2.36,0s1.66,0,2.49,0c.39,0,1.1.37,1.11.88,0,1.87,0,3.76,0,5.66Zm-6.17-1h5.17v-.74c0-1.84,0-3.66,0-5.48l-.14-.07H49c-.79,0-1.59,0-2.38,0h-.17v.2c0,1.2,0,2.4,0,3.6Zm5.14-6.39Zm31.78,7.39h-.08c-1.25,0-2.5,0-3.8,0H77.4V78.72c0-.33,0-.65,0-1a1.45,1.45,0,0,0-1.46-1.51c-1.17,0-2.45,0-4,0a1.51,1.51,0,0,0-1.6,1.62c0,1,0,2,0,3v1.51c0,.14,0,.28,0,.45l0,.76H68.14c-1.34,0-2.64,0-3.94,0a1.23,1.23,0,0,1-.9-.31A1.47,1.47,0,0,1,63,82.19c0-3.23,0-6.47,0-9.71,0-.51,0-.64-.07-.68a1.83,1.83,0,0,0-.7-.07H59.85l-.3-.87L73.84,58l5.88,5.37.17.17a.78.78,0,0,0,.17.16,1.55,1.55,0,0,0,.44.15,2.91,2.91,0,0,0,.12-.32c0-.72,0-1.45,0-2.2V60h4v4.59c0,.94,0,1.91,0,2.85a1.53,1.53,0,0,0,.38.85c.6.61,1.24,1.18,2,1.84l.92.83.88.81-2,.11-1.33.07c-.74,0-.74,0-.75.75v2.18c0,2.43,0,4.85,0,7.28a1.45,1.45,0,0,1-.35,1.12A1.36,1.36,0,0,1,83.41,83.59Zm-2.33-1c.76,0,1.52,0,2.27,0a.7.7,0,0,0,.35,0s.06-.06,0-.4q0-3.65,0-7.29V72.67c0-1.29.4-1.7,1.71-1.75l.94,0,0,0c-.71-.64-1.39-1.25-2-1.88a2.45,2.45,0,0,1-.66-1.5c0-1,0-1.95,0-2.9V61h-2v.38c0,.78,0,1.51,0,2.26a1.58,1.58,0,0,1-.71,1.17,1.44,1.44,0,0,1-1.24-.13,1.5,1.5,0,0,1-.51-.39L79,64.14l-5.2-4.76L61.2,70.73h1c1.4,0,1.76.37,1.76,1.75,0,3.24,0,6.48,0,9.72a1.11,1.11,0,0,0,0,.36s0,0,.17,0h0c1.3,0,2.61,0,4,0h1.18c0-.07,0-.14,0-.21V80.85c0-1,0-2,0-3a2.5,2.5,0,0,1,2.57-2.6c1.59,0,2.89,0,4.08,0a2.45,2.45,0,0,1,2.42,2.46c0,.35,0,.69,0,1v3.84h2.68Zm-4.14,1H70.8V81.8c0-1.37,0-2.66,0-4a1.34,1.34,0,0,1,1.11-1.1c1,0,2,0,3,0h.86A1.11,1.11,0,0,1,77,77.89Zm-5.15-1h4.15V77.89a.47.47,0,0,0,0-.17.31.31,0,0,0-.17,0H74.9c-1,0-2,0-2.91,0a.92.92,0,0,0-.18.2c0,1.24,0,2.52,0,3.88ZM34.91,79.47l-.64-.18a31.82,31.82,0,0,1-14.36-8.62l-.36-.38.39-.34a36.13,36.13,0,0,1,8.25-5.42l.45-.23.47,1,.52,1.12A34.28,34.28,0,0,0,34.48,74a1.58,1.58,0,0,1,.41.93c0,.92,0,1.84,0,2.82ZM21,70.35a30.7,30.7,0,0,0,12.91,7.79v-.39c0-1,0-1.89,0-2.8a.79.79,0,0,0-.18-.31,35.7,35.7,0,0,1-5-7.78c-.18-.36-.35-.73-.53-1.13l0-.08A35.72,35.72,0,0,0,21,70.35Zm13.87,3.41L34,72.62a33.93,33.93,0,0,1-4.71-8.13l-.2-.49,5.8-2ZM30.4,64.59a33.58,33.58,0,0,0,3.47,6.22V63.37Zm-11.27,5-.28-.22c-4-3.07-8.45-14.77-7.75-20.19l.06-.43H25.84v.49a43.41,43.41,0,0,0,2.44,13.91l.14.38ZM12.05,49.77c-.36,5.12,3.62,15.51,7.14,18.61l8-5.24a44.32,44.32,0,0,1-2.36-13.37ZM63.24,66.88V48.77H75v.5a32,32,0,0,1-.89,6.84,4.06,4.06,0,0,1-1.38,2.34c-1.9,1.62-3.79,3.33-5.62,5L65,65.37Zm1-17.11v14.9l.05,0,2.15-1.94c1.83-1.66,3.73-3.37,5.64-5a3,3,0,0,0,1-1.79A32.18,32.18,0,0,0,74,49.77ZM28.91,63.52l-.17-.46A41.7,41.7,0,0,1,26.3,49.28v-.51h8.62v4q0,3.87,0,7.72a1.28,1.28,0,0,1-1.07,1.41c-1.07.33-2.12.69-3.2,1.06Zm-1.6-13.75a40.6,40.6,0,0,0,2.21,12.48l.8-.27c1.09-.38,2.16-.74,3.24-1.07.36-.11.37-.14.36-.45,0-2.58,0-5.15,0-7.73v-3Zm7.6-1.56H26.29V47.7a42.18,42.18,0,0,1,2.22-13.17l.17-.51.49.21a35.07,35.07,0,0,0,13,2.77h.49v2.88H38.31c-2.38,0-3.39,1-3.4,3.43Zm-7.59-1h6.59v-3.9c0-2.93,1.49-4.42,4.4-4.42H41.7V38a36.37,36.37,0,0,1-12.41-2.63A41.39,41.39,0,0,0,27.32,47.21ZM75,48.2H63.19V44.67c0-.67,0-1.33,0-2a2.75,2.75,0,0,0-1.83-2.62,1.67,1.67,0,0,1-.9-.91c-.4-1.35-.77-2.71-1.12-4l-.43-1.57,8.29-6,.29.35A31.88,31.88,0,0,1,75,47.68Zm-10.85-1H74a30.93,30.93,0,0,0-7-18.32l-7,5.07.25.91c.36,1.3.72,2.66,1.12,4a.81.81,0,0,0,.36.28,3.75,3.75,0,0,1,2.41,3.51c0,.67,0,1.35,0,2Zm-38.38,1H11l0-.51a31.57,31.57,0,0,1,7.65-20l.35-.42.39.39a31.87,31.87,0,0,0,8.46,6l.39.2-.14.41a43.39,43.39,0,0,0-2.28,13.47ZM12,47.2H24.84A44.29,44.29,0,0,1,27,34.33a33.08,33.08,0,0,1-8-5.59A30.54,30.54,0,0,0,12,47.2Zm48.21-7.36H43.3V37h.49a34.72,34.72,0,0,0,14-3.24l.52-.24Zm-15.94-1H58.9l-1.18-4A35.51,35.51,0,0,1,44.3,38Zm-1-2.34V16.23l.66.22.3.1a2.42,2.42,0,0,1,.66.25c5.06,3,11,10.25,12.94,15.88l.15.43-.41.19a33.11,33.11,0,0,1-13.79,3.19Zm1-18.89V35.48a32.2,32.2,0,0,0,12.46-2.89c-2-5.38-7.58-12.12-12.35-14.93Zm-3,18.84c-3.38,0-9.8-1.49-11.92-2.88L29,33.34l.16-.38A33.54,33.54,0,0,1,42,17l.78-.52v19.8l-.43.07A8.54,8.54,0,0,1,41.23,36.45Zm-11-3.51a31.26,31.26,0,0,0,11.53,2.5v-17A32.51,32.51,0,0,0,30.21,32.94Zm-1.78.37L28,33.07a31,31,0,0,1-8.23-5.78L19.38,27l.32-.36A31.48,31.48,0,0,1,40,16.68l1.66-.09-1.34,1a34.78,34.78,0,0,0-6.94,6.81,36.35,36.35,0,0,0-4.77,8.42Zm-7.67-6.4a30,30,0,0,0,7.16,5,37.12,37.12,0,0,1,4.7-8.16,35.16,35.16,0,0,1,5.77-5.94A30.89,30.89,0,0,0,20.76,26.91Zm37.75,6-.22-.51A36,36,0,0,0,47.21,17.83l-1-.76,1.23-.13c4.47-.49,15.38,5.13,18.83,9.69l.26.35-.3.31A30.94,30.94,0,0,1,59,32.6ZM49,18A37.06,37.06,0,0,1,59,31.46a30,30,0,0,0,6.23-4.56C62.06,23.1,53.58,18.53,49,18Z"/><path class="cls-2" d="M47.48,52.58c0,.8,0,1.61,0,2.42a1.53,1.53,0,0,1-1.6,1.65c-1.64,0-3.29,0-4.93,0a1.54,1.54,0,0,1-1.66-1.6q0-2.5,0-5a1.51,1.51,0,0,1,1.65-1.6c1.64,0,3.29,0,4.93,0a1.52,1.52,0,0,1,1.61,1.63c0,.43,0,.86,0,1.29Zm-6.66-2.65v5.21H46V49.93Z"/><path class="cls-2" d="M43.42,57.17l-2.48,0a2,2,0,0,1-2.15-2.09c0-1.69,0-3.39,0-5a2,2,0,0,1,2.14-2.09q2.48,0,5,0A2,2,0,0,1,48,50.05c0,.31,0,.61,0,.91v2.4q0,.82,0,1.65a2,2,0,0,1-2.09,2.14Zm0-8.25-2.48,0a1,1,0,0,0-1.16,1.11c0,1.63,0,3.31,0,5A1.05,1.05,0,0,0,41,56.15c1.77,0,3.37,0,4.91,0A1,1,0,0,0,47,55q0-.81,0-1.62V51c0-.29,0-.57,0-.86a1,1,0,0,0-1.12-1.15Zm3,6.72H40.33V49.43h6.14Zm-5.14-1h4.14V50.43H41.33Z"/><path class="cls-2" d="M54.65,56.55c-.81,0-1.61,0-2.42,0a1.49,1.49,0,0,1-1.67-1.64c0-1.61,0-3.23,0-4.85a1.51,1.51,0,0,1,1.64-1.68c1.64,0,3.28,0,4.93,0A1.49,1.49,0,0,1,58.76,50c0,1.64,0,3.29,0,4.93a1.54,1.54,0,0,1-1.69,1.64H54.65Zm2.57-1.5V49.9H52.05v5.15Z"/><path class="cls-2" d="M53.17,57.05h-1a2,2,0,0,1-2.16-2.13q0-2.43,0-4.86a2,2,0,0,1,2.13-2.18c1.64,0,3.3,0,4.94,0A2,2,0,0,1,59.26,50c0,1.58,0,3.2,0,5a2,2,0,0,1-2.18,2.13H53.17Zm1.49-8.19H52.2c-.78,0-1.14.38-1.14,1.19,0,1.61,0,3.23,0,4.84,0,.79.36,1.13,1.18,1.14h4.83c.81,0,1.18-.38,1.2-1.15,0-1.74,0-3.35,0-4.91,0-.75-.37-1.1-1.14-1.12Zm3.06,6.69H51.55V49.4h6.17Zm-5.17-1h4.17V50.4H52.55Z"/><path class="cls-2" d="M58.83,64.62c0,.83,0,1.67,0,2.5a1.46,1.46,0,0,1-1.53,1.53c-1.7,0-3.4,0-5.09,0a1.47,1.47,0,0,1-1.54-1.53c0-1.69,0-3.39,0-5.09a1.49,1.49,0,0,1,1.58-1.58q2.5,0,5,0a1.52,1.52,0,0,1,1.58,1.66c0,.43,0,.86,0,1.3v1.21ZM57.33,62H52.18v5.18h5.15Z"/><path class="cls-2" d="M54.67,69.17l-2.48,0a2,2,0,0,1-2-2c0-1.61,0-3.28,0-5.11A2,2,0,0,1,52.23,60c1.71,0,3.4,0,5,0a2,2,0,0,1,2.07,2.15c0,.31,0,.61,0,.92v2.36c0,.59,0,1.17,0,1.76a2,2,0,0,1-2,2Zm.18-8.24-2.6,0A1,1,0,0,0,51.16,62c0,1.82,0,3.48,0,5.07a1,1,0,0,0,1,1c1.72,0,3.43,0,5.08,0a1,1,0,0,0,1-1c0-.58,0-1.15,0-1.72V64.12h0V63c0-.29,0-.59,0-.88,0-.78-.38-1.16-1.09-1.18Zm3,6.72H51.68V61.47h6.15Zm-5.15-1h4.15V62.47H52.68Z"/><path class="cls-2" d="M43.55,60.53c.81,0,1.61,0,2.42,0a1.5,1.5,0,0,1,1.63,1.53c0,1.7,0,3.4,0,5.09A1.49,1.49,0,0,1,46,68.7c-1.67,0-3.34,0-5,0a1.47,1.47,0,0,1-1.58-1.56c0-1.67,0-3.34,0-5A1.52,1.52,0,0,1,41,60.53c.84,0,1.67,0,2.51,0Zm2.54,6.67V62.06H40.91V67.2Z"/><path class="cls-2" d="M43.56,69.21c-.86,0-1.73,0-2.59,0a2,2,0,0,1-2.07-2.06c0-1.63,0-3.32,0-5A2,2,0,0,1,41,60H46a2,2,0,0,1,2.12,2c0,1.68,0,3.4,0,5.11a2,2,0,0,1-2.1,2ZM42,61h-1a1,1,0,0,0-1.16,1.1c0,1.68,0,3.36,0,5A1,1,0,0,0,41,68.19c1.67,0,3.35,0,5,0a1,1,0,0,0,1.12-1.06c0-1.7,0-3.4,0-5.07A1,1,0,0,0,46,61H42Zm4.57,6.68H40.41V61.56h6.18Zm-5.18-1h4.18V62.56H41.41Z"/><path class="cls-2" d="M73.84,66.66c.62,0,1.24,0,1.85,0a1.69,1.69,0,0,1,1.72,1.76q0,.4,0,.81A1.72,1.72,0,0,1,75.65,71c-1.16,0-2.32,0-3.48,0s-1.86-.79-1.85-2.31.61-2,1.9-2.08c.54,0,1.08,0,1.62,0Zm-.06,2.92c.54,0,1.08,0,1.61,0s.56-.34.57-.75,0-.74-.58-.72c-.91,0-1.83,0-2.74,0-.58,0-.88.1-.87.79s.39.71.88.69Z"/><path class="cls-2" d="M73.91,71.57l-1.75,0c-1.56,0-2.35-1-2.34-2.81,0-2.09,1.31-2.56,2.39-2.58h2.2c.44,0,.87,0,1.31,0a2.19,2.19,0,0,1,2.19,2.24c0,.28,0,.57,0,.85a2.22,2.22,0,0,1-2.25,2.29C75.09,71.56,74.51,71.57,73.91,71.57Zm-1.06-4.42h-.62c-.84,0-1.4.3-1.41,1.58,0,1.47.54,1.78,1.37,1.81,1.22,0,2.35,0,3.44,0a1.24,1.24,0,0,0,1.28-1.33c0-.25,0-.51,0-.77a1.2,1.2,0,0,0-1.24-1.28c-.42,0-.83,0-1.25,0H72.85Zm-.39,2.94a1.19,1.19,0,0,1-.86-.28,1.16,1.16,0,0,1-.33-.91,1.28,1.28,0,0,1,.32-1,1.44,1.44,0,0,1,1.07-.31c.89,0,1.8,0,2.71,0a1.13,1.13,0,0,1,.81.26,1.27,1.27,0,0,1,.28,1,1.32,1.32,0,0,1-.3,1,1.11,1.11,0,0,1-.79.25H72.46Zm-.17-1.45a.62.62,0,0,0,0,.25.46.46,0,0,0,0,.21h2c.38,0,.76,0,1.14,0h0a1.77,1.77,0,0,0,0-.23,1.93,1.93,0,0,0,0-.24h0c-.93,0-1.87,0-2.78,0A.71.71,0,0,0,72.29,68.64Z"/></svg>