<svg id="Layer_1" data-name="Layer 1" xmlns="http://www.w3.org/2000/svg" viewBox="0 0 100 100"><defs><style>.cls-1{fill:#1b75bc;}.cls-2{fill:#55c2b4;}</style></defs><title>010</title><path class="cls-1" d="M35.61,83.86l2.1-2.1,10-10a2.1,2.1,0,0,1,3.4.22,3,3,0,0,1,.37,1.38c.05,1.25,0,2.51,0,3.77v.62A27.93,27.93,0,0,0,77.8,50h2.88c.41,15.81-13.3,31.52-32.16,30.7V75.29L39.91,83.9l8.57,8.56V87C59,87.22,68.07,83.92,75.6,76.69S86.84,60.5,87.06,50H90A40.18,40.18,0,0,1,51.49,90v1c0,1.16,0,2.31,0,3.47a2.09,2.09,0,0,1-1.32,2.07,2.06,2.06,0,0,1-2.4-.51l-12-12Z"/><path class="cls-1" d="M22.21,50H19.32C19,33.3,33.6,18.32,51.47,19.31v5.37L60,16.08,51.5,7.55V13C41,12.76,31.93,16.08,24.4,23.31A36.55,36.55,0,0,0,13,50H10A40.18,40.18,0,0,1,48.49,10c0-.18,0-.37,0-.57V5.63a2.16,2.16,0,0,1,1.33-2.21,2.2,2.2,0,0,1,2.51.63Q58.24,10,64.15,15.85l.23.25c-.08.09-.14.18-.22.26L52.33,28.2a2.17,2.17,0,0,1-3.81-1.59c0-1.26,0-2.51,0-3.77v-.6A27.9,27.9,0,0,0,22.21,50Z"/><path class="cls-2" d="M50,67A17,17,0,1,1,67,50.19,17,17,0,0,1,50,67ZM64,50A14,14,0,1,0,50,64,14.06,14.06,0,0,0,64,50Z"/><path class="cls-1" d="M80.38,39.1l-1.2-2.9,3-1.4L83.47,38Z"/><path class="cls-1" d="M28.85,78.55l1.95-2.62,2.61,1.74-1.69,2.81Z"/><path class="cls-1" d="M68.28,19.51l2.88,1.93-2,2.63-2.62-1.75Z"/><path class="cls-1" d="M78.55,28.83l1.93,2.87-2.81,1.69-1.75-2.6Z"/><path class="cls-1" d="M19.52,68.29l2.81-1.69,1.75,2.61-2.62,2Z"/><path class="cls-1" d="M71.74,26l2.11-2.33,2.42,2.48L74,28.26Z"/><path class="cls-1" d="M20.82,63.79l-3,1.4L16.55,62c1-.36,1.91-.7,2.84-1,.09,0,.32.12.37.23C20.12,62.05,20.45,62.88,20.82,63.79Z"/><path class="cls-1" d="M26.15,76.3,23.7,73.86l2.36-2.15,2.24,2.22Z"/><path class="cls-1" d="M81.31,42.16l3.17-.8.68,3.4-3.25.47Z"/><path class="cls-1" d="M14.85,55.23l3.24-.47.61,3.08-3.18.79Z"/><path class="cls-2" d="M42.16,49.94l2-2,4.2,4.22,7.38-7.46,2.09,2.08-9.45,9.43Z"/></svg>