<svg id="Layer_1" data-name="Layer 1" xmlns="http://www.w3.org/2000/svg" viewBox="0 0 100 100"><defs><style>.cls-1{fill:#1b75bc;}.cls-2{fill:#55c2b4;}</style></defs><title>020</title><path class="cls-1" d="M48.13,10c2.87.42,5.76.72,8.61,1.27C62.19,12.32,67.43,14,72,17.32a11.77,11.77,0,0,1,5.27,10.35c-.19,8.07,0,16.14-.06,24.21,0,.42.16.95,0,1.23a13.05,13.05,0,0,1-1.55,1.61c-.52-.53-1.37-1-1.49-1.61a21.39,21.39,0,0,1-.07-4c-.5.36-.82.57-1.12.81-4.27,3.47-9.28,5.3-14.56,6.43A66.05,66.05,0,0,1,23.69,55a27.45,27.45,0,0,1-10.37-5.84c0,3.44-.17,6.64.06,9.82.16,2.19,1.81,3.69,3.49,5,3.85,2.94,8.34,4.41,13,5.44A65.33,65.33,0,0,0,50.5,70.42c.21,0,.42,0,.63,0,1,0,1.9.32,2,1.5s-.67,1.61-1.66,1.66c-3.33.18-6.66.49-10,.41-7-.17-13.81-1.15-20.24-4-2.77-1.22-5.33-2.92-8-4.38,0,2.37-.18,5,.06,7.6.19,2.25,1.81,3.81,3.54,5.13,4.31,3.25,9.32,4.76,14.52,5.74a65.1,65.1,0,0,0,23.9.09c1.08-.19,2.22-.27,2.51,1.11s-.75,1.85-1.93,2c-11.82,2-23.44,1.54-34.7-2.93-5-2-9.3-4.86-11.18-10.31V24.38c1.37-4.14,4.31-6.85,8-8.86a41.46,41.46,0,0,1,12.45-4.26c2.85-.52,5.73-.85,8.59-1.26Zm-4.29,3.17a60.88,60.88,0,0,0-19.6,3.07,22.92,22.92,0,0,0-8.72,5c-3.06,3-3.18,6.54,0,9.38a27.08,27.08,0,0,0,6.65,4.25,46.15,46.15,0,0,0,16.5,3.71,60,60,0,0,0,24.17-2.84c3.56-1.24,7-2.83,9.47-5.8,2.16-2.56,2.33-5.32.06-7.75A20.66,20.66,0,0,0,66.89,18C59.6,14.22,51.64,13.36,43.84,13.17ZM13.17,33.08c0,2.85.05,5.39,0,7.93A7.55,7.55,0,0,0,15.76,47a23.24,23.24,0,0,0,8.78,4.9c10.42,3.45,21,3.71,31.75,1.71a32.93,32.93,0,0,0,13.8-5.47c1.78-1.31,3.55-2.85,3.73-5.16.25-3.18.06-6.39.06-9.3A81.21,81.21,0,0,1,65.82,38c-9.25,3.82-19,4.52-28.82,3.62C28.47,40.88,20.27,39,13.17,33.08Z"/><path class="cls-2" d="M71.56,90c-.88-.27-1.76-.52-2.64-.82A16,16,0,1,1,89.67,70.57a8.84,8.84,0,0,0,.33,1v4.69c-.11.34-.23.68-.31,1a15.56,15.56,0,0,1-8.2,10.83A40.28,40.28,0,0,1,76.25,90ZM61.25,73.94A12.77,12.77,0,1,0,74.14,61.25,12.79,12.79,0,0,0,61.25,73.94Z"/><path class="cls-2" d="M75.64,81.91H72.47V75.65H66.08V72.46h6.29V66.08h3.19v6.3h6.33V75.6H75.64Z"/></svg>