<svg id="Layer_1" data-name="Layer 1" xmlns="http://www.w3.org/2000/svg" viewBox="0 0 100 100"><defs><style>.cls-1{fill:#1b75bc;}.cls-2{fill:#55c2b4;}</style></defs><title>030</title><path class="cls-1" d="M79.3,64.1V61h-27v4h8.91c1.52,0,1.84.31,1.84,1.8,0,4.75,0,9.5,0,14.25a3.57,3.57,0,0,0,.31,1.4c.77,1.72,1.59,3.41,2.38,5.11.61,1.3.12,2.07-1.32,2.07q-13.35,0-26.69,0c-1.27,0-1.75-.74-1.25-1.94.73-1.74,1.49-3.45,2.2-5.2A4.22,4.22,0,0,0,39.05,81c0-4.72,0-9.44,0-14.16,0-1.52.31-1.83,1.81-1.84h8.94V61H22.87v4h9.79c1.36,0,1.72.34,1.73,1.68q0,7.48,0,15c0,1.25-.36,1.61-1.61,1.61-2,0-3.92,0-6,0v2.29h1c1.25,0,1.77.39,1.76,1.3s-.53,1.27-1.81,1.27H18.89c-.9,0-1.8,0-2.7,0s-1.54-.51-1.51-1.33.55-1.22,1.51-1.24c.43,0,.87,0,1.35,0V83.15h-4.9c-2.64,0-2.64,0-2.64-2.62V66.61c0-1.43.3-1.73,1.72-1.73h8.44v-5c0-1.19.37-1.57,1.57-1.57H49.58v-4h-1c-7.7,0-15.39.07-23.09,0a13.6,13.6,0,0,1-13-8.53c-3.74-8.25,1.91-18.21,10.89-19.39l1.61-.2a12,12,0,0,1,16.14-8.89,2.65,2.65,0,0,0,.25-.37A13.65,13.65,0,0,1,65,15.74a1.82,1.82,0,0,0,1.43.88,11.73,11.73,0,0,1,9.73,11.06c0,.35,0,.7,0,1,1,.17,1.86.26,2.72.48A12.74,12.74,0,0,1,78.56,54a13.51,13.51,0,0,1-2.92.27q-11.25,0-22.51,0h-.78v4.06h27.7c1.5,0,1.84.33,1.85,1.81V64.1h6.69c1.06,0,1.41.38,1.41,1.43V89c0,1.27-.34,1.61-1.59,1.61H73.18c-1.2,0-1.58-.37-1.58-1.55V65.68c0-1.18.39-1.58,1.56-1.58ZM50.74,51.79h0c8.37,0,16.75,0,25.13,0a11.17,11.17,0,0,0,4.18-.91,10.15,10.15,0,0,0-5-19.39,1.35,1.35,0,0,1-1.54-1.72,9.28,9.28,0,0,0-8.3-10.65,2.2,2.2,0,0,1-2-1.32A11,11,0,0,0,43.15,19c-.23.55-.44,1.15-1.11,1.14a3.31,3.31,0,0,1-1.38-.4C35,17,27.89,20.94,27.41,27.17c-.1,1.25-.43,1.54-1.71,1.47a11.58,11.58,0,1,0,.15,23.15ZM31.52,80.72V67.59H12.45V80.72Zm9.86,0H60.46V67.6H41.38Zm46.18.54V66.71H74.18V81.23Zm-24.88,6c-.53-1.26-1-2.42-1.52-3.55a.8.8,0,0,0-.63-.34q-9.51,0-19,0c-.21,0-.53.12-.6.28-.53,1.17-1,2.37-1.53,3.62Zm11.49.88H87.44V83.73H74.17ZM20.08,83.32v2.19h4V83.32Z"/><path class="cls-2" d="M63.42,82.46a3.62,3.62,0,0,1-.32-1.4c0-4.75,0-9.5,0-14.25,0-1.49-.31-1.8-1.83-1.8H52.34v-.14H49.81V65h-9c-1.5,0-1.8.32-1.8,1.84,0,4.72,0,9.44,0,14.16a4,4,0,0,1-.31,1.49c-.7,1.74-1.47,3.46-2.19,5.19-.51,1.21,0,2,1.25,2H64.48c1.44,0,1.92-.78,1.32-2.07C65,85.86,64.19,84.17,63.42,82.46Zm-22-14.86H60.46V80.7H41.38Zm-2,19.59c.53-1.26,1-2.45,1.54-3.63a.77.77,0,0,1,.59-.27q9.52,0,19.05,0a.8.8,0,0,1,.63.34c.52,1.13,1,2.28,1.51,3.55Z"/><path class="cls-2" d="M56.59,28.07c-.89.8-1.61,1.45-2.34,2.09a3.8,3.8,0,0,1-.62.52,1.35,1.35,0,0,1-1.77-.31A1.11,1.11,0,0,1,52,28.75c1.65-1.5,3.34-3,5-4.41a1.21,1.21,0,0,1,1.66.07c1.61,1.38,3.22,2.77,4.81,4.19a1.2,1.2,0,0,1,.19,1.86,1.26,1.26,0,0,1-1.88,0c-.84-.74-1.66-1.5-2.65-2.4V29q0,7.65,0,15.3c0,1-.42,1.53-1.27,1.53s-1.28-.47-1.29-1.44c0-2.15,0-4.3,0-6.46Z"/><path class="cls-2" d="M42.89,41.75V25.83a5.61,5.61,0,0,1,0-.58,1.26,1.26,0,1,1,2.51,0c0,2.65,0,5.29,0,7.94v8.51c1-.91,1.86-1.69,2.73-2.45a1.48,1.48,0,0,1,2,0,1.16,1.16,0,0,1,0,1.8c-1.68,1.52-3.39,3-5.12,4.46a1.15,1.15,0,0,1-1.58,0c-1.65-1.43-3.3-2.86-4.93-4.31a1.26,1.26,0,1,1,1.71-1.84C41.06,40.08,41.88,40.83,42.89,41.75Z"/><path class="cls-1" d="M80.81,84.56c1.12,0,1.79.49,1.67,1.3,0,.4-.39,1-.67,1.06a4.84,4.84,0,0,1-2.17-.19c-.24-.08-.4-.87-.33-1.29C79.45,84.59,80.18,84.52,80.81,84.56Z"/></svg>